SplineFontDB: 3.2
FontName: PromptFont
FullName: PromptFont
FamilyName: PromptFont
Weight: Book
Copyright: Copyright 2018-2023, Yukari Hafner\nCopyright 2011-2016, Severin Meyer\n
Version: 1.0
ItalicAngle: 0
UnderlinePosition: -65
UnderlineWidth: 80
Ascent: 790
Descent: 210
InvalidEm: 0
sfntRevision: 0x00010000
LayerCount: 2
Layer: 0 1 "Back" 1
Layer: 1 1 "Fore" 0
XUID: [1021 844 1898554484 15167]
StyleMap: 0x0040
FSType: 0
OS2Version: 1
OS2_WeightWidthSlopeOnly: 0
OS2_UseTypoMetrics: 0
CreationTime: 1544355305
ModificationTime: 1742156265
PfmFamily: 17
TTFWeight: 400
TTFWidth: 5
LineGap: 0
VLineGap: 0
Panose: 2 0 8 3 0 0 0 0 0 0
OS2TypoAscent: 790
OS2TypoAOffset: 0
OS2TypoDescent: -210
OS2TypoDOffset: 0
OS2TypoLinegap: 200
OS2WinAscent: 930
OS2WinAOffset: 0
OS2WinDescent: 270
OS2WinDOffset: 0
HheadAscent: 930
HheadAOffset: 0
HheadDescent: -270
HheadDOffset: 0
OS2SubXSize: 608
OS2SubYSize: 576
OS2SubXOff: 0
OS2SubYOff: 0
OS2SupXSize: 608
OS2SupYSize: 576
OS2SupXOff: 0
OS2SupYOff: 280
OS2StrikeYSize: 80
OS2StrikeYPos: 250
OS2Vendor: 'PfEd'
OS2CodePages: 60000093.00000000
OS2UnicodeRanges: 80000007.1200c7e0.00000010.00000000
MarkAttachClasses: 1
DEI: 91125
ShortTable: cvt  2
  33
  633
EndShort
ShortTable: maxp 16
  1
  0
  731
  762
  78
  0
  0
  2
  0
  1
  1
  0
  64
  46
  0
  0
EndShort
LangName: 1033 "" "" "Regular" "PromptFont 1.0" "" "" "" "" "" "" "" "https://github.com/shinmera/promptfont" "" "SIL Open Font License 1.1" "http://scripts.sil.org/OFL"
GaspTable: 1 65535 2 0
Encoding: UnicodeFull
Compacted: 1
UnicodeInterp: none
NameList: AGL For New Fonts
DisplaySize: -36
AntiAlias: 1
FitToEm: 0
WinInfo: 620 20 6
BeginChars: 1114115 729

StartChar: exclam
Encoding: 33 33 2
Width: 350
GlyphClass: 1
Flags: W
LayerCount: 2
Fore
SplineSet
75 0 m 1,0,-1
 75 150 l 1,1,-1
 275 150 l 1,2,-1
 275 0 l 1,3,-1
 75 0 l 1,0,-1
75 225 m 1,4,-1
 75 660 l 1,5,-1
 275 660 l 1,6,-1
 275 225 l 1,7,-1
 75 225 l 1,4,-1
EndSplineSet
Validated: 1
EndChar

StartChar: quotedbl
Encoding: 34 34 3
Width: 560
GlyphClass: 1
Flags: W
LayerCount: 2
Fore
SplineSet
70 380 m 1,0,-1
 70 660 l 1,1,-1
 230 660 l 1,2,-1
 230 380 l 1,3,-1
 70 380 l 1,0,-1
330 380 m 1,4,-1
 330 660 l 1,5,-1
 490 660 l 1,6,-1
 490 380 l 1,7,-1
 330 380 l 1,4,-1
EndSplineSet
Validated: 1
EndChar

StartChar: numbersign
Encoding: 35 35 4
Width: 810
GlyphClass: 1
Flags: W
LayerCount: 2
Fore
SplineSet
40 150 m 1,0,-1
 40 250 l 1,1,-1
 170 250 l 1,2,-1
 170 410 l 1,3,-1
 40 410 l 1,4,-1
 40 510 l 1,5,-1
 170 510 l 1,6,-1
 170 660 l 1,7,-1
 330 660 l 1,8,-1
 330 510 l 1,9,-1
 480 510 l 1,10,-1
 480 660 l 1,11,-1
 640 660 l 1,12,-1
 640 510 l 1,13,-1
 770 510 l 1,14,-1
 770 410 l 1,15,-1
 640 410 l 1,16,-1
 640 250 l 1,17,-1
 770 250 l 1,18,-1
 770 150 l 1,19,-1
 640 150 l 1,20,-1
 640 0 l 1,21,-1
 480 0 l 1,22,-1
 480 150 l 1,23,-1
 330 150 l 1,24,-1
 330 0 l 1,25,-1
 170 0 l 1,26,-1
 170 150 l 1,27,-1
 40 150 l 1,0,-1
330 250 m 1,28,-1
 480 250 l 1,29,-1
 480 410 l 1,30,-1
 330 410 l 1,31,-1
 330 250 l 1,28,-1
EndSplineSet
Validated: 1
EndChar

StartChar: dollar
Encoding: 36 36 5
Width: 740
GlyphClass: 1
Flags: W
LayerCount: 2
Fore
SplineSet
50 0 m 1,0,-1
 50 120 l 1,1,-1
 455 120 l 2,2,3
 490 120 490 120 490 148 c 2,4,-1
 490 257 l 2,5,6
 490 285 490 285 455 285 c 2,7,-1
 220 285 l 2,8,9
 50 285 50 285 50 421 c 2,10,-1
 50 524 l 2,11,12
 50 660 50 660 220 660 c 2,13,-1
 305 660 l 1,14,-1
 305 780 l 1,15,-1
 435 780 l 1,16,-1
 435 660 l 1,17,-1
 640 660 l 1,18,-1
 640 540 l 1,19,-1
 285 540 l 2,20,21
 250 540 250 540 250 512 c 2,22,-1
 250 433 l 2,23,24
 250 405 250 405 285 405 c 2,25,-1
 520 405 l 2,26,27
 690 405 690 405 690 269 c 2,28,-1
 690 136 l 2,29,30
 690 0 690 0 520 0 c 2,31,-1
 435 0 l 1,32,-1
 435 -120 l 1,33,-1
 305 -120 l 1,34,-1
 305 0 l 1,35,-1
 50 0 l 1,0,-1
EndSplineSet
Validated: 1
EndChar

StartChar: percent
Encoding: 37 37 6
Width: 1110
GlyphClass: 1
Flags: W
LayerCount: 2
Fore
SplineSet
40 364 m 2,0,-1
 40 576 l 2,1,2
 40 660 40 660 145 660 c 2,3,-1
 315 660 l 2,4,5
 420 660 420 660 420 576 c 2,6,-1
 420 364 l 2,7,8
 420 280 420 280 315 280 c 2,9,-1
 145 280 l 2,10,11
 40 280 40 280 40 364 c 2,0,-1
180 376 m 2,12,13
 180 360 180 360 200 360 c 2,14,-1
 260 360 l 2,15,16
 280 360 280 360 280 376 c 2,17,-1
 280 564 l 2,18,19
 280 580 280 580 260 580 c 2,20,-1
 200 580 l 2,21,22
 180 580 180 580 180 564 c 2,23,-1
 180 376 l 2,12,13
295 0 m 1,24,-1
 657 660 l 1,25,-1
 815 660 l 1,26,-1
 453 0 l 1,27,-1
 295 0 l 1,24,-1
690 84 m 2,28,-1
 690 296 l 2,29,30
 690 380 690 380 795 380 c 2,31,-1
 965 380 l 2,32,33
 1070 380 1070 380 1070 296 c 2,34,-1
 1070 84 l 2,35,36
 1070 0 1070 0 965 0 c 2,37,-1
 795 0 l 2,38,39
 690 0 690 0 690 84 c 2,28,-1
830 96 m 2,40,41
 830 80 830 80 850 80 c 2,42,-1
 910 80 l 2,43,44
 930 80 930 80 930 96 c 2,45,-1
 930 284 l 2,46,47
 930 300 930 300 910 300 c 2,48,-1
 850 300 l 2,49,50
 830 300 830 300 830 284 c 2,51,-1
 830 96 l 2,40,41
EndSplineSet
Validated: 1
EndChar

StartChar: ampersand
Encoding: 38 38 7
Width: 840
GlyphClass: 1
Flags: W
LayerCount: 2
Fore
SplineSet
60 120 m 2,0,-1
 60 247 l 2,1,2
 60 338 60 338 145 360 c 1,3,4
 90 389 90 389 90 461 c 2,5,-1
 90 540 l 2,6,7
 90 660 90 660 240 660 c 2,8,-1
 595 660 l 1,9,-1
 595 555 l 1,10,-1
 295 555 l 2,11,12
 270 555 270 555 270 535 c 2,13,-1
 270 420 l 2,14,15
 270 400 270 400 295 400 c 2,16,-1
 810 400 l 1,17,-1
 810 295 l 1,18,-1
 670 295 l 1,19,-1
 670 0 l 1,20,-1
 210 0 l 2,21,22
 60 0 60 0 60 120 c 2,0,-1
240 125 m 2,23,24
 240 105 240 105 265 105 c 2,25,-1
 490 105 l 1,26,-1
 490 295 l 1,27,-1
 265 295 l 2,28,29
 240 295 240 295 240 275 c 2,30,-1
 240 125 l 2,23,24
EndSplineSet
Validated: 1
EndChar

StartChar: quotesingle
Encoding: 39 39 8
Width: 300
GlyphClass: 1
Flags: W
LayerCount: 2
Fore
SplineSet
70 380 m 1,0,-1
 70 660 l 1,1,-1
 230 660 l 1,2,-1
 230 380 l 1,3,-1
 70 380 l 1,0,-1
EndSplineSet
Validated: 1
EndChar

StartChar: parenleft
Encoding: 40 40 9
Width: 420
GlyphClass: 1
Flags: W
LayerCount: 2
Fore
SplineSet
70 225 m 128,-1,1
 70 345 70 345 110 457.5 c 128,-1,2
 150 570 150 570 225 660 c 1,3,-1
 380 660 l 1,4,5
 240 473 240 473 240 225 c 128,-1,6
 240 -23 240 -23 380 -210 c 1,7,-1
 225 -210 l 1,8,9
 150 -120 150 -120 110 -7.5 c 128,-1,0
 70 105 70 105 70 225 c 128,-1,1
EndSplineSet
Validated: 1
EndChar

StartChar: parenright
Encoding: 41 41 10
Width: 420
GlyphClass: 1
Flags: W
LayerCount: 2
Fore
SplineSet
40 -210 m 1,0,1
 180 -23 180 -23 180 225 c 128,-1,2
 180 473 180 473 40 660 c 1,3,-1
 195 660 l 1,4,5
 270 570 270 570 310 457.5 c 128,-1,6
 350 345 350 345 350 225 c 128,-1,7
 350 105 350 105 310 -7.5 c 128,-1,8
 270 -120 270 -120 195 -210 c 1,9,-1
 40 -210 l 1,0,1
EndSplineSet
Validated: 1
EndChar

StartChar: asterisk
Encoding: 42 42 11
Width: 550
GlyphClass: 1
Flags: W
LayerCount: 2
Fore
SplineSet
30 434 m 1,0,-1
 72 561 l 1,1,-1
 205 518 l 1,2,-1
 205 660 l 1,3,-1
 345 660 l 1,4,-1
 345 518 l 1,5,-1
 478 561 l 1,6,-1
 520 434 l 1,7,-1
 383 390 l 1,8,-1
 467 274 l 1,9,-1
 359 195 l 1,10,-1
 275 311 l 1,11,-1
 191 195 l 1,12,-1
 83 274 l 1,13,-1
 167 390 l 1,14,-1
 30 434 l 1,0,-1
EndSplineSet
Validated: 1
EndChar

StartChar: plus
Encoding: 43 43 12
Width: 740
GlyphClass: 1
Flags: W
LayerCount: 2
Fore
SplineSet
85 225 m 1,0,-1
 85 345 l 1,1,-1
 285 345 l 1,2,-1
 285 540 l 1,3,-1
 455 540 l 1,4,-1
 455 345 l 1,5,-1
 655 345 l 1,6,-1
 655 225 l 1,7,-1
 455 225 l 1,8,-1
 455 30 l 1,9,-1
 285 30 l 1,10,-1
 285 225 l 1,11,-1
 85 225 l 1,0,-1
EndSplineSet
Validated: 1
EndChar

StartChar: comma
Encoding: 44 44 13
Width: 340
GlyphClass: 1
Flags: W
LayerCount: 2
Fore
SplineSet
25 -130 m 1,0,-1
 95 150 l 1,1,-1
 275 150 l 1,2,-1
 160 -130 l 1,3,-1
 25 -130 l 1,0,-1
EndSplineSet
Validated: 1
EndChar

StartChar: hyphen
Encoding: 45 45 14
Width: 460
GlyphClass: 1
Flags: W
LayerCount: 2
Fore
SplineSet
40 225 m 1,0,-1
 40 345 l 1,1,-1
 420 345 l 1,2,-1
 420 225 l 1,3,-1
 40 225 l 1,0,-1
EndSplineSet
Validated: 1
EndChar

StartChar: period
Encoding: 46 46 15
Width: 340
GlyphClass: 1
Flags: W
LayerCount: 2
Fore
SplineSet
75 0 m 1,0,-1
 75 150 l 1,1,-1
 265 150 l 1,2,-1
 265 0 l 1,3,-1
 75 0 l 1,0,-1
EndSplineSet
Validated: 1
EndChar

StartChar: slash
Encoding: 47 47 16
Width: 530
GlyphClass: 1
Flags: W
LayerCount: 2
Fore
SplineSet
20 0 m 1,0,-1
 337 660 l 1,1,-1
 510 660 l 1,2,-1
 193 0 l 1,3,-1
 20 0 l 1,0,-1
EndSplineSet
Validated: 1
EndChar

StartChar: zero
Encoding: 48 48 17
Width: 740
GlyphClass: 1
Flags: W
LayerCount: 2
Fore
SplineSet
60 136 m 2,0,-1
 60 524 l 2,1,2
 60 660 60 660 230 660 c 2,3,-1
 510 660 l 2,4,5
 680 660 680 660 680 524 c 2,6,-1
 680 136 l 2,7,8
 680 0 680 0 510 0 c 2,9,-1
 230 0 l 2,10,11
 60 0 60 0 60 136 c 2,0,-1
260 148 m 2,12,13
 260 120 260 120 295 120 c 2,14,-1
 445 120 l 2,15,16
 480 120 480 120 480 148 c 2,17,-1
 480 512 l 2,18,19
 480 540 480 540 445 540 c 2,20,-1
 295 540 l 2,21,22
 260 540 260 540 260 512 c 2,23,-1
 260 148 l 2,12,13
EndSplineSet
Validated: 1
EndChar

StartChar: one
Encoding: 49 49 18
Width: 740
GlyphClass: 1
Flags: W
LayerCount: 2
Fore
SplineSet
145 540 m 1,0,-1
 145 660 l 1,1,-1
 525 660 l 1,2,-1
 525 0 l 1,3,-1
 325 0 l 1,4,-1
 325 540 l 1,5,-1
 145 540 l 1,0,-1
EndSplineSet
Validated: 1
EndChar

StartChar: two
Encoding: 50 50 19
Width: 740
GlyphClass: 1
Flags: W
LayerCount: 2
Fore
SplineSet
60 0 m 1,0,-1
 60 269 l 2,1,2
 60 405 60 405 230 405 c 2,3,-1
 445 405 l 2,4,5
 480 405 480 405 480 433 c 2,6,-1
 480 512 l 2,7,8
 480 540 480 540 445 540 c 2,9,-1
 110 540 l 1,10,-1
 110 660 l 1,11,-1
 510 660 l 2,12,13
 680 660 680 660 680 524 c 2,14,-1
 680 421 l 2,15,16
 680 285 680 285 510 285 c 2,17,-1
 295 285 l 2,18,19
 260 285 260 285 260 257 c 2,20,-1
 260 120 l 1,21,-1
 680 120 l 1,22,-1
 680 0 l 1,23,-1
 60 0 l 1,0,-1
EndSplineSet
Validated: 1
EndChar

StartChar: three
Encoding: 51 51 20
Width: 740
GlyphClass: 1
Flags: W
LayerCount: 2
Fore
SplineSet
80 0 m 1,0,-1
 80 120 l 1,1,-1
 445 120 l 2,2,3
 480 120 480 120 480 148 c 2,4,-1
 480 257 l 2,5,6
 480 285 480 285 445 285 c 2,7,-1
 170 285 l 1,8,-1
 170 405 l 1,9,-1
 445 405 l 2,10,11
 480 405 480 405 480 433 c 2,12,-1
 480 512 l 2,13,14
 480 540 480 540 445 540 c 2,15,-1
 80 540 l 1,16,-1
 80 660 l 1,17,-1
 510 660 l 2,18,19
 680 660 680 660 680 524 c 2,20,-1
 680 469 l 2,21,22
 680 382 680 382 609 350 c 1,23,24
 680 318 680 318 680 231 c 2,25,-1
 680 136 l 2,26,27
 680 0 680 0 510 0 c 2,28,-1
 80 0 l 1,0,-1
EndSplineSet
Validated: 1
EndChar

StartChar: four
Encoding: 52 52 21
Width: 740
GlyphClass: 1
Flags: W
LayerCount: 2
Fore
SplineSet
60 120 m 1,0,-1
 60 240 l 1,1,-1
 435 660 l 1,2,-1
 680 660 l 1,3,-1
 680 0 l 1,4,-1
 480 0 l 1,5,-1
 480 120 l 1,6,-1
 60 120 l 1,0,-1
283 240 m 1,7,-1
 480 240 l 1,8,-1
 480 462 l 1,9,-1
 283 240 l 1,7,-1
EndSplineSet
Validated: 1
EndChar

StartChar: five
Encoding: 53 53 22
Width: 740
GlyphClass: 1
Flags: W
LayerCount: 2
Fore
SplineSet
60 0 m 1,0,-1
 60 120 l 1,1,-1
 445 120 l 2,2,3
 480 120 480 120 480 148 c 2,4,-1
 480 257 l 2,5,6
 480 285 480 285 445 285 c 2,7,-1
 60 285 l 1,8,-1
 60 660 l 1,9,-1
 640 660 l 1,10,-1
 640 540 l 1,11,-1
 260 540 l 1,12,-1
 260 405 l 1,13,-1
 510 405 l 2,14,15
 680 405 680 405 680 269 c 2,16,-1
 680 136 l 2,17,18
 680 0 680 0 510 0 c 2,19,-1
 60 0 l 1,0,-1
EndSplineSet
Validated: 1
EndChar

StartChar: six
Encoding: 54 54 23
Width: 740
GlyphClass: 1
Flags: W
LayerCount: 2
Fore
SplineSet
60 136 m 2,0,-1
 60 500 l 2,1,2
 60 660 60 660 260 660 c 2,3,-1
 630 660 l 1,4,-1
 630 540 l 1,5,-1
 330 540 l 2,6,7
 260 540 260 540 260 484 c 2,8,-1
 260 405 l 1,9,-1
 510 405 l 2,10,11
 680 405 680 405 680 269 c 2,12,-1
 680 136 l 2,13,14
 680 0 680 0 510 0 c 2,15,-1
 230 0 l 2,16,17
 60 0 60 0 60 136 c 2,0,-1
260 148 m 2,18,19
 260 120 260 120 295 120 c 2,20,-1
 445 120 l 2,21,22
 480 120 480 120 480 148 c 2,23,-1
 480 257 l 2,24,25
 480 285 480 285 445 285 c 2,26,-1
 260 285 l 1,27,-1
 260 148 l 2,18,19
EndSplineSet
Validated: 1
EndChar

StartChar: seven
Encoding: 55 55 24
Width: 740
GlyphClass: 1
Flags: W
LayerCount: 2
Fore
SplineSet
60 540 m 1,0,-1
 60 660 l 1,1,-1
 680 660 l 1,2,-1
 680 540 l 1,3,-1
 385 0 l 1,4,-1
 166 0 l 1,5,-1
 461 540 l 1,6,-1
 60 540 l 1,0,-1
EndSplineSet
Validated: 1
EndChar

StartChar: eight
Encoding: 56 56 25
Width: 740
GlyphClass: 1
Flags: W
LayerCount: 2
Fore
SplineSet
60 136 m 2,0,-1
 60 231 l 2,1,2
 60 318 60 318 131 350 c 1,3,4
 60 382 60 382 60 469 c 2,5,-1
 60 524 l 2,6,7
 60 660 60 660 230 660 c 2,8,-1
 510 660 l 2,9,10
 680 660 680 660 680 524 c 2,11,-1
 680 469 l 2,12,13
 680 382 680 382 609 350 c 1,14,15
 680 318 680 318 680 231 c 2,16,-1
 680 136 l 2,17,18
 680 0 680 0 510 0 c 2,19,-1
 230 0 l 2,20,21
 60 0 60 0 60 136 c 2,0,-1
260 148 m 2,22,23
 260 120 260 120 295 120 c 2,24,-1
 445 120 l 2,25,26
 480 120 480 120 480 148 c 2,27,-1
 480 257 l 2,28,29
 480 285 480 285 445 285 c 2,30,-1
 295 285 l 2,31,32
 260 285 260 285 260 257 c 2,33,-1
 260 148 l 2,22,23
260 433 m 2,34,35
 260 405 260 405 295 405 c 2,36,-1
 445 405 l 2,37,38
 480 405 480 405 480 433 c 2,39,-1
 480 512 l 2,40,41
 480 540 480 540 445 540 c 2,42,-1
 295 540 l 2,43,44
 260 540 260 540 260 512 c 2,45,-1
 260 433 l 2,34,35
EndSplineSet
Validated: 1
EndChar

StartChar: nine
Encoding: 57 57 26
Width: 740
GlyphClass: 1
Flags: W
LayerCount: 2
Fore
SplineSet
60 421 m 2,0,-1
 60 524 l 2,1,2
 60 660 60 660 230 660 c 2,3,-1
 510 660 l 2,4,5
 680 660 680 660 680 524 c 2,6,-1
 680 160 l 2,7,8
 680 0 680 0 480 0 c 2,9,-1
 100 0 l 1,10,-1
 100 120 l 1,11,-1
 410 120 l 2,12,13
 480 120 480 120 480 176 c 2,14,-1
 480 285 l 1,15,-1
 230 285 l 2,16,17
 60 285 60 285 60 421 c 2,0,-1
260 433 m 2,18,19
 260 405 260 405 295 405 c 2,20,-1
 480 405 l 1,21,-1
 480 512 l 2,22,23
 480 540 480 540 445 540 c 2,24,-1
 295 540 l 2,25,26
 260 540 260 540 260 512 c 2,27,-1
 260 433 l 2,18,19
EndSplineSet
Validated: 1
EndChar

StartChar: colon
Encoding: 58 58 27
Width: 340
GlyphClass: 1
Flags: W
LayerCount: 2
Fore
SplineSet
75 0 m 1,0,-1
 75 150 l 1,1,-1
 265 150 l 1,2,-1
 265 0 l 1,3,-1
 75 0 l 1,0,-1
75 340 m 1,4,-1
 75 490 l 1,5,-1
 265 490 l 1,6,-1
 265 340 l 1,7,-1
 75 340 l 1,4,-1
EndSplineSet
Validated: 1
EndChar

StartChar: semicolon
Encoding: 59 59 28
Width: 340
GlyphClass: 1
Flags: W
LayerCount: 2
Fore
SplineSet
10 -130 m 1,0,-1
 80 150 l 1,1,-1
 260 150 l 1,2,-1
 145 -130 l 1,3,-1
 10 -130 l 1,0,-1
75 340 m 1,4,-1
 75 490 l 1,5,-1
 265 490 l 1,6,-1
 265 340 l 1,7,-1
 75 340 l 1,4,-1
EndSplineSet
Validated: 1
EndChar

StartChar: less
Encoding: 60 60 29
Width: 740
GlyphClass: 1
Flags: W
LayerCount: 2
Fore
SplineSet
95 235 m 1,0,-1
 95 335 l 1,1,-1
 645 560 l 1,2,-1
 645 422 l 1,3,-1
 311 285 l 1,4,-1
 645 148 l 1,5,-1
 645 10 l 1,6,-1
 95 235 l 1,0,-1
EndSplineSet
Validated: 1
EndChar

StartChar: equal
Encoding: 61 61 30
Width: 740
GlyphClass: 1
Flags: W
LayerCount: 2
Fore
SplineSet
85 350 m 1,0,-1
 85 470 l 1,1,-1
 655 470 l 1,2,-1
 655 350 l 1,3,-1
 85 350 l 1,0,-1
85 100 m 1,4,-1
 85 220 l 1,5,-1
 655 220 l 1,6,-1
 655 100 l 1,7,-1
 85 100 l 1,4,-1
EndSplineSet
Validated: 1
EndChar

StartChar: greater
Encoding: 62 62 31
Width: 740
GlyphClass: 1
Flags: W
LayerCount: 2
Fore
SplineSet
95 10 m 1,0,-1
 95 148 l 1,1,-1
 429 285 l 1,2,-1
 95 422 l 1,3,-1
 95 560 l 1,4,-1
 645 335 l 1,5,-1
 645 235 l 1,6,-1
 95 10 l 1,0,-1
EndSplineSet
Validated: 1
EndChar

StartChar: question
Encoding: 63 63 32
Width: 730
GlyphClass: 1
Flags: W
LayerCount: 2
Fore
SplineSet
40 540 m 1,0,-1
 40 660 l 1,1,-1
 510 660 l 2,2,3
 680 660 680 660 680 524 c 2,4,-1
 680 421 l 2,5,6
 680 285 680 285 510 285 c 2,7,-1
 410 285 l 1,8,-1
 410 225 l 1,9,-1
 210 225 l 1,10,-1
 210 405 l 1,11,-1
 445 405 l 2,12,13
 480 405 480 405 480 433 c 2,14,-1
 480 512 l 2,15,16
 480 540 480 540 445 540 c 2,17,-1
 40 540 l 1,0,-1
210 0 m 1,18,-1
 210 150 l 1,19,-1
 410 150 l 1,20,-1
 410 0 l 1,21,-1
 210 0 l 1,18,-1
EndSplineSet
Validated: 1
EndChar

StartChar: at
Encoding: 64 64 33
Width: 1110
GlyphClass: 1
Flags: W
LayerCount: 2
Fore
SplineSet
60 -31 m 2,0,-1
 60 556 l 2,1,2
 60 660 60 660 190 660 c 2,3,-1
 920 660 l 2,4,5
 1050 660 1050 660 1050 556 c 2,6,-1
 1050 55 l 1,7,-1
 450 55 l 2,8,9
 300 55 300 55 300 175 c 2,10,-1
 300 350 l 2,11,12
 300 470 300 470 450 470 c 2,13,-1
 800 470 l 1,14,-1
 800 160 l 1,15,-1
 890 160 l 1,16,-1
 890 540 l 2,17,18
 890 560 890 560 865 560 c 2,19,-1
 245 560 l 2,20,21
 220 560 220 560 220 540 c 2,22,-1
 220 -15 l 2,23,24
 220 -35 220 -35 245 -35 c 2,25,-1
 990 -35 l 1,26,-1
 990 -135 l 1,27,-1
 190 -135 l 2,28,29
 60 -135 60 -135 60 -31 c 2,0,-1
480 180 m 2,30,31
 480 160 480 160 505 160 c 2,32,-1
 620 160 l 1,33,-1
 620 365 l 1,34,-1
 505 365 l 2,35,36
 480 365 480 365 480 345 c 2,37,-1
 480 180 l 2,30,31
EndSplineSet
Validated: 1
EndChar

StartChar: A
Encoding: 65 65 34
Width: 830
GlyphClass: 1
Flags: W
LayerCount: 2
Fore
SplineSet
5 0 m 1,0,-1
 290 660 l 1,1,-1
 540 660 l 1,2,-1
 825 0 l 1,3,-1
 629 0 l 1,4,-1
 569 140 l 1,5,-1
 261 140 l 1,6,-1
 201 0 l 1,7,-1
 5 0 l 1,0,-1
313 260 m 1,8,-1
 517 260 l 1,9,-1
 415 495 l 1,10,-1
 313 260 l 1,8,-1
EndSplineSet
Validated: 1
EndChar

StartChar: B
Encoding: 66 66 35
Width: 800
GlyphClass: 1
Flags: W
LayerCount: 2
Fore
SplineSet
70 0 m 1,0,-1
 70 660 l 1,1,-1
 560 660 l 2,2,3
 730 660 730 660 730 524 c 2,4,-1
 730 466 l 2,5,6
 730 382 730 382 665 350 c 1,7,8
 740 320 740 320 740 229 c 2,9,-1
 740 136 l 2,10,11
 740 0 740 0 570 0 c 2,12,-1
 70 0 l 1,0,-1
270 120 m 1,13,-1
 505 120 l 2,14,15
 540 120 540 120 540 148 c 2,16,-1
 540 257 l 2,17,18
 540 285 540 285 505 285 c 2,19,-1
 270 285 l 1,20,-1
 270 120 l 1,13,-1
270 405 m 1,21,-1
 495 405 l 2,22,23
 530 405 530 405 530 433 c 2,24,-1
 530 512 l 2,25,26
 530 540 530 540 495 540 c 2,27,-1
 270 540 l 1,28,-1
 270 405 l 1,21,-1
EndSplineSet
Validated: 1
EndChar

StartChar: C
Encoding: 67 67 36
Width: 760
GlyphClass: 1
Flags: W
LayerCount: 2
Fore
SplineSet
70 136 m 2,0,-1
 70 524 l 2,1,2
 70 660 70 660 240 660 c 2,3,-1
 710 660 l 1,4,-1
 710 540 l 1,5,-1
 305 540 l 2,6,7
 270 540 270 540 270 512 c 2,8,-1
 270 148 l 2,9,10
 270 120 270 120 305 120 c 2,11,-1
 710 120 l 1,12,-1
 710 0 l 1,13,-1
 240 0 l 2,14,15
 70 0 70 0 70 136 c 2,0,-1
EndSplineSet
Validated: 1
EndChar

StartChar: D
Encoding: 68 68 37
Width: 820
GlyphClass: 1
Flags: W
LayerCount: 2
Fore
SplineSet
70 0 m 1,0,-1
 70 660 l 1,1,-1
 420 660 l 2,2,3
 760 660 760 660 760 388 c 2,4,-1
 760 272 l 2,5,6
 760 0 760 0 420 0 c 2,7,-1
 70 0 l 1,0,-1
270 120 m 1,8,-1
 380 120 l 2,9,10
 560 120 560 120 560 264 c 2,11,-1
 560 396 l 2,12,13
 560 540 560 540 380 540 c 2,14,-1
 270 540 l 1,15,-1
 270 120 l 1,8,-1
EndSplineSet
Validated: 1
EndChar

StartChar: E
Encoding: 69 69 38
Width: 760
GlyphClass: 1
Flags: W
LayerCount: 2
Fore
SplineSet
70 0 m 1,0,-1
 70 660 l 1,1,-1
 710 660 l 1,2,-1
 710 540 l 1,3,-1
 270 540 l 1,4,-1
 270 405 l 1,5,-1
 660 405 l 1,6,-1
 660 285 l 1,7,-1
 270 285 l 1,8,-1
 270 120 l 1,9,-1
 710 120 l 1,10,-1
 710 0 l 1,11,-1
 70 0 l 1,0,-1
EndSplineSet
Validated: 1
EndChar

StartChar: F
Encoding: 70 70 39
Width: 730
GlyphClass: 1
Flags: W
LayerCount: 2
Fore
SplineSet
70 0 m 1,0,-1
 70 660 l 1,1,-1
 700 660 l 1,2,-1
 700 540 l 1,3,-1
 270 540 l 1,4,-1
 270 395 l 1,5,-1
 650 395 l 1,6,-1
 650 275 l 1,7,-1
 270 275 l 1,8,-1
 270 0 l 1,9,-1
 70 0 l 1,0,-1
EndSplineSet
Validated: 1
EndChar

StartChar: G
Encoding: 71 71 40
Width: 820
GlyphClass: 1
Flags: W
LayerCount: 2
Fore
SplineSet
70 136 m 2,0,-1
 70 524 l 2,1,2
 70 660 70 660 240 660 c 2,3,-1
 710 660 l 1,4,-1
 710 540 l 1,5,-1
 305 540 l 2,6,7
 270 540 270 540 270 512 c 2,8,-1
 270 148 l 2,9,10
 270 120 270 120 305 120 c 2,11,-1
 550 120 l 1,12,-1
 550 290 l 1,13,-1
 420 290 l 1,14,-1
 420 410 l 1,15,-1
 750 410 l 1,16,-1
 750 0 l 1,17,-1
 240 0 l 2,18,19
 70 0 70 0 70 136 c 2,0,-1
EndSplineSet
Validated: 1
EndChar

StartChar: H
Encoding: 72 72 41
Width: 830
GlyphClass: 1
Flags: W
LayerCount: 2
Fore
SplineSet
70 0 m 1,0,-1
 70 660 l 1,1,-1
 270 660 l 1,2,-1
 270 405 l 1,3,-1
 560 405 l 1,4,-1
 560 660 l 1,5,-1
 760 660 l 1,6,-1
 760 0 l 1,7,-1
 560 0 l 1,8,-1
 560 285 l 1,9,-1
 270 285 l 1,10,-1
 270 0 l 1,11,-1
 70 0 l 1,0,-1
EndSplineSet
Validated: 1
EndChar

StartChar: I
Encoding: 73 73 42
Width: 340
GlyphClass: 1
Flags: W
LayerCount: 2
Fore
SplineSet
70 0 m 1,0,-1
 70 660 l 1,1,-1
 270 660 l 1,2,-1
 270 0 l 1,3,-1
 70 0 l 1,0,-1
EndSplineSet
Validated: 1
EndChar

StartChar: J
Encoding: 74 74 43
Width: 750
GlyphClass: 1
Flags: W
LayerCount: 2
Fore
SplineSet
40 160 m 2,0,-1
 40 295 l 1,1,-1
 240 295 l 1,2,-1
 240 176 l 2,3,4
 240 120 240 120 310 120 c 2,5,-1
 445 120 l 2,6,7
 480 120 480 120 480 148 c 2,8,-1
 480 660 l 1,9,-1
 680 660 l 1,10,-1
 680 136 l 2,11,12
 680 0 680 0 510 0 c 2,13,-1
 240 0 l 2,14,15
 40 0 40 0 40 160 c 2,0,-1
EndSplineSet
Validated: 1
EndChar

StartChar: K
Encoding: 75 75 44
Width: 800
GlyphClass: 1
Flags: W
LayerCount: 2
Fore
SplineSet
70 0 m 1,0,-1
 70 660 l 1,1,-1
 270 660 l 1,2,-1
 270 405 l 1,3,-1
 535 660 l 1,4,-1
 780 660 l 1,5,-1
 497 387 l 1,6,-1
 790 0 l 1,7,-1
 566 0 l 1,8,-1
 367 263 l 1,9,-1
 270 169 l 1,10,-1
 270 0 l 1,11,-1
 70 0 l 1,0,-1
EndSplineSet
Validated: 1
EndChar

StartChar: L
Encoding: 76 76 45
Width: 700
GlyphClass: 1
Flags: W
LayerCount: 2
Fore
SplineSet
70 0 m 1,0,-1
 70 660 l 1,1,-1
 270 660 l 1,2,-1
 270 120 l 1,3,-1
 680 120 l 1,4,-1
 680 0 l 1,5,-1
 70 0 l 1,0,-1
EndSplineSet
Validated: 1
EndChar

StartChar: M
Encoding: 77 77 46
Width: 1040
GlyphClass: 1
Flags: W
LayerCount: 2
Fore
SplineSet
70 0 m 1,0,-1
 70 660 l 1,1,-1
 315 660 l 1,2,-1
 520 199 l 1,3,-1
 725 660 l 1,4,-1
 970 660 l 1,5,-1
 970 0 l 1,6,-1
 770 0 l 1,7,-1
 770 348 l 1,8,-1
 615 0 l 1,9,-1
 425 0 l 1,10,-1
 270 348 l 1,11,-1
 270 0 l 1,12,-1
 70 0 l 1,0,-1
EndSplineSet
Validated: 1
EndChar

StartChar: N
Encoding: 78 78 47
Width: 840
GlyphClass: 1
Flags: W
LayerCount: 2
Fore
SplineSet
70 0 m 1,0,-1
 70 660 l 1,1,-1
 285 660 l 1,2,-1
 570 264 l 1,3,-1
 570 660 l 1,4,-1
 770 660 l 1,5,-1
 770 0 l 1,6,-1
 555 0 l 1,7,-1
 270 396 l 1,8,-1
 270 0 l 1,9,-1
 70 0 l 1,0,-1
EndSplineSet
Validated: 1
EndChar

StartChar: O
Encoding: 79 79 48
Width: 830
GlyphClass: 1
Flags: W
LayerCount: 2
Fore
SplineSet
70 136 m 2,0,-1
 70 524 l 2,1,2
 70 660 70 660 240 660 c 2,3,-1
 590 660 l 2,4,5
 760 660 760 660 760 524 c 2,6,-1
 760 136 l 2,7,8
 760 0 760 0 590 0 c 2,9,-1
 240 0 l 2,10,11
 70 0 70 0 70 136 c 2,0,-1
270 148 m 2,12,13
 270 120 270 120 305 120 c 2,14,-1
 525 120 l 2,15,16
 560 120 560 120 560 148 c 2,17,-1
 560 512 l 2,18,19
 560 540 560 540 525 540 c 2,20,-1
 305 540 l 2,21,22
 270 540 270 540 270 512 c 2,23,-1
 270 148 l 2,12,13
EndSplineSet
Validated: 1
EndChar

StartChar: P
Encoding: 80 80 49
Width: 780
GlyphClass: 1
Flags: W
LayerCount: 2
Fore
SplineSet
70 0 m 1,0,-1
 70 660 l 1,1,-1
 560 660 l 2,2,3
 730 660 730 660 730 524 c 2,4,-1
 730 371 l 2,5,6
 730 235 730 235 560 235 c 2,7,-1
 270 235 l 1,8,-1
 270 0 l 1,9,-1
 70 0 l 1,0,-1
270 355 m 1,10,-1
 495 355 l 2,11,12
 530 355 530 355 530 383 c 2,13,-1
 530 512 l 2,14,15
 530 540 530 540 495 540 c 2,16,-1
 270 540 l 1,17,-1
 270 355 l 1,10,-1
EndSplineSet
Validated: 1
EndChar

StartChar: Q
Encoding: 81 81 50
Width: 830
GlyphClass: 1
Flags: W
LayerCount: 2
Fore
SplineSet
70 136 m 2,0,-1
 70 524 l 2,1,2
 70 660 70 660 240 660 c 2,3,-1
 590 660 l 2,4,5
 760 660 760 660 760 524 c 2,6,-1
 760 136 l 2,7,8
 760 0 760 0 590 0 c 2,9,-1
 563 0 l 1,10,-1
 633 -160 l 1,11,-1
 430 -160 l 1,12,-1
 360 0 l 1,13,-1
 240 0 l 2,14,15
 70 0 70 0 70 136 c 2,0,-1
270 148 m 2,16,17
 270 120 270 120 305 120 c 2,18,-1
 525 120 l 2,19,20
 560 120 560 120 560 148 c 2,21,-1
 560 512 l 2,22,23
 560 540 560 540 525 540 c 2,24,-1
 305 540 l 2,25,26
 270 540 270 540 270 512 c 2,27,-1
 270 148 l 2,16,17
EndSplineSet
Validated: 1
EndChar

StartChar: R
Encoding: 82 82 51
Width: 790
GlyphClass: 1
Flags: W
LayerCount: 2
Fore
SplineSet
70 0 m 1,0,-1
 70 660 l 1,1,-1
 560 660 l 2,2,3
 730 660 730 660 730 524 c 2,4,-1
 730 386 l 2,5,6
 730 267 730 267 595 250 c 1,7,-1
 760 0 l 1,8,-1
 544 0 l 1,9,-1
 379 250 l 1,10,-1
 270 250 l 1,11,-1
 270 0 l 1,12,-1
 70 0 l 1,0,-1
270 370 m 1,13,-1
 495 370 l 2,14,15
 530 370 530 370 530 398 c 2,16,-1
 530 512 l 2,17,18
 530 540 530 540 495 540 c 2,19,-1
 270 540 l 1,20,-1
 270 370 l 1,13,-1
EndSplineSet
Validated: 1
EndChar

StartChar: S
Encoding: 83 83 52
Width: 780
GlyphClass: 1
Flags: W
LayerCount: 2
Fore
SplineSet
60 0 m 1,0,-1
 60 120 l 1,1,-1
 485 120 l 2,2,3
 520 120 520 120 520 148 c 2,4,-1
 520 257 l 2,5,6
 520 285 520 285 485 285 c 2,7,-1
 230 285 l 2,8,9
 60 285 60 285 60 421 c 2,10,-1
 60 524 l 2,11,12
 60 660 60 660 230 660 c 2,13,-1
 670 660 l 1,14,-1
 670 540 l 1,15,-1
 295 540 l 2,16,17
 260 540 260 540 260 512 c 2,18,-1
 260 433 l 2,19,20
 260 405 260 405 295 405 c 2,21,-1
 550 405 l 2,22,23
 720 405 720 405 720 269 c 2,24,-1
 720 136 l 2,25,26
 720 0 720 0 550 0 c 2,27,-1
 60 0 l 1,0,-1
EndSplineSet
Validated: 1
EndChar

StartChar: T
Encoding: 84 84 53
Width: 780
GlyphClass: 1
Flags: W
LayerCount: 2
Fore
SplineSet
20 540 m 1,0,-1
 20 660 l 1,1,-1
 760 660 l 1,2,-1
 760 540 l 1,3,-1
 490 540 l 1,4,-1
 490 0 l 1,5,-1
 290 0 l 1,6,-1
 290 540 l 1,7,-1
 20 540 l 1,0,-1
EndSplineSet
Validated: 1
EndChar

StartChar: U
Encoding: 85 85 54
Width: 830
GlyphClass: 1
Flags: W
LayerCount: 2
Fore
SplineSet
70 136 m 2,0,-1
 70 660 l 1,1,-1
 270 660 l 1,2,-1
 270 148 l 2,3,4
 270 120 270 120 305 120 c 2,5,-1
 525 120 l 2,6,7
 560 120 560 120 560 148 c 2,8,-1
 560 660 l 1,9,-1
 760 660 l 1,10,-1
 760 136 l 2,11,12
 760 0 760 0 590 0 c 2,13,-1
 240 0 l 2,14,15
 70 0 70 0 70 136 c 2,0,-1
EndSplineSet
Validated: 1
EndChar

StartChar: V
Encoding: 86 86 55
Width: 830
GlyphClass: 1
Flags: W
LayerCount: 2
Fore
SplineSet
5 660 m 1,0,-1
 208 660 l 1,1,-1
 415 180 l 1,2,-1
 622 660 l 1,3,-1
 825 660 l 1,4,-1
 540 0 l 1,5,-1
 290 0 l 1,6,-1
 5 660 l 1,0,-1
EndSplineSet
Validated: 1
EndChar

StartChar: W
Encoding: 87 87 56
Width: 1200
GlyphClass: 1
Flags: W
LayerCount: 2
Fore
SplineSet
15 660 m 1,0,-1
 210 660 l 1,1,-1
 341 195 l 1,2,-1
 495 660 l 1,3,-1
 705 660 l 1,4,-1
 859 195 l 1,5,-1
 990 660 l 1,6,-1
 1185 660 l 1,7,-1
 1000 0 l 1,8,-1
 745 0 l 1,9,-1
 600 437 l 1,10,-1
 455 0 l 1,11,-1
 200 0 l 1,12,-1
 15 660 l 1,0,-1
EndSplineSet
Validated: 1
EndChar

StartChar: X
Encoding: 88 88 57
Width: 800
GlyphClass: 1
Flags: W
LayerCount: 2
Fore
SplineSet
10 0 m 1,0,-1
 288 336 l 1,1,-1
 20 660 l 1,2,-1
 243 660 l 1,3,-1
 400 471 l 1,4,-1
 557 660 l 1,5,-1
 780 660 l 1,6,-1
 512 336 l 1,7,-1
 790 0 l 1,8,-1
 567 0 l 1,9,-1
 400 201 l 1,10,-1
 233 0 l 1,11,-1
 10 0 l 1,0,-1
EndSplineSet
Validated: 1
EndChar

StartChar: Y
Encoding: 89 89 58
Width: 810
GlyphClass: 1
Flags: W
LayerCount: 2
Fore
SplineSet
5 660 m 1,0,-1
 221 660 l 1,1,-1
 405 405 l 1,2,-1
 589 660 l 1,3,-1
 805 660 l 1,4,-1
 505 245 l 1,5,-1
 505 0 l 1,6,-1
 305 0 l 1,7,-1
 305 245 l 1,8,-1
 5 660 l 1,0,-1
EndSplineSet
Validated: 1
EndChar

StartChar: Z
Encoding: 90 90 59
Width: 750
GlyphClass: 1
Flags: W
LayerCount: 2
Fore
SplineSet
40 0 m 1,0,-1
 40 120 l 1,1,-1
 455 540 l 1,2,-1
 50 540 l 1,3,-1
 50 660 l 1,4,-1
 700 660 l 1,5,-1
 700 540 l 1,6,-1
 285 120 l 1,7,-1
 710 120 l 1,8,-1
 710 0 l 1,9,-1
 40 0 l 1,0,-1
EndSplineSet
Validated: 1
EndChar

StartChar: bracketleft
Encoding: 91 91 60
Width: 460
GlyphClass: 1
Flags: W
LayerCount: 2
Fore
SplineSet
80 -210 m 1,0,-1
 80 660 l 1,1,-1
 410 660 l 1,2,-1
 410 560 l 1,3,-1
 250 560 l 1,4,-1
 250 -110 l 1,5,-1
 410 -110 l 1,6,-1
 410 -210 l 1,7,-1
 80 -210 l 1,0,-1
EndSplineSet
Validated: 1
EndChar

StartChar: backslash
Encoding: 92 92 61
Width: 530
GlyphClass: 1
Flags: W
LayerCount: 2
Fore
SplineSet
20 660 m 1,0,-1
 193 660 l 1,1,-1
 510 0 l 1,2,-1
 337 0 l 1,3,-1
 20 660 l 1,0,-1
EndSplineSet
Validated: 1
EndChar

StartChar: bracketright
Encoding: 93 93 62
Width: 460
GlyphClass: 1
Flags: W
LayerCount: 2
Fore
SplineSet
50 -110 m 1,0,-1
 210 -110 l 1,1,-1
 210 560 l 1,2,-1
 50 560 l 1,3,-1
 50 660 l 1,4,-1
 380 660 l 1,5,-1
 380 -210 l 1,6,-1
 50 -210 l 1,7,-1
 50 -110 l 1,0,-1
EndSplineSet
Validated: 1
EndChar

StartChar: asciicircum
Encoding: 94 94 63
Width: 620
GlyphClass: 1
Flags: W
LayerCount: 2
Fore
SplineSet
30 280 m 1,0,-1
 230 660 l 1,1,-1
 390 660 l 1,2,-1
 590 280 l 1,3,-1
 431 280 l 1,4,-1
 310 511 l 1,5,-1
 189 280 l 1,6,-1
 30 280 l 1,0,-1
EndSplineSet
Validated: 1
EndChar

StartChar: underscore
Encoding: 95 95 64
Width: 640
GlyphClass: 1
Flags: W
LayerCount: 2
Fore
SplineSet
0 -105 m 1,0,-1
 640 -105 l 1,1,-1
 640 -210 l 1,2,-1
 0 -210 l 1,3,-1
 0 -105 l 1,0,-1
EndSplineSet
Validated: 1
EndChar

StartChar: grave
Encoding: 96 96 65
Width: 500
GlyphClass: 1
Flags: W
LayerCount: 2
Fore
SplineSet
75 710 m 1,0,-1
 235 710 l 1,1,-1
 345 550 l 1,2,-1
 215 550 l 1,3,-1
 75 710 l 1,0,-1
EndSplineSet
Validated: 1
EndChar

StartChar: a
Encoding: 97 97 66
Width: 650
GlyphClass: 1
Flags: W
LayerCount: 2
Fore
SplineSet
50 120 m 2,0,-1
 50 185 l 2,1,2
 50 305 50 305 200 305 c 2,3,-1
 410 305 l 1,4,-1
 410 365 l 2,5,6
 410 385 410 385 385 385 c 2,7,-1
 90 385 l 1,8,-1
 90 490 l 1,9,-1
 440 490 l 2,10,11
 590 490 590 490 590 370 c 2,12,-1
 590 0 l 1,13,-1
 200 0 l 2,14,15
 50 0 50 0 50 120 c 2,0,-1
230 125 m 2,16,17
 230 105 230 105 255 105 c 2,18,-1
 410 105 l 1,19,-1
 410 200 l 1,20,-1
 255 200 l 2,21,22
 230 200 230 200 230 180 c 2,23,-1
 230 125 l 2,16,17
EndSplineSet
Validated: 1
EndChar

StartChar: b
Encoding: 98 98 67
Width: 680
GlyphClass: 1
Flags: W
LayerCount: 2
Fore
SplineSet
60 0 m 1,0,-1
 60 660 l 1,1,-1
 240 660 l 1,2,-1
 240 490 l 1,3,-1
 470 490 l 2,4,5
 620 490 620 490 620 370 c 2,6,-1
 620 120 l 2,7,8
 620 0 620 0 470 0 c 2,9,-1
 60 0 l 1,0,-1
240 105 m 1,10,-1
 415 105 l 2,11,12
 440 105 440 105 440 125 c 2,13,-1
 440 365 l 2,14,15
 440 385 440 385 415 385 c 2,16,-1
 240 385 l 1,17,-1
 240 105 l 1,10,-1
EndSplineSet
Validated: 1
EndChar

StartChar: c
Encoding: 99 99 68
Width: 610
GlyphClass: 1
Flags: W
LayerCount: 2
Fore
SplineSet
60 120 m 2,0,-1
 60 370 l 2,1,2
 60 490 60 490 210 490 c 2,3,-1
 570 490 l 1,4,-1
 570 385 l 1,5,-1
 265 385 l 2,6,7
 240 385 240 385 240 365 c 2,8,-1
 240 125 l 2,9,10
 240 105 240 105 265 105 c 2,11,-1
 570 105 l 1,12,-1
 570 0 l 1,13,-1
 210 0 l 2,14,15
 60 0 60 0 60 120 c 2,0,-1
EndSplineSet
Validated: 1
EndChar

StartChar: d
Encoding: 100 100 69
Width: 680
GlyphClass: 1
Flags: W
LayerCount: 2
Fore
SplineSet
60 120 m 2,0,-1
 60 370 l 2,1,2
 60 490 60 490 210 490 c 2,3,-1
 440 490 l 1,4,-1
 440 660 l 1,5,-1
 620 660 l 1,6,-1
 620 0 l 1,7,-1
 210 0 l 2,8,9
 60 0 60 0 60 120 c 2,0,-1
240 125 m 2,10,11
 240 105 240 105 265 105 c 2,12,-1
 440 105 l 1,13,-1
 440 385 l 1,14,-1
 265 385 l 2,15,16
 240 385 240 385 240 365 c 2,17,-1
 240 125 l 2,10,11
EndSplineSet
Validated: 1
EndChar

StartChar: e
Encoding: 101 101 70
Width: 660
GlyphClass: 1
Flags: W
LayerCount: 2
Fore
SplineSet
60 120 m 2,0,-1
 60 370 l 2,1,2
 60 490 60 490 210 490 c 2,3,-1
 450 490 l 2,4,5
 600 490 600 490 600 370 c 2,6,-1
 600 200 l 1,7,-1
 240 200 l 1,8,-1
 240 125 l 2,9,10
 240 105 240 105 265 105 c 2,11,-1
 580 105 l 1,12,-1
 580 0 l 1,13,-1
 210 0 l 2,14,15
 60 0 60 0 60 120 c 2,0,-1
240 305 m 1,16,-1
 420 305 l 1,17,-1
 420 365 l 2,18,19
 420 385 420 385 395 385 c 2,20,-1
 265 385 l 2,21,22
 240 385 240 385 240 365 c 2,23,-1
 240 305 l 1,16,-1
EndSplineSet
Validated: 1
EndChar

StartChar: f
Encoding: 102 102 71
Width: 440
GlyphClass: 1
Flags: W
LayerCount: 2
Fore
SplineSet
60 0 m 1,0,-1
 60 540 l 2,1,2
 60 660 60 660 210 660 c 2,3,-1
 410 660 l 1,4,-1
 410 555 l 1,5,-1
 265 555 l 2,6,7
 240 555 240 555 240 535 c 2,8,-1
 240 490 l 1,9,-1
 410 490 l 1,10,-1
 410 385 l 1,11,-1
 240 385 l 1,12,-1
 240 0 l 1,13,-1
 60 0 l 1,0,-1
EndSplineSet
Validated: 1
EndChar

StartChar: g
Encoding: 103 103 72
Width: 680
GlyphClass: 1
Flags: W
LayerCount: 2
Fore
SplineSet
60 120 m 2,0,-1
 60 370 l 2,1,2
 60 490 60 490 210 490 c 2,3,-1
 620 490 l 1,4,-1
 620 -90 l 2,5,6
 620 -210 620 -210 470 -210 c 2,7,-1
 80 -210 l 1,8,-1
 80 -105 l 1,9,-1
 400 -105 l 2,10,11
 440 -105 440 -105 440 -73 c 2,12,-1
 440 0 l 1,13,-1
 210 0 l 2,14,15
 60 0 60 0 60 120 c 2,0,-1
240 125 m 2,16,17
 240 105 240 105 265 105 c 2,18,-1
 440 105 l 1,19,-1
 440 385 l 1,20,-1
 265 385 l 2,21,22
 240 385 240 385 240 365 c 2,23,-1
 240 125 l 2,16,17
EndSplineSet
Validated: 1
EndChar

StartChar: h
Encoding: 104 104 73
Width: 680
GlyphClass: 1
Flags: W
LayerCount: 2
Fore
SplineSet
60 0 m 1,0,-1
 60 660 l 1,1,-1
 240 660 l 1,2,-1
 240 490 l 1,3,-1
 470 490 l 2,4,5
 620 490 620 490 620 370 c 2,6,-1
 620 0 l 1,7,-1
 440 0 l 1,8,-1
 440 365 l 2,9,10
 440 385 440 385 415 385 c 2,11,-1
 240 385 l 1,12,-1
 240 0 l 1,13,-1
 60 0 l 1,0,-1
EndSplineSet
Validated: 1
EndChar

StartChar: i
Encoding: 105 105 74
Width: 300
GlyphClass: 1
Flags: W
LayerCount: 2
Fore
SplineSet
60 0 m 1,0,-1
 60 490 l 1,1,-1
 240 490 l 1,2,-1
 240 0 l 1,3,-1
 60 0 l 1,0,-1
60 560 m 1,4,-1
 60 660 l 1,5,-1
 240 660 l 1,6,-1
 240 560 l 1,7,-1
 60 560 l 1,4,-1
EndSplineSet
Validated: 1
EndChar

StartChar: j
Encoding: 106 106 75
Width: 300
GlyphClass: 1
Flags: W
LayerCount: 2
Fore
SplineSet
-50 -105 m 1,0,-1
 20 -105 l 2,1,2
 60 -105 60 -105 60 -73 c 2,3,-1
 60 490 l 1,4,-1
 240 490 l 1,5,-1
 240 -90 l 2,6,7
 240 -210 240 -210 90 -210 c 2,8,-1
 -50 -210 l 1,9,-1
 -50 -105 l 1,0,-1
60 560 m 1,10,-1
 60 660 l 1,11,-1
 240 660 l 1,12,-1
 240 560 l 1,13,-1
 60 560 l 1,10,-1
EndSplineSet
Validated: 1
EndChar

StartChar: k
Encoding: 107 107 76
Width: 660
GlyphClass: 1
Flags: W
LayerCount: 2
Fore
SplineSet
60 0 m 1,0,-1
 60 660 l 1,1,-1
 240 660 l 1,2,-1
 240 310 l 1,3,-1
 425 490 l 1,4,-1
 640 490 l 1,5,-1
 429 285 l 1,6,-1
 650 0 l 1,7,-1
 455 0 l 1,8,-1
 318 177 l 1,9,-1
 240 101 l 1,10,-1
 240 0 l 1,11,-1
 60 0 l 1,0,-1
EndSplineSet
Validated: 1
EndChar

StartChar: l
Encoding: 108 108 77
Width: 300
GlyphClass: 1
Flags: W
LayerCount: 2
Fore
SplineSet
60 0 m 1,0,-1
 60 660 l 1,1,-1
 240 660 l 1,2,-1
 240 0 l 1,3,-1
 60 0 l 1,0,-1
EndSplineSet
Validated: 1
EndChar

StartChar: m
Encoding: 109 109 78
Width: 960
GlyphClass: 1
Flags: W
LayerCount: 2
Fore
SplineSet
60 0 m 1,0,-1
 60 490 l 1,1,-1
 750 490 l 2,2,3
 900 490 900 490 900 370 c 2,4,-1
 900 0 l 1,5,-1
 720 0 l 1,6,-1
 720 365 l 2,7,8
 720 385 720 385 695 385 c 2,9,-1
 570 385 l 1,10,-1
 570 0 l 1,11,-1
 390 0 l 1,12,-1
 390 365 l 2,13,14
 390 385 390 385 365 385 c 2,15,-1
 240 385 l 1,16,-1
 240 0 l 1,17,-1
 60 0 l 1,0,-1
EndSplineSet
Validated: 1
EndChar

StartChar: n
Encoding: 110 110 79
Width: 680
GlyphClass: 1
Flags: W
LayerCount: 2
Fore
SplineSet
60 0 m 1,0,-1
 60 490 l 1,1,-1
 470 490 l 2,2,3
 620 490 620 490 620 370 c 2,4,-1
 620 0 l 1,5,-1
 440 0 l 1,6,-1
 440 365 l 2,7,8
 440 385 440 385 415 385 c 2,9,-1
 240 385 l 1,10,-1
 240 0 l 1,11,-1
 60 0 l 1,0,-1
EndSplineSet
Validated: 1
EndChar

StartChar: o
Encoding: 111 111 80
Width: 680
GlyphClass: 1
Flags: W
LayerCount: 2
Fore
SplineSet
60 120 m 2,0,-1
 60 370 l 2,1,2
 60 490 60 490 210 490 c 2,3,-1
 470 490 l 2,4,5
 620 490 620 490 620 370 c 2,6,-1
 620 120 l 2,7,8
 620 0 620 0 470 0 c 2,9,-1
 210 0 l 2,10,11
 60 0 60 0 60 120 c 2,0,-1
240 125 m 2,12,13
 240 105 240 105 265 105 c 2,14,-1
 415 105 l 2,15,16
 440 105 440 105 440 125 c 2,17,-1
 440 365 l 2,18,19
 440 385 440 385 415 385 c 2,20,-1
 265 385 l 2,21,22
 240 385 240 385 240 365 c 2,23,-1
 240 125 l 2,12,13
EndSplineSet
Validated: 1
EndChar

StartChar: p
Encoding: 112 112 81
Width: 680
GlyphClass: 1
Flags: W
LayerCount: 2
Fore
SplineSet
60 -210 m 1,0,-1
 60 490 l 1,1,-1
 470 490 l 2,2,3
 620 490 620 490 620 370 c 2,4,-1
 620 120 l 2,5,6
 620 0 620 0 470 0 c 2,7,-1
 240 0 l 1,8,-1
 240 -210 l 1,9,-1
 60 -210 l 1,0,-1
240 105 m 1,10,-1
 415 105 l 2,11,12
 440 105 440 105 440 125 c 2,13,-1
 440 365 l 2,14,15
 440 385 440 385 415 385 c 2,16,-1
 240 385 l 1,17,-1
 240 105 l 1,10,-1
EndSplineSet
Validated: 1
EndChar

StartChar: q
Encoding: 113 113 82
Width: 680
GlyphClass: 1
Flags: W
LayerCount: 2
Fore
SplineSet
60 120 m 2,0,-1
 60 370 l 2,1,2
 60 490 60 490 210 490 c 2,3,-1
 620 490 l 1,4,-1
 620 -210 l 1,5,-1
 440 -210 l 1,6,-1
 440 0 l 1,7,-1
 210 0 l 2,8,9
 60 0 60 0 60 120 c 2,0,-1
240 125 m 2,10,11
 240 105 240 105 265 105 c 2,12,-1
 440 105 l 1,13,-1
 440 385 l 1,14,-1
 265 385 l 2,15,16
 240 385 240 385 240 365 c 2,17,-1
 240 125 l 2,10,11
EndSplineSet
Validated: 1
EndChar

StartChar: r
Encoding: 114 114 83
Width: 440
GlyphClass: 1
Flags: W
LayerCount: 2
Fore
SplineSet
60 0 m 1,0,-1
 60 370 l 2,1,2
 60 490 60 490 210 490 c 2,3,-1
 410 490 l 1,4,-1
 410 385 l 1,5,-1
 265 385 l 2,6,7
 240 385 240 385 240 365 c 2,8,-1
 240 0 l 1,9,-1
 60 0 l 1,0,-1
EndSplineSet
Validated: 1
EndChar

StartChar: s
Encoding: 115 115 84
Width: 610
GlyphClass: 1
Flags: W
LayerCount: 2
Fore
SplineSet
50 0 m 1,0,-1
 50 105 l 1,1,-1
 355 105 l 2,2,3
 380 105 380 105 380 125 c 2,4,-1
 380 180 l 2,5,6
 380 200 380 200 355 200 c 2,7,-1
 200 200 l 2,8,9
 50 200 50 200 50 320 c 2,10,-1
 50 370 l 2,11,12
 50 490 50 490 200 490 c 2,13,-1
 520 490 l 1,14,-1
 520 385 l 1,15,-1
 255 385 l 2,16,17
 230 385 230 385 230 365 c 2,18,-1
 230 325 l 2,19,20
 230 305 230 305 255 305 c 2,21,-1
 410 305 l 2,22,23
 560 305 560 305 560 185 c 2,24,-1
 560 120 l 2,25,26
 560 0 560 0 410 0 c 2,27,-1
 50 0 l 1,0,-1
EndSplineSet
Validated: 1
EndChar

StartChar: t
Encoding: 116 116 85
Width: 450
GlyphClass: 1
Flags: W
LayerCount: 2
Fore
SplineSet
60 120 m 2,0,-1
 60 660 l 1,1,-1
 240 660 l 1,2,-1
 240 490 l 1,3,-1
 410 490 l 1,4,-1
 410 385 l 1,5,-1
 240 385 l 1,6,-1
 240 125 l 2,7,8
 240 105 240 105 265 105 c 2,9,-1
 410 105 l 1,10,-1
 410 0 l 1,11,-1
 210 0 l 2,12,13
 60 0 60 0 60 120 c 2,0,-1
EndSplineSet
Validated: 1
EndChar

StartChar: u
Encoding: 117 117 86
Width: 680
GlyphClass: 1
Flags: W
LayerCount: 2
Fore
SplineSet
60 120 m 2,0,-1
 60 490 l 1,1,-1
 240 490 l 1,2,-1
 240 125 l 2,3,4
 240 105 240 105 265 105 c 2,5,-1
 440 105 l 1,6,-1
 440 490 l 1,7,-1
 620 490 l 1,8,-1
 620 0 l 1,9,-1
 210 0 l 2,10,11
 60 0 60 0 60 120 c 2,0,-1
EndSplineSet
Validated: 1
EndChar

StartChar: v
Encoding: 118 118 87
Width: 680
GlyphClass: 1
Flags: W
LayerCount: 2
Fore
SplineSet
10 490 m 1,0,-1
 188 490 l 1,1,-1
 340 158 l 1,2,-1
 492 490 l 1,3,-1
 670 490 l 1,4,-1
 446 0 l 1,5,-1
 234 0 l 1,6,-1
 10 490 l 1,0,-1
EndSplineSet
Validated: 1
EndChar

StartChar: w
Encoding: 119 119 88
Width: 930
GlyphClass: 1
Flags: W
LayerCount: 2
Fore
SplineSet
10 490 m 1,0,-1
 180 490 l 1,1,-1
 281 170 l 1,2,-1
 382 490 l 1,3,-1
 548 490 l 1,4,-1
 649 170 l 1,5,-1
 750 490 l 1,6,-1
 920 490 l 1,7,-1
 765 0 l 1,8,-1
 560 0 l 1,9,-1
 465 301 l 1,10,-1
 370 0 l 1,11,-1
 165 0 l 1,12,-1
 10 490 l 1,0,-1
EndSplineSet
Validated: 1
EndChar

StartChar: x
Encoding: 120 120 89
Width: 650
GlyphClass: 1
Flags: W
LayerCount: 2
Fore
SplineSet
10 0 m 1,0,-1
 225 248 l 1,1,-1
 15 490 l 1,2,-1
 216 490 l 1,3,-1
 325 364 l 1,4,-1
 434 490 l 1,5,-1
 635 490 l 1,6,-1
 425 248 l 1,7,-1
 640 0 l 1,8,-1
 439 0 l 1,9,-1
 325 132 l 1,10,-1
 211 0 l 1,11,-1
 10 0 l 1,0,-1
EndSplineSet
Validated: 1
EndChar

StartChar: y
Encoding: 121 121 90
Width: 680
GlyphClass: 1
Flags: W
LayerCount: 2
Fore
SplineSet
10 490 m 1,0,-1
 188 490 l 1,1,-1
 340 158 l 1,2,-1
 492 490 l 1,3,-1
 670 490 l 1,4,-1
 350 -210 l 1,5,-1
 172 -210 l 1,6,-1
 251 -37 l 1,7,-1
 10 490 l 1,0,-1
EndSplineSet
Validated: 1
EndChar

StartChar: z
Encoding: 122 122 91
Width: 620
GlyphClass: 1
Flags: W
LayerCount: 2
Fore
SplineSet
40 0 m 1,0,-1
 40 105 l 1,1,-1
 343 385 l 1,2,-1
 50 385 l 1,3,-1
 50 490 l 1,4,-1
 570 490 l 1,5,-1
 570 385 l 1,6,-1
 267 105 l 1,7,-1
 580 105 l 1,8,-1
 580 0 l 1,9,-1
 40 0 l 1,0,-1
EndSplineSet
Validated: 1
EndChar

StartChar: braceleft
Encoding: 123 123 92
Width: 590
GlyphClass: 1
Flags: W
LayerCount: 2
Fore
SplineSet
50 170 m 1,0,-1
 50 280 l 1,1,-1
 210 377 l 1,2,-1
 210 540 l 2,3,4
 210 660 210 660 360 660 c 2,5,-1
 540 660 l 1,6,-1
 540 560 l 1,7,-1
 405 560 l 2,8,9
 380 560 380 560 380 540 c 2,10,-1
 380 325 l 1,11,-1
 214 225 l 1,12,-1
 380 125 l 1,13,-1
 380 -90 l 2,14,15
 380 -110 380 -110 405 -110 c 2,16,-1
 540 -110 l 1,17,-1
 540 -210 l 1,18,-1
 360 -210 l 2,19,20
 210 -210 210 -210 210 -90 c 2,21,-1
 210 73 l 1,22,-1
 50 170 l 1,0,-1
EndSplineSet
Validated: 1
EndChar

StartChar: bar
Encoding: 124 124 93
Width: 320
GlyphClass: 1
Flags: W
LayerCount: 2
Fore
SplineSet
80 -210 m 1,0,-1
 80 660 l 1,1,-1
 240 660 l 1,2,-1
 240 -210 l 1,3,-1
 80 -210 l 1,0,-1
EndSplineSet
Validated: 1
EndChar

StartChar: braceright
Encoding: 125 125 94
Width: 590
GlyphClass: 1
Flags: W
LayerCount: 2
Fore
SplineSet
50 -110 m 1,0,-1
 185 -110 l 2,1,2
 210 -110 210 -110 210 -90 c 2,3,-1
 210 125 l 1,4,-1
 376 225 l 1,5,-1
 210 325 l 1,6,-1
 210 540 l 2,7,8
 210 560 210 560 185 560 c 2,9,-1
 50 560 l 1,10,-1
 50 660 l 1,11,-1
 230 660 l 2,12,13
 380 660 380 660 380 540 c 2,14,-1
 380 377 l 1,15,-1
 540 280 l 1,16,-1
 540 170 l 1,17,-1
 380 73 l 1,18,-1
 380 -90 l 2,19,20
 380 -210 380 -210 230 -210 c 2,21,-1
 50 -210 l 1,22,-1
 50 -110 l 1,0,-1
EndSplineSet
Validated: 1
EndChar

StartChar: asciitilde
Encoding: 126 126 95
Width: 740
GlyphClass: 1
Flags: W
LayerCount: 2
Fore
SplineSet
85 182 m 1,0,-1
 85 322 l 1,1,-1
 170 373 l 2,2,3
 220 403 220 403 255 403 c 128,-1,4
 290 403 290 403 340 373 c 2,5,-1
 455 304 l 2,6,7
 470 295 470 295 485 295 c 128,-1,8
 500 295 500 295 515 304 c 2,9,-1
 655 388 l 1,10,-1
 655 248 l 1,11,-1
 570 197 l 2,12,13
 520 167 520 167 485 167 c 128,-1,14
 450 167 450 167 400 197 c 2,15,-1
 285 266 l 2,16,17
 270 275 270 275 255 275 c 128,-1,18
 240 275 240 275 225 266 c 2,19,-1
 85 182 l 1,0,-1
EndSplineSet
Validated: 1
EndChar

StartChar: exclamdown
Encoding: 161 161 96
Width: 350
GlyphClass: 1
Flags: W
LayerCount: 2
Fore
SplineSet
75 -180 m 1,0,-1
 75 265 l 1,1,-1
 275 265 l 1,2,-1
 275 -180 l 1,3,-1
 75 -180 l 1,0,-1
75 340 m 1,4,-1
 75 490 l 1,5,-1
 275 490 l 1,6,-1
 275 340 l 1,7,-1
 75 340 l 1,4,-1
EndSplineSet
Validated: 1
EndChar

StartChar: cent
Encoding: 162 162 97
Width: 740
GlyphClass: 1
Flags: W
LayerCount: 2
Fore
SplineSet
105 120 m 2,0,-1
 105 370 l 2,1,2
 105 490 105 490 255 490 c 2,3,-1
 335 490 l 1,4,-1
 335 610 l 1,5,-1
 465 610 l 1,6,-1
 465 490 l 1,7,-1
 615 490 l 1,8,-1
 615 385 l 1,9,-1
 310 385 l 2,10,11
 285 385 285 385 285 365 c 2,12,-1
 285 125 l 2,13,14
 285 105 285 105 310 105 c 2,15,-1
 615 105 l 1,16,-1
 615 0 l 1,17,-1
 465 0 l 1,18,-1
 465 -120 l 1,19,-1
 335 -120 l 1,20,-1
 335 0 l 1,21,-1
 255 0 l 2,22,23
 105 0 105 0 105 120 c 2,0,-1
EndSplineSet
Validated: 1
EndChar

StartChar: sterling
Encoding: 163 163 98
Width: 740
GlyphClass: 1
Flags: W
LayerCount: 2
Fore
SplineSet
30 0 m 1,0,-1
 30 120 l 1,1,-1
 130 120 l 1,2,-1
 130 295 l 1,3,-1
 30 295 l 1,4,-1
 30 395 l 1,5,-1
 130 395 l 1,6,-1
 130 524 l 2,7,8
 130 660 130 660 300 660 c 2,9,-1
 650 660 l 1,10,-1
 650 540 l 1,11,-1
 365 540 l 2,12,13
 330 540 330 540 330 512 c 2,14,-1
 330 395 l 1,15,-1
 550 395 l 1,16,-1
 550 295 l 1,17,-1
 330 295 l 1,18,-1
 330 120 l 1,19,-1
 690 120 l 1,20,-1
 690 0 l 1,21,-1
 30 0 l 1,0,-1
EndSplineSet
Validated: 1
EndChar

StartChar: currency
Encoding: 164 164 99
Width: 740
GlyphClass: 1
Flags: W
LayerCount: 2
Fore
SplineSet
90 140 m 1,0,-1
 245 295 l 1,1,-1
 345 195 l 1,2,-1
 190 40 l 1,3,-1
 90 140 l 1,0,-1
90 500 m 1,4,-1
 190 600 l 1,5,-1
 345 445 l 1,6,-1
 245 345 l 1,7,-1
 90 500 l 1,4,-1
395 195 m 1,8,-1
 495 295 l 1,9,-1
 650 140 l 1,10,-1
 550 40 l 1,11,-1
 395 195 l 1,8,-1
395 445 m 1,12,-1
 550 600 l 1,13,-1
 650 500 l 1,14,-1
 495 345 l 1,15,-1
 395 445 l 1,12,-1
EndSplineSet
Validated: 1
EndChar

StartChar: yen
Encoding: 165 165 100
Width: 740
GlyphClass: 1
Flags: W
LayerCount: 2
Fore
SplineSet
0 660 m 1,0,-1
 208 660 l 1,1,-1
 370 411 l 1,2,-1
 532 660 l 1,3,-1
 740 660 l 1,4,-1
 519 320 l 1,5,-1
 630 320 l 1,6,-1
 630 230 l 1,7,-1
 470 230 l 1,8,-1
 470 170 l 1,9,-1
 630 170 l 1,10,-1
 630 80 l 1,11,-1
 470 80 l 1,12,-1
 470 0 l 1,13,-1
 270 0 l 1,14,-1
 270 80 l 1,15,-1
 110 80 l 1,16,-1
 110 170 l 1,17,-1
 270 170 l 1,18,-1
 270 230 l 1,19,-1
 110 230 l 1,20,-1
 110 320 l 1,21,-1
 221 320 l 1,22,-1
 0 660 l 1,0,-1
EndSplineSet
Validated: 1
EndChar

StartChar: brokenbar
Encoding: 166 166 101
Width: 320
GlyphClass: 1
Flags: W
LayerCount: 2
Fore
SplineSet
80 155 m 1,0,-1
 240 155 l 1,1,-1
 240 -210 l 1,2,-1
 80 -210 l 1,3,-1
 80 155 l 1,0,-1
80 295 m 1,4,-1
 80 660 l 1,5,-1
 240 660 l 1,6,-1
 240 295 l 1,7,-1
 80 295 l 1,4,-1
EndSplineSet
Validated: 1
EndChar

StartChar: section
Encoding: 167 167 102
Width: 740
GlyphClass: 1
Flags: W
LayerCount: 2
Fore
SplineSet
70 185 m 2,0,-1
 70 315 l 2,1,2
 70 384 70 384 120 414 c 1,3,-1
 120 540 l 2,4,5
 120 660 120 660 270 660 c 2,6,-1
 620 660 l 1,7,-1
 620 555 l 1,8,-1
 325 555 l 2,9,10
 300 555 300 555 300 535 c 2,11,-1
 300 455 l 2,12,13
 300 435 300 435 325 435 c 2,14,-1
 520 435 l 2,15,16
 670 435 670 435 670 315 c 2,17,-1
 670 185 l 2,18,19
 670 116 670 116 620 86 c 1,20,-1
 620 -40 l 2,21,22
 620 -160 620 -160 470 -160 c 2,23,-1
 120 -160 l 1,24,-1
 120 -55 l 1,25,-1
 415 -55 l 2,26,27
 440 -55 440 -55 440 -35 c 2,28,-1
 440 45 l 2,29,30
 440 65 440 65 415 65 c 2,31,-1
 220 65 l 2,32,33
 70 65 70 65 70 185 c 2,0,-1
250 190 m 2,34,35
 250 170 250 170 275 170 c 2,36,-1
 465 170 l 2,37,38
 490 170 490 170 490 190 c 2,39,-1
 490 310 l 2,40,41
 490 330 490 330 465 330 c 2,42,-1
 275 330 l 2,43,44
 250 330 250 330 250 310 c 2,45,-1
 250 190 l 2,34,35
EndSplineSet
Validated: 1
EndChar

StartChar: dieresis
Encoding: 168 168 103
Width: 500
GlyphClass: 1
Flags: W
LayerCount: 2
Fore
SplineSet
65 570 m 1,0,-1
 65 690 l 1,1,-1
 205 690 l 1,2,-1
 205 570 l 1,3,-1
 65 570 l 1,0,-1
295 570 m 1,4,-1
 295 690 l 1,5,-1
 435 690 l 1,6,-1
 435 570 l 1,7,-1
 295 570 l 1,4,-1
EndSplineSet
Validated: 1
EndChar

StartChar: copyright
Encoding: 169 169 104
Width: 960
GlyphClass: 1
Flags: W
LayerCount: 2
Fore
SplineSet
60 84 m 2,0,-1
 60 576 l 2,1,2
 60 660 60 660 165 660 c 2,3,-1
 795 660 l 2,4,5
 900 660 900 660 900 576 c 2,6,-1
 900 84 l 2,7,8
 900 0 900 0 795 0 c 2,9,-1
 165 0 l 2,10,11
 60 0 60 0 60 84 c 2,0,-1
200 96 m 2,12,13
 200 80 200 80 220 80 c 2,14,-1
 740 80 l 2,15,16
 760 80 760 80 760 96 c 2,17,-1
 760 564 l 2,18,19
 760 580 760 580 740 580 c 2,20,-1
 220 580 l 2,21,22
 200 580 200 580 200 564 c 2,23,-1
 200 96 l 2,12,13
280 224 m 2,24,-1
 280 436 l 2,25,26
 280 520 280 520 385 520 c 2,27,-1
 670 520 l 1,28,-1
 670 440 l 1,29,-1
 440 440 l 2,30,31
 420 440 420 440 420 424 c 2,32,-1
 420 236 l 2,33,34
 420 220 420 220 440 220 c 2,35,-1
 670 220 l 1,36,-1
 670 140 l 1,37,-1
 385 140 l 2,38,39
 280 140 280 140 280 224 c 2,24,-1
EndSplineSet
Validated: 1
EndChar

StartChar: ordfeminine
Encoding: 170 170 105
Width: 450
GlyphClass: 1
Flags: W
LayerCount: 2
Fore
SplineSet
40 414 m 2,0,-1
 40 456 l 2,1,2
 40 540 40 540 145 540 c 2,3,-1
 270 540 l 1,4,-1
 270 564 l 2,5,6
 270 580 270 580 250 580 c 2,7,-1
 65 580 l 1,8,-1
 65 660 l 1,9,-1
 305 660 l 2,10,11
 410 660 410 660 410 576 c 2,12,-1
 410 330 l 1,13,-1
 145 330 l 2,14,15
 40 330 40 330 40 414 c 2,0,-1
180 426 m 2,16,17
 180 410 180 410 200 410 c 2,18,-1
 270 410 l 1,19,-1
 270 460 l 1,20,-1
 200 460 l 2,21,22
 180 460 180 460 180 444 c 2,23,-1
 180 426 l 2,16,17
EndSplineSet
Validated: 1
EndChar

StartChar: guillemotleft
Encoding: 171 171 106
Width: 750
GlyphClass: 1
Flags: W
LayerCount: 2
Fore
SplineSet
30 260 m 1,0,-1
 225 470 l 1,1,-1
 400 470 l 1,2,-1
 215 260 l 1,3,-1
 400 50 l 1,4,-1
 225 50 l 1,5,-1
 30 260 l 1,0,-1
340 260 m 1,6,-1
 535 470 l 1,7,-1
 710 470 l 1,8,-1
 525 260 l 1,9,-1
 710 50 l 1,10,-1
 535 50 l 1,11,-1
 340 260 l 1,6,-1
EndSplineSet
Validated: 1
EndChar

StartChar: logicalnot
Encoding: 172 172 107
Width: 740
GlyphClass: 1
Flags: W
LayerCount: 2
Fore
SplineSet
80 290 m 1,0,-1
 80 410 l 1,1,-1
 650 410 l 1,2,-1
 650 80 l 1,3,-1
 520 80 l 1,4,-1
 520 290 l 1,5,-1
 80 290 l 1,0,-1
EndSplineSet
Validated: 1
EndChar

StartChar: uni00AD
Encoding: 173 173 108
Width: 460
GlyphClass: 1
Flags: W
LayerCount: 2
Fore
SplineSet
40 225 m 1,0,-1
 40 345 l 1,1,-1
 420 345 l 1,2,-1
 420 225 l 1,3,-1
 40 225 l 1,0,-1
EndSplineSet
Validated: 1
EndChar

StartChar: registered
Encoding: 174 174 109
Width: 960
GlyphClass: 1
Flags: W
LayerCount: 2
Fore
SplineSet
60 84 m 2,0,-1
 60 576 l 2,1,2
 60 660 60 660 165 660 c 2,3,-1
 795 660 l 2,4,5
 900 660 900 660 900 576 c 2,6,-1
 900 84 l 2,7,8
 900 0 900 0 795 0 c 2,9,-1
 165 0 l 2,10,11
 60 0 60 0 60 84 c 2,0,-1
200 96 m 2,12,13
 200 80 200 80 220 80 c 2,14,-1
 740 80 l 2,15,16
 760 80 760 80 760 96 c 2,17,-1
 760 564 l 2,18,19
 760 580 760 580 740 580 c 2,20,-1
 220 580 l 2,21,22
 200 580 200 580 200 564 c 2,23,-1
 200 96 l 2,12,13
280 140 m 1,24,-1
 280 520 l 1,25,-1
 575 520 l 2,26,27
 680 520 680 520 680 436 c 2,28,-1
 680 359 l 2,29,30
 680 286 680 286 603 277 c 1,31,-1
 695 140 l 1,32,-1
 546 140 l 1,33,-1
 456 275 l 1,34,-1
 420 275 l 1,35,-1
 420 140 l 1,36,-1
 280 140 l 1,24,-1
420 355 m 1,37,-1
 520 355 l 2,38,39
 540 355 540 355 540 371 c 2,40,-1
 540 424 l 2,41,42
 540 440 540 440 520 440 c 2,43,-1
 420 440 l 1,44,-1
 420 355 l 1,37,-1
EndSplineSet
Validated: 1
EndChar

StartChar: macron
Encoding: 175 175 110
Width: 500
GlyphClass: 1
Flags: W
LayerCount: 2
Fore
SplineSet
75 580 m 1,0,-1
 75 675 l 1,1,-1
 425 675 l 1,2,-1
 425 580 l 1,3,-1
 75 580 l 1,0,-1
EndSplineSet
Validated: 1
EndChar

StartChar: degree
Encoding: 176 176 111
Width: 500
GlyphClass: 1
Flags: W
LayerCount: 2
Fore
SplineSet
50 424 m 2,0,-1
 50 576 l 2,1,2
 50 660 50 660 155 660 c 2,3,-1
 345 660 l 2,4,5
 450 660 450 660 450 576 c 2,6,-1
 450 424 l 2,7,8
 450 340 450 340 345 340 c 2,9,-1
 155 340 l 2,10,11
 50 340 50 340 50 424 c 2,0,-1
190 436 m 2,12,13
 190 420 190 420 210 420 c 2,14,-1
 290 420 l 2,15,16
 310 420 310 420 310 436 c 2,17,-1
 310 564 l 2,18,19
 310 580 310 580 290 580 c 2,20,-1
 210 580 l 2,21,22
 190 580 190 580 190 564 c 2,23,-1
 190 436 l 2,12,13
EndSplineSet
Validated: 1
EndChar

StartChar: plusminus
Encoding: 177 177 112
Width: 740
GlyphClass: 1
Flags: W
LayerCount: 2
Fore
SplineSet
85 0 m 1,0,-1
 85 120 l 1,1,-1
 655 120 l 1,2,-1
 655 0 l 1,3,-1
 85 0 l 1,0,-1
85 330 m 1,4,-1
 85 450 l 1,5,-1
 285 450 l 1,6,-1
 285 620 l 1,7,-1
 455 620 l 1,8,-1
 455 450 l 1,9,-1
 655 450 l 1,10,-1
 655 330 l 1,11,-1
 455 330 l 1,12,-1
 455 160 l 1,13,-1
 285 160 l 1,14,-1
 285 330 l 1,15,-1
 85 330 l 1,4,-1
EndSplineSet
Validated: 1
EndChar

StartChar: uni00B2
Encoding: 178 178 113
Width: 460
GlyphClass: 1
Flags: W
LayerCount: 2
Fore
SplineSet
40 280 m 1,0,-1
 40 431 l 2,1,2
 40 515 40 515 145 515 c 2,3,-1
 260 515 l 2,4,5
 280 515 280 515 280 531 c 2,6,-1
 280 564 l 2,7,8
 280 580 280 580 260 580 c 2,9,-1
 65 580 l 1,10,-1
 65 660 l 1,11,-1
 315 660 l 2,12,13
 420 660 420 660 420 576 c 2,14,-1
 420 519 l 2,15,16
 420 435 420 435 315 435 c 2,17,-1
 200 435 l 2,18,19
 180 435 180 435 180 419 c 2,20,-1
 180 360 l 1,21,-1
 420 360 l 1,22,-1
 420 280 l 1,23,-1
 40 280 l 1,0,-1
EndSplineSet
Validated: 1
EndChar

StartChar: uni00B3
Encoding: 179 179 114
Width: 460
GlyphClass: 1
Flags: W
LayerCount: 2
Fore
SplineSet
50 280 m 1,0,-1
 50 360 l 1,1,-1
 260 360 l 2,2,3
 280 360 280 360 280 376 c 2,4,-1
 280 419 l 2,5,6
 280 435 280 435 260 435 c 2,7,-1
 100 435 l 1,8,-1
 100 515 l 1,9,-1
 260 515 l 2,10,11
 280 515 280 515 280 531 c 2,12,-1
 280 564 l 2,13,14
 280 580 280 580 260 580 c 2,15,-1
 50 580 l 1,16,-1
 50 660 l 1,17,-1
 315 660 l 2,18,19
 420 660 420 660 420 576 c 2,20,-1
 420 551 l 2,21,22
 420 493 420 493 370 475 c 1,23,24
 420 457 420 457 420 399 c 2,25,-1
 420 364 l 2,26,27
 420 280 420 280 315 280 c 2,28,-1
 50 280 l 1,0,-1
EndSplineSet
Validated: 1
EndChar

StartChar: acute
Encoding: 180 180 115
Width: 500
GlyphClass: 1
Flags: W
LayerCount: 2
Fore
SplineSet
155 550 m 1,0,-1
 265 710 l 1,1,-1
 425 710 l 1,2,-1
 285 550 l 1,3,-1
 155 550 l 1,0,-1
EndSplineSet
Validated: 1
EndChar

StartChar: mu
Encoding: 181 181 116
Width: 680
GlyphClass: 1
Flags: W
LayerCount: 2
Fore
SplineSet
60 -210 m 1,0,-1
 60 490 l 1,1,-1
 240 490 l 1,2,-1
 240 105 l 1,3,-1
 415 105 l 2,4,5
 440 105 440 105 440 125 c 2,6,-1
 440 490 l 1,7,-1
 620 490 l 1,8,-1
 620 120 l 2,9,10
 620 0 620 0 470 0 c 2,11,-1
 240 0 l 1,12,-1
 240 -210 l 1,13,-1
 60 -210 l 1,0,-1
EndSplineSet
Validated: 1
EndChar

StartChar: paragraph
Encoding: 182 182 117
Width: 670
GlyphClass: 1
Flags: W
LayerCount: 2
Fore
SplineSet
70 316 m 2,0,-1
 70 524 l 2,1,2
 70 660 70 660 240 660 c 2,3,-1
 370 660 l 1,4,-1
 370 180 l 1,5,-1
 240 180 l 2,6,7
 70 180 70 180 70 316 c 2,0,-1
430 -210 m 1,8,-1
 430 660 l 1,9,-1
 590 660 l 1,10,-1
 590 -210 l 1,11,-1
 430 -210 l 1,8,-1
EndSplineSet
Validated: 1
EndChar

StartChar: periodcentered
Encoding: 183 183 118
Width: 340
GlyphClass: 1
Flags: W
LayerCount: 2
Fore
SplineSet
75 210 m 1,0,-1
 75 360 l 1,1,-1
 265 360 l 1,2,-1
 265 210 l 1,3,-1
 75 210 l 1,0,-1
EndSplineSet
Validated: 1
EndChar

StartChar: cedilla
Encoding: 184 184 119
Width: 500
GlyphClass: 1
Flags: W
LayerCount: 2
Fore
SplineSet
125 -110 m 1,0,-1
 215 -110 l 2,1,2
 255 -110 255 -110 255 -78 c 2,3,-1
 255 0 l 1,4,-1
 385 0 l 1,5,-1
 385 -85 l 2,6,7
 385 -185 385 -185 260 -185 c 2,8,-1
 125 -185 l 1,9,-1
 125 -110 l 1,0,-1
EndSplineSet
Validated: 1
EndChar

StartChar: uni00B9
Encoding: 185 185 120
Width: 460
GlyphClass: 1
Flags: W
LayerCount: 2
Fore
SplineSet
85 580 m 1,0,-1
 85 660 l 1,1,-1
 335 660 l 1,2,-1
 335 280 l 1,3,-1
 195 280 l 1,4,-1
 195 580 l 1,5,-1
 85 580 l 1,0,-1
EndSplineSet
Validated: 1
EndChar

StartChar: ordmasculine
Encoding: 186 186 121
Width: 460
GlyphClass: 1
Flags: W
LayerCount: 2
Fore
SplineSet
40 414 m 2,0,-1
 40 576 l 2,1,2
 40 660 40 660 145 660 c 2,3,-1
 315 660 l 2,4,5
 420 660 420 660 420 576 c 2,6,-1
 420 414 l 2,7,8
 420 330 420 330 315 330 c 2,9,-1
 145 330 l 2,10,11
 40 330 40 330 40 414 c 2,0,-1
180 426 m 2,12,13
 180 410 180 410 200 410 c 2,14,-1
 260 410 l 2,15,16
 280 410 280 410 280 426 c 2,17,-1
 280 564 l 2,18,19
 280 580 280 580 260 580 c 2,20,-1
 200 580 l 2,21,22
 180 580 180 580 180 564 c 2,23,-1
 180 426 l 2,12,13
EndSplineSet
Validated: 1
EndChar

StartChar: guillemotright
Encoding: 187 187 122
Width: 750
GlyphClass: 1
Flags: W
LayerCount: 2
Fore
SplineSet
40 50 m 1,0,-1
 225 260 l 1,1,-1
 40 470 l 1,2,-1
 215 470 l 1,3,-1
 410 260 l 1,4,-1
 215 50 l 1,5,-1
 40 50 l 1,0,-1
350 50 m 1,6,-1
 535 260 l 1,7,-1
 350 470 l 1,8,-1
 525 470 l 1,9,-1
 720 260 l 1,10,-1
 525 50 l 1,11,-1
 350 50 l 1,6,-1
EndSplineSet
Validated: 1
EndChar

StartChar: onequarter
Encoding: 188 188 123
Width: 980
GlyphClass: 1
Flags: W
LayerCount: 2
Fore
SplineSet
40 580 m 1,0,-1
 40 660 l 1,1,-1
 290 660 l 1,2,-1
 290 280 l 1,3,-1
 150 280 l 1,4,-1
 150 580 l 1,5,-1
 40 580 l 1,0,-1
225 0 m 1,6,-1
 587 660 l 1,7,-1
 745 660 l 1,8,-1
 383 0 l 1,9,-1
 225 0 l 1,6,-1
560 65 m 1,10,-1
 560 145 l 1,11,-1
 765 380 l 1,12,-1
 940 380 l 1,13,-1
 940 0 l 1,14,-1
 800 0 l 1,15,-1
 800 65 l 1,16,-1
 560 65 l 1,10,-1
708 145 m 1,17,-1
 800 145 l 1,18,-1
 800 250 l 1,19,-1
 708 145 l 1,17,-1
EndSplineSet
Validated: 1
EndChar

StartChar: onehalf
Encoding: 189 189 124
Width: 1040
GlyphClass: 1
Flags: W
LayerCount: 2
Fore
SplineSet
40 580 m 1,0,-1
 40 660 l 1,1,-1
 290 660 l 1,2,-1
 290 280 l 1,3,-1
 150 280 l 1,4,-1
 150 580 l 1,5,-1
 40 580 l 1,0,-1
225 0 m 1,6,-1
 587 660 l 1,7,-1
 745 660 l 1,8,-1
 383 0 l 1,9,-1
 225 0 l 1,6,-1
620 0 m 1,10,-1
 620 151 l 2,11,12
 620 235 620 235 725 235 c 2,13,-1
 840 235 l 2,14,15
 860 235 860 235 860 251 c 2,16,-1
 860 284 l 2,17,18
 860 300 860 300 840 300 c 2,19,-1
 645 300 l 1,20,-1
 645 380 l 1,21,-1
 895 380 l 2,22,23
 1000 380 1000 380 1000 296 c 2,24,-1
 1000 239 l 2,25,26
 1000 155 1000 155 895 155 c 2,27,-1
 780 155 l 2,28,29
 760 155 760 155 760 139 c 2,30,-1
 760 80 l 1,31,-1
 1000 80 l 1,32,-1
 1000 0 l 1,33,-1
 620 0 l 1,10,-1
EndSplineSet
Validated: 1
EndChar

StartChar: threequarters
Encoding: 190 190 125
Width: 1050
GlyphClass: 1
Flags: W
LayerCount: 2
Fore
SplineSet
50 280 m 1,0,-1
 50 360 l 1,1,-1
 260 360 l 2,2,3
 280 360 280 360 280 376 c 2,4,-1
 280 419 l 2,5,6
 280 435 280 435 260 435 c 2,7,-1
 100 435 l 1,8,-1
 100 515 l 1,9,-1
 260 515 l 2,10,11
 280 515 280 515 280 531 c 2,12,-1
 280 564 l 2,13,14
 280 580 280 580 260 580 c 2,15,-1
 50 580 l 1,16,-1
 50 660 l 1,17,-1
 315 660 l 2,18,19
 420 660 420 660 420 576 c 2,20,-1
 420 551 l 2,21,22
 420 493 420 493 370 475 c 1,23,24
 420 457 420 457 420 399 c 2,25,-1
 420 364 l 2,26,27
 420 280 420 280 315 280 c 2,28,-1
 50 280 l 1,0,-1
295 0 m 1,29,-1
 657 660 l 1,30,-1
 815 660 l 1,31,-1
 453 0 l 1,32,-1
 295 0 l 1,29,-1
630 65 m 1,33,-1
 630 145 l 1,34,-1
 835 380 l 1,35,-1
 1010 380 l 1,36,-1
 1010 0 l 1,37,-1
 870 0 l 1,38,-1
 870 65 l 1,39,-1
 630 65 l 1,33,-1
778 145 m 1,40,-1
 870 145 l 1,41,-1
 870 250 l 1,42,-1
 778 145 l 1,40,-1
EndSplineSet
Validated: 1
EndChar

StartChar: questiondown
Encoding: 191 191 126
Width: 700
GlyphClass: 1
Flags: W
LayerCount: 2
Fore
SplineSet
50 -44 m 2,0,-1
 50 59 l 2,1,2
 50 195 50 195 220 195 c 2,3,-1
 320 195 l 1,4,-1
 320 265 l 1,5,-1
 520 265 l 1,6,-1
 520 75 l 1,7,-1
 285 75 l 2,8,9
 250 75 250 75 250 47 c 2,10,-1
 250 -32 l 2,11,12
 250 -60 250 -60 285 -60 c 2,13,-1
 690 -60 l 1,14,-1
 690 -180 l 1,15,-1
 220 -180 l 2,16,17
 50 -180 50 -180 50 -44 c 2,0,-1
320 340 m 1,18,-1
 320 490 l 1,19,-1
 520 490 l 1,20,-1
 520 340 l 1,21,-1
 320 340 l 1,18,-1
EndSplineSet
Validated: 1
EndChar

StartChar: Agrave
Encoding: 192 192 127
Width: 830
GlyphClass: 1
Flags: W
LayerCount: 2
Fore
SplineSet
5 0 m 1,0,-1
 290 660 l 1,1,-1
 540 660 l 1,2,-1
 825 0 l 1,3,-1
 629 0 l 1,4,-1
 569 140 l 1,5,-1
 261 140 l 1,6,-1
 201 0 l 1,7,-1
 5 0 l 1,0,-1
240 880 m 1,8,-1
 400 880 l 1,9,-1
 510 720 l 1,10,-1
 380 720 l 1,11,-1
 240 880 l 1,8,-1
313 260 m 1,12,-1
 517 260 l 1,13,-1
 415 495 l 1,14,-1
 313 260 l 1,12,-1
EndSplineSet
Validated: 1
EndChar

StartChar: Aacute
Encoding: 193 193 128
Width: 830
GlyphClass: 1
Flags: W
LayerCount: 2
Fore
SplineSet
5 0 m 1,0,-1
 290 660 l 1,1,-1
 540 660 l 1,2,-1
 825 0 l 1,3,-1
 629 0 l 1,4,-1
 569 140 l 1,5,-1
 261 140 l 1,6,-1
 201 0 l 1,7,-1
 5 0 l 1,0,-1
313 260 m 1,8,-1
 517 260 l 1,9,-1
 415 495 l 1,10,-1
 313 260 l 1,8,-1
320 720 m 1,11,-1
 430 880 l 1,12,-1
 590 880 l 1,13,-1
 450 720 l 1,14,-1
 320 720 l 1,11,-1
EndSplineSet
Validated: 1
EndChar

StartChar: Acircumflex
Encoding: 194 194 129
Width: 830
GlyphClass: 1
Flags: W
LayerCount: 2
Fore
SplineSet
5 0 m 1,0,-1
 290 660 l 1,1,-1
 540 660 l 1,2,-1
 825 0 l 1,3,-1
 629 0 l 1,4,-1
 569 140 l 1,5,-1
 261 140 l 1,6,-1
 201 0 l 1,7,-1
 5 0 l 1,0,-1
225 720 m 1,8,-1
 350 880 l 1,9,-1
 480 880 l 1,10,-1
 605 720 l 1,11,-1
 478 720 l 1,12,-1
 415 795 l 1,13,-1
 352 720 l 1,14,-1
 225 720 l 1,8,-1
313 260 m 1,15,-1
 517 260 l 1,16,-1
 415 495 l 1,17,-1
 313 260 l 1,15,-1
EndSplineSet
Validated: 1
EndChar

StartChar: Atilde
Encoding: 195 195 130
Width: 830
GlyphClass: 1
Flags: W
LayerCount: 2
Fore
SplineSet
5 0 m 1,0,-1
 290 660 l 1,1,-1
 540 660 l 1,2,-1
 825 0 l 1,3,-1
 629 0 l 1,4,-1
 569 140 l 1,5,-1
 261 140 l 1,6,-1
 201 0 l 1,7,-1
 5 0 l 1,0,-1
225 785 m 1,8,-1
 290 850 l 2,9,10
 320 880 320 880 360 880 c 128,-1,11
 400 880 400 880 430 850 c 2,12,-1
 450 830 l 2,13,14
 462 818 462 818 470 818 c 128,-1,15
 478 818 478 818 490 830 c 2,16,-1
 540 880 l 1,17,-1
 605 815 l 1,18,-1
 540 750 l 2,19,20
 510 720 510 720 470 720 c 128,-1,21
 430 720 430 720 400 750 c 2,22,-1
 380 770 l 2,23,24
 368 782 368 782 360 782 c 128,-1,25
 352 782 352 782 340 770 c 2,26,-1
 290 720 l 1,27,-1
 225 785 l 1,8,-1
313 260 m 1,28,-1
 517 260 l 1,29,-1
 415 495 l 1,30,-1
 313 260 l 1,28,-1
EndSplineSet
Validated: 1
EndChar

StartChar: Adieresis
Encoding: 196 196 131
Width: 830
GlyphClass: 1
Flags: W
LayerCount: 2
Fore
SplineSet
5 0 m 1,0,-1
 290 660 l 1,1,-1
 540 660 l 1,2,-1
 825 0 l 1,3,-1
 629 0 l 1,4,-1
 569 140 l 1,5,-1
 261 140 l 1,6,-1
 201 0 l 1,7,-1
 5 0 l 1,0,-1
230 740 m 1,8,-1
 230 860 l 1,9,-1
 370 860 l 1,10,-1
 370 740 l 1,11,-1
 230 740 l 1,8,-1
313 260 m 1,12,-1
 517 260 l 1,13,-1
 415 495 l 1,14,-1
 313 260 l 1,12,-1
460 740 m 1,15,-1
 460 860 l 1,16,-1
 600 860 l 1,17,-1
 600 740 l 1,18,-1
 460 740 l 1,15,-1
EndSplineSet
Validated: 1
EndChar

StartChar: Aring
Encoding: 197 197 132
Width: 830
GlyphClass: 1
Flags: W
LayerCount: 2
Fore
SplineSet
5 0 m 1,0,-1
 290 660 l 1,1,-1
 540 660 l 1,2,-1
 825 0 l 1,3,-1
 629 0 l 1,4,-1
 569 140 l 1,5,-1
 261 140 l 1,6,-1
 201 0 l 1,7,-1
 5 0 l 1,0,-1
265 757 m 2,8,-1
 265 818 l 2,9,10
 265 890 265 890 355 890 c 2,11,-1
 475 890 l 2,12,13
 565 890 565 890 565 818 c 2,14,-1
 565 757 l 2,15,16
 565 685 565 685 475 685 c 2,17,-1
 355 685 l 2,18,19
 265 685 265 685 265 757 c 2,8,-1
313 260 m 1,20,-1
 517 260 l 1,21,-1
 415 495 l 1,22,-1
 313 260 l 1,20,-1
365 757 m 2,23,24
 365 745 365 745 380 745 c 2,25,-1
 450 745 l 2,26,27
 465 745 465 745 465 757 c 2,28,-1
 465 818 l 2,29,30
 465 830 465 830 450 830 c 2,31,-1
 380 830 l 2,32,33
 365 830 365 830 365 818 c 2,34,-1
 365 757 l 2,23,24
EndSplineSet
Validated: 1
EndChar

StartChar: AE
Encoding: 198 198 133
Width: 1150
GlyphClass: 1
Flags: W
LayerCount: 2
Fore
SplineSet
5 0 m 1,0,-1
 290 660 l 1,1,-1
 1100 660 l 1,2,-1
 1100 540 l 1,3,-1
 700 540 l 1,4,-1
 700 405 l 1,5,-1
 1050 405 l 1,6,-1
 1050 285 l 1,7,-1
 700 285 l 1,8,-1
 700 120 l 1,9,-1
 1100 120 l 1,10,-1
 1100 0 l 1,11,-1
 500 0 l 1,12,-1
 500 140 l 1,13,-1
 261 140 l 1,14,-1
 201 0 l 1,15,-1
 5 0 l 1,0,-1
313 260 m 1,16,-1
 500 260 l 1,17,-1
 500 540 l 1,18,-1
 434 540 l 1,19,-1
 313 260 l 1,16,-1
EndSplineSet
Validated: 1
EndChar

StartChar: Ccedilla
Encoding: 199 199 134
Width: 760
GlyphClass: 1
Flags: W
LayerCount: 2
Fore
SplineSet
70 136 m 2,0,-1
 70 524 l 2,1,2
 70 660 70 660 240 660 c 2,3,-1
 710 660 l 1,4,-1
 710 540 l 1,5,-1
 305 540 l 2,6,7
 270 540 270 540 270 512 c 2,8,-1
 270 148 l 2,9,10
 270 120 270 120 305 120 c 2,11,-1
 710 120 l 1,12,-1
 710 0 l 1,13,-1
 560 0 l 1,14,-1
 560 -85 l 2,15,16
 560 -185 560 -185 435 -185 c 2,17,-1
 300 -185 l 1,18,-1
 300 -110 l 1,19,-1
 390 -110 l 2,20,21
 430 -110 430 -110 430 -78 c 2,22,-1
 430 0 l 1,23,-1
 240 0 l 2,24,25
 70 0 70 0 70 136 c 2,0,-1
EndSplineSet
Validated: 1
EndChar

StartChar: Egrave
Encoding: 200 200 135
Width: 760
GlyphClass: 1
Flags: W
LayerCount: 2
Fore
SplineSet
70 0 m 1,0,-1
 70 660 l 1,1,-1
 710 660 l 1,2,-1
 710 540 l 1,3,-1
 270 540 l 1,4,-1
 270 405 l 1,5,-1
 660 405 l 1,6,-1
 660 285 l 1,7,-1
 270 285 l 1,8,-1
 270 120 l 1,9,-1
 710 120 l 1,10,-1
 710 0 l 1,11,-1
 70 0 l 1,0,-1
215 880 m 1,12,-1
 375 880 l 1,13,-1
 485 720 l 1,14,-1
 355 720 l 1,15,-1
 215 880 l 1,12,-1
EndSplineSet
Validated: 1
EndChar

StartChar: Eacute
Encoding: 201 201 136
Width: 760
GlyphClass: 1
Flags: W
LayerCount: 2
Fore
SplineSet
70 0 m 1,0,-1
 70 660 l 1,1,-1
 710 660 l 1,2,-1
 710 540 l 1,3,-1
 270 540 l 1,4,-1
 270 405 l 1,5,-1
 660 405 l 1,6,-1
 660 285 l 1,7,-1
 270 285 l 1,8,-1
 270 120 l 1,9,-1
 710 120 l 1,10,-1
 710 0 l 1,11,-1
 70 0 l 1,0,-1
295 720 m 1,12,-1
 405 880 l 1,13,-1
 565 880 l 1,14,-1
 425 720 l 1,15,-1
 295 720 l 1,12,-1
EndSplineSet
Validated: 1
EndChar

StartChar: Ecircumflex
Encoding: 202 202 137
Width: 760
GlyphClass: 1
Flags: W
LayerCount: 2
Fore
SplineSet
70 0 m 1,0,-1
 70 660 l 1,1,-1
 710 660 l 1,2,-1
 710 540 l 1,3,-1
 270 540 l 1,4,-1
 270 405 l 1,5,-1
 660 405 l 1,6,-1
 660 285 l 1,7,-1
 270 285 l 1,8,-1
 270 120 l 1,9,-1
 710 120 l 1,10,-1
 710 0 l 1,11,-1
 70 0 l 1,0,-1
200 720 m 1,12,-1
 325 880 l 1,13,-1
 455 880 l 1,14,-1
 580 720 l 1,15,-1
 453 720 l 1,16,-1
 390 795 l 1,17,-1
 327 720 l 1,18,-1
 200 720 l 1,12,-1
EndSplineSet
Validated: 1
EndChar

StartChar: Edieresis
Encoding: 203 203 138
Width: 760
GlyphClass: 1
Flags: W
LayerCount: 2
Fore
SplineSet
70 0 m 1,0,-1
 70 660 l 1,1,-1
 710 660 l 1,2,-1
 710 540 l 1,3,-1
 270 540 l 1,4,-1
 270 405 l 1,5,-1
 660 405 l 1,6,-1
 660 285 l 1,7,-1
 270 285 l 1,8,-1
 270 120 l 1,9,-1
 710 120 l 1,10,-1
 710 0 l 1,11,-1
 70 0 l 1,0,-1
205 740 m 1,12,-1
 205 860 l 1,13,-1
 345 860 l 1,14,-1
 345 740 l 1,15,-1
 205 740 l 1,12,-1
435 740 m 1,16,-1
 435 860 l 1,17,-1
 575 860 l 1,18,-1
 575 740 l 1,19,-1
 435 740 l 1,16,-1
EndSplineSet
Validated: 1
EndChar

StartChar: Igrave
Encoding: 204 204 139
Width: 340
GlyphClass: 1
Flags: W
LayerCount: 2
Fore
SplineSet
10 880 m 1,0,-1
 170 880 l 1,1,-1
 280 720 l 1,2,-1
 150 720 l 1,3,-1
 10 880 l 1,0,-1
70 0 m 1,4,-1
 70 660 l 1,5,-1
 270 660 l 1,6,-1
 270 0 l 1,7,-1
 70 0 l 1,4,-1
EndSplineSet
Validated: 1
EndChar

StartChar: Iacute
Encoding: 205 205 140
Width: 340
GlyphClass: 1
Flags: W
LayerCount: 2
Fore
SplineSet
60 720 m 1,0,-1
 170 880 l 1,1,-1
 330 880 l 1,2,-1
 190 720 l 1,3,-1
 60 720 l 1,0,-1
70 0 m 1,4,-1
 70 660 l 1,5,-1
 270 660 l 1,6,-1
 270 0 l 1,7,-1
 70 0 l 1,4,-1
EndSplineSet
Validated: 1
EndChar

StartChar: Icircumflex
Encoding: 206 206 141
Width: 340
GlyphClass: 1
Flags: W
LayerCount: 2
Fore
SplineSet
-20 720 m 1,0,-1
 105 880 l 1,1,-1
 235 880 l 1,2,-1
 360 720 l 1,3,-1
 233 720 l 1,4,-1
 170 795 l 1,5,-1
 107 720 l 1,6,-1
 -20 720 l 1,0,-1
70 0 m 1,7,-1
 70 660 l 1,8,-1
 270 660 l 1,9,-1
 270 0 l 1,10,-1
 70 0 l 1,7,-1
EndSplineSet
Validated: 1
EndChar

StartChar: Idieresis
Encoding: 207 207 142
Width: 340
GlyphClass: 1
Flags: W
LayerCount: 2
Fore
SplineSet
-15 740 m 1,0,-1
 -15 860 l 1,1,-1
 125 860 l 1,2,-1
 125 740 l 1,3,-1
 -15 740 l 1,0,-1
70 0 m 1,4,-1
 70 660 l 1,5,-1
 270 660 l 1,6,-1
 270 0 l 1,7,-1
 70 0 l 1,4,-1
215 740 m 1,8,-1
 215 860 l 1,9,-1
 355 860 l 1,10,-1
 355 740 l 1,11,-1
 215 740 l 1,8,-1
EndSplineSet
Validated: 1
EndChar

StartChar: Eth
Encoding: 208 208 143
Width: 840
GlyphClass: 1
Flags: W
LayerCount: 2
Fore
SplineSet
10 295 m 1,0,-1
 10 395 l 1,1,-1
 90 395 l 1,2,-1
 90 660 l 1,3,-1
 440 660 l 2,4,5
 780 660 780 660 780 388 c 2,6,-1
 780 272 l 2,7,8
 780 0 780 0 440 0 c 2,9,-1
 90 0 l 1,10,-1
 90 295 l 1,11,-1
 10 295 l 1,0,-1
290 120 m 1,12,-1
 400 120 l 2,13,14
 580 120 580 120 580 264 c 2,15,-1
 580 396 l 2,16,17
 580 540 580 540 400 540 c 2,18,-1
 290 540 l 1,19,-1
 290 395 l 1,20,-1
 440 395 l 1,21,-1
 440 295 l 1,22,-1
 290 295 l 1,23,-1
 290 120 l 1,12,-1
EndSplineSet
Validated: 1
EndChar

StartChar: Ntilde
Encoding: 209 209 144
Width: 840
GlyphClass: 1
Flags: W
LayerCount: 2
Fore
SplineSet
70 0 m 1,0,-1
 70 660 l 1,1,-1
 285 660 l 1,2,-1
 570 264 l 1,3,-1
 570 660 l 1,4,-1
 770 660 l 1,5,-1
 770 0 l 1,6,-1
 555 0 l 1,7,-1
 270 396 l 1,8,-1
 270 0 l 1,9,-1
 70 0 l 1,0,-1
230 785 m 1,10,-1
 295 850 l 2,11,12
 325 880 325 880 365 880 c 128,-1,13
 405 880 405 880 435 850 c 2,14,-1
 455 830 l 2,15,16
 467 818 467 818 475 818 c 128,-1,17
 483 818 483 818 495 830 c 2,18,-1
 545 880 l 1,19,-1
 610 815 l 1,20,-1
 545 750 l 2,21,22
 515 720 515 720 475 720 c 128,-1,23
 435 720 435 720 405 750 c 2,24,-1
 385 770 l 2,25,26
 373 782 373 782 365 782 c 128,-1,27
 357 782 357 782 345 770 c 2,28,-1
 295 720 l 1,29,-1
 230 785 l 1,10,-1
EndSplineSet
Validated: 1
EndChar

StartChar: Ograve
Encoding: 210 210 145
Width: 830
GlyphClass: 1
Flags: W
LayerCount: 2
Fore
SplineSet
70 136 m 2,0,-1
 70 524 l 2,1,2
 70 660 70 660 240 660 c 2,3,-1
 590 660 l 2,4,5
 760 660 760 660 760 524 c 2,6,-1
 760 136 l 2,7,8
 760 0 760 0 590 0 c 2,9,-1
 240 0 l 2,10,11
 70 0 70 0 70 136 c 2,0,-1
240 880 m 1,12,-1
 400 880 l 1,13,-1
 510 720 l 1,14,-1
 380 720 l 1,15,-1
 240 880 l 1,12,-1
270 148 m 2,16,17
 270 120 270 120 305 120 c 2,18,-1
 525 120 l 2,19,20
 560 120 560 120 560 148 c 2,21,-1
 560 512 l 2,22,23
 560 540 560 540 525 540 c 2,24,-1
 305 540 l 2,25,26
 270 540 270 540 270 512 c 2,27,-1
 270 148 l 2,16,17
EndSplineSet
Validated: 1
EndChar

StartChar: Oacute
Encoding: 211 211 146
Width: 830
GlyphClass: 1
Flags: W
LayerCount: 2
Fore
SplineSet
70 136 m 2,0,-1
 70 524 l 2,1,2
 70 660 70 660 240 660 c 2,3,-1
 590 660 l 2,4,5
 760 660 760 660 760 524 c 2,6,-1
 760 136 l 2,7,8
 760 0 760 0 590 0 c 2,9,-1
 240 0 l 2,10,11
 70 0 70 0 70 136 c 2,0,-1
270 148 m 2,12,13
 270 120 270 120 305 120 c 2,14,-1
 525 120 l 2,15,16
 560 120 560 120 560 148 c 2,17,-1
 560 512 l 2,18,19
 560 540 560 540 525 540 c 2,20,-1
 305 540 l 2,21,22
 270 540 270 540 270 512 c 2,23,-1
 270 148 l 2,12,13
320 720 m 1,24,-1
 430 880 l 1,25,-1
 590 880 l 1,26,-1
 450 720 l 1,27,-1
 320 720 l 1,24,-1
EndSplineSet
Validated: 1
EndChar

StartChar: Ocircumflex
Encoding: 212 212 147
Width: 830
GlyphClass: 1
Flags: W
LayerCount: 2
Fore
SplineSet
70 136 m 2,0,-1
 70 524 l 2,1,2
 70 660 70 660 240 660 c 2,3,-1
 590 660 l 2,4,5
 760 660 760 660 760 524 c 2,6,-1
 760 136 l 2,7,8
 760 0 760 0 590 0 c 2,9,-1
 240 0 l 2,10,11
 70 0 70 0 70 136 c 2,0,-1
225 720 m 1,12,-1
 350 880 l 1,13,-1
 480 880 l 1,14,-1
 605 720 l 1,15,-1
 478 720 l 1,16,-1
 415 795 l 1,17,-1
 352 720 l 1,18,-1
 225 720 l 1,12,-1
270 148 m 2,19,20
 270 120 270 120 305 120 c 2,21,-1
 525 120 l 2,22,23
 560 120 560 120 560 148 c 2,24,-1
 560 512 l 2,25,26
 560 540 560 540 525 540 c 2,27,-1
 305 540 l 2,28,29
 270 540 270 540 270 512 c 2,30,-1
 270 148 l 2,19,20
EndSplineSet
Validated: 1
EndChar

StartChar: Otilde
Encoding: 213 213 148
Width: 830
GlyphClass: 1
Flags: W
LayerCount: 2
Fore
SplineSet
70 136 m 2,0,-1
 70 524 l 2,1,2
 70 660 70 660 240 660 c 2,3,-1
 590 660 l 2,4,5
 760 660 760 660 760 524 c 2,6,-1
 760 136 l 2,7,8
 760 0 760 0 590 0 c 2,9,-1
 240 0 l 2,10,11
 70 0 70 0 70 136 c 2,0,-1
225 785 m 1,12,-1
 290 850 l 2,13,14
 320 880 320 880 360 880 c 128,-1,15
 400 880 400 880 430 850 c 2,16,-1
 450 830 l 2,17,18
 462 818 462 818 470 818 c 128,-1,19
 478 818 478 818 490 830 c 2,20,-1
 540 880 l 1,21,-1
 605 815 l 1,22,-1
 540 750 l 2,23,24
 510 720 510 720 470 720 c 128,-1,25
 430 720 430 720 400 750 c 2,26,-1
 380 770 l 2,27,28
 368 782 368 782 360 782 c 128,-1,29
 352 782 352 782 340 770 c 2,30,-1
 290 720 l 1,31,-1
 225 785 l 1,12,-1
270 148 m 2,32,33
 270 120 270 120 305 120 c 2,34,-1
 525 120 l 2,35,36
 560 120 560 120 560 148 c 2,37,-1
 560 512 l 2,38,39
 560 540 560 540 525 540 c 2,40,-1
 305 540 l 2,41,42
 270 540 270 540 270 512 c 2,43,-1
 270 148 l 2,32,33
EndSplineSet
Validated: 1
EndChar

StartChar: Odieresis
Encoding: 214 214 149
Width: 830
GlyphClass: 1
Flags: W
LayerCount: 2
Fore
SplineSet
70 136 m 2,0,-1
 70 524 l 2,1,2
 70 660 70 660 240 660 c 2,3,-1
 590 660 l 2,4,5
 760 660 760 660 760 524 c 2,6,-1
 760 136 l 2,7,8
 760 0 760 0 590 0 c 2,9,-1
 240 0 l 2,10,11
 70 0 70 0 70 136 c 2,0,-1
230 740 m 1,12,-1
 230 860 l 1,13,-1
 370 860 l 1,14,-1
 370 740 l 1,15,-1
 230 740 l 1,12,-1
270 148 m 2,16,17
 270 120 270 120 305 120 c 2,18,-1
 525 120 l 2,19,20
 560 120 560 120 560 148 c 2,21,-1
 560 512 l 2,22,23
 560 540 560 540 525 540 c 2,24,-1
 305 540 l 2,25,26
 270 540 270 540 270 512 c 2,27,-1
 270 148 l 2,16,17
460 740 m 1,28,-1
 460 860 l 1,29,-1
 600 860 l 1,30,-1
 600 740 l 1,31,-1
 460 740 l 1,28,-1
EndSplineSet
Validated: 1
EndChar

StartChar: multiply
Encoding: 215 215 150
Width: 740
GlyphClass: 1
Flags: W
LayerCount: 2
Fore
SplineSet
110 120 m 1,0,-1
 275 285 l 1,1,-1
 110 450 l 1,2,-1
 205 545 l 1,3,-1
 370 380 l 1,4,-1
 535 545 l 1,5,-1
 630 450 l 1,6,-1
 465 285 l 1,7,-1
 630 120 l 1,8,-1
 535 25 l 1,9,-1
 370 190 l 1,10,-1
 205 25 l 1,11,-1
 110 120 l 1,0,-1
EndSplineSet
Validated: 1
EndChar

StartChar: Oslash
Encoding: 216 216 151
Width: 830
GlyphClass: 1
Flags: W
LayerCount: 2
Fore
SplineSet
70 136 m 2,0,-1
 70 524 l 2,1,2
 70 660 70 660 240 660 c 2,3,-1
 590 660 l 2,4,5
 760 660 760 660 760 524 c 2,6,-1
 760 136 l 2,7,8
 760 0 760 0 590 0 c 2,9,-1
 240 0 l 2,10,11
 70 0 70 0 70 136 c 2,0,-1
270 257 m 1,12,-1
 521 540 l 1,13,-1
 305 540 l 2,14,15
 270 540 270 540 270 512 c 2,16,-1
 270 257 l 1,12,-1
309 120 m 1,17,-1
 525 120 l 2,18,19
 560 120 560 120 560 148 c 2,20,-1
 560 403 l 1,21,-1
 309 120 l 1,17,-1
EndSplineSet
Validated: 1
EndChar

StartChar: Ugrave
Encoding: 217 217 152
Width: 830
GlyphClass: 1
Flags: W
LayerCount: 2
Fore
SplineSet
70 136 m 2,0,-1
 70 660 l 1,1,-1
 270 660 l 1,2,-1
 270 148 l 2,3,4
 270 120 270 120 305 120 c 2,5,-1
 525 120 l 2,6,7
 560 120 560 120 560 148 c 2,8,-1
 560 660 l 1,9,-1
 760 660 l 1,10,-1
 760 136 l 2,11,12
 760 0 760 0 590 0 c 2,13,-1
 240 0 l 2,14,15
 70 0 70 0 70 136 c 2,0,-1
240 880 m 1,16,-1
 400 880 l 1,17,-1
 510 720 l 1,18,-1
 380 720 l 1,19,-1
 240 880 l 1,16,-1
EndSplineSet
Validated: 1
EndChar

StartChar: Uacute
Encoding: 218 218 153
Width: 830
GlyphClass: 1
Flags: W
LayerCount: 2
Fore
SplineSet
70 136 m 2,0,-1
 70 660 l 1,1,-1
 270 660 l 1,2,-1
 270 148 l 2,3,4
 270 120 270 120 305 120 c 2,5,-1
 525 120 l 2,6,7
 560 120 560 120 560 148 c 2,8,-1
 560 660 l 1,9,-1
 760 660 l 1,10,-1
 760 136 l 2,11,12
 760 0 760 0 590 0 c 2,13,-1
 240 0 l 2,14,15
 70 0 70 0 70 136 c 2,0,-1
320 720 m 1,16,-1
 430 880 l 1,17,-1
 590 880 l 1,18,-1
 450 720 l 1,19,-1
 320 720 l 1,16,-1
EndSplineSet
Validated: 1
EndChar

StartChar: Ucircumflex
Encoding: 219 219 154
Width: 830
GlyphClass: 1
Flags: W
LayerCount: 2
Fore
SplineSet
70 136 m 2,0,-1
 70 660 l 1,1,-1
 270 660 l 1,2,-1
 270 148 l 2,3,4
 270 120 270 120 305 120 c 2,5,-1
 525 120 l 2,6,7
 560 120 560 120 560 148 c 2,8,-1
 560 660 l 1,9,-1
 760 660 l 1,10,-1
 760 136 l 2,11,12
 760 0 760 0 590 0 c 2,13,-1
 240 0 l 2,14,15
 70 0 70 0 70 136 c 2,0,-1
225 720 m 1,16,-1
 350 880 l 1,17,-1
 480 880 l 1,18,-1
 605 720 l 1,19,-1
 478 720 l 1,20,-1
 415 795 l 1,21,-1
 352 720 l 1,22,-1
 225 720 l 1,16,-1
EndSplineSet
Validated: 1
EndChar

StartChar: Udieresis
Encoding: 220 220 155
Width: 830
GlyphClass: 1
Flags: W
LayerCount: 2
Fore
SplineSet
70 136 m 2,0,-1
 70 660 l 1,1,-1
 270 660 l 1,2,-1
 270 148 l 2,3,4
 270 120 270 120 305 120 c 2,5,-1
 525 120 l 2,6,7
 560 120 560 120 560 148 c 2,8,-1
 560 660 l 1,9,-1
 760 660 l 1,10,-1
 760 136 l 2,11,12
 760 0 760 0 590 0 c 2,13,-1
 240 0 l 2,14,15
 70 0 70 0 70 136 c 2,0,-1
230 740 m 1,16,-1
 230 860 l 1,17,-1
 370 860 l 1,18,-1
 370 740 l 1,19,-1
 230 740 l 1,16,-1
460 740 m 1,20,-1
 460 860 l 1,21,-1
 600 860 l 1,22,-1
 600 740 l 1,23,-1
 460 740 l 1,20,-1
EndSplineSet
Validated: 1
EndChar

StartChar: Yacute
Encoding: 221 221 156
Width: 810
GlyphClass: 1
Flags: W
LayerCount: 2
Fore
SplineSet
5 660 m 1,0,-1
 221 660 l 1,1,-1
 405 405 l 1,2,-1
 589 660 l 1,3,-1
 805 660 l 1,4,-1
 505 245 l 1,5,-1
 505 0 l 1,6,-1
 305 0 l 1,7,-1
 305 245 l 1,8,-1
 5 660 l 1,0,-1
310 720 m 1,9,-1
 420 880 l 1,10,-1
 580 880 l 1,11,-1
 440 720 l 1,12,-1
 310 720 l 1,9,-1
EndSplineSet
Validated: 1
EndChar

StartChar: Thorn
Encoding: 222 222 157
Width: 780
GlyphClass: 1
Flags: W
LayerCount: 2
Fore
SplineSet
70 0 m 1,0,-1
 70 660 l 1,1,-1
 270 660 l 1,2,-1
 270 555 l 1,3,-1
 560 555 l 2,4,5
 730 555 730 555 730 419 c 2,6,-1
 730 266 l 2,7,8
 730 130 730 130 560 130 c 2,9,-1
 270 130 l 1,10,-1
 270 0 l 1,11,-1
 70 0 l 1,0,-1
270 250 m 1,12,-1
 495 250 l 2,13,14
 530 250 530 250 530 278 c 2,15,-1
 530 407 l 2,16,17
 530 435 530 435 495 435 c 2,18,-1
 270 435 l 1,19,-1
 270 250 l 1,12,-1
EndSplineSet
Validated: 1
EndChar

StartChar: germandbls
Encoding: 223 223 158
Width: 680
GlyphClass: 1
Flags: W
LayerCount: 2
Fore
SplineSet
60 0 m 1,0,-1
 60 540 l 2,1,2
 60 660 60 660 210 660 c 2,3,-1
 440 660 l 2,4,5
 590 660 590 660 590 540 c 2,6,-1
 590 449 l 2,7,8
 590 379 590 379 540 350 c 1,9,10
 620 326 620 326 620 239 c 2,11,-1
 620 120 l 2,12,13
 620 0 620 0 470 0 c 2,14,-1
 320 0 l 1,15,-1
 320 105 l 1,16,-1
 415 105 l 2,17,18
 440 105 440 105 440 125 c 2,19,-1
 440 275 l 2,20,21
 440 295 440 295 415 295 c 2,22,-1
 320 295 l 1,23,-1
 320 400 l 1,24,-1
 385 400 l 2,25,26
 410 400 410 400 410 420 c 2,27,-1
 410 535 l 2,28,29
 410 555 410 555 385 555 c 2,30,-1
 265 555 l 2,31,32
 240 555 240 555 240 535 c 2,33,-1
 240 0 l 1,34,-1
 60 0 l 1,0,-1
EndSplineSet
Validated: 1
EndChar

StartChar: agrave
Encoding: 224 224 159
Width: 650
GlyphClass: 1
Flags: W
LayerCount: 2
Fore
SplineSet
50 120 m 2,0,-1
 50 185 l 2,1,2
 50 305 50 305 200 305 c 2,3,-1
 410 305 l 1,4,-1
 410 365 l 2,5,6
 410 385 410 385 385 385 c 2,7,-1
 90 385 l 1,8,-1
 90 490 l 1,9,-1
 440 490 l 2,10,11
 590 490 590 490 590 370 c 2,12,-1
 590 0 l 1,13,-1
 200 0 l 2,14,15
 50 0 50 0 50 120 c 2,0,-1
150 710 m 1,16,-1
 310 710 l 1,17,-1
 420 550 l 1,18,-1
 290 550 l 1,19,-1
 150 710 l 1,16,-1
230 125 m 2,20,21
 230 105 230 105 255 105 c 2,22,-1
 410 105 l 1,23,-1
 410 200 l 1,24,-1
 255 200 l 2,25,26
 230 200 230 200 230 180 c 2,27,-1
 230 125 l 2,20,21
EndSplineSet
Validated: 1
EndChar

StartChar: aacute
Encoding: 225 225 160
Width: 650
GlyphClass: 1
Flags: W
LayerCount: 2
Fore
SplineSet
50 120 m 2,0,-1
 50 185 l 2,1,2
 50 305 50 305 200 305 c 2,3,-1
 410 305 l 1,4,-1
 410 365 l 2,5,6
 410 385 410 385 385 385 c 2,7,-1
 90 385 l 1,8,-1
 90 490 l 1,9,-1
 440 490 l 2,10,11
 590 490 590 490 590 370 c 2,12,-1
 590 0 l 1,13,-1
 200 0 l 2,14,15
 50 0 50 0 50 120 c 2,0,-1
230 125 m 2,16,17
 230 105 230 105 255 105 c 2,18,-1
 410 105 l 1,19,-1
 410 200 l 1,20,-1
 255 200 l 2,21,22
 230 200 230 200 230 180 c 2,23,-1
 230 125 l 2,16,17
230 550 m 1,24,-1
 340 710 l 1,25,-1
 500 710 l 1,26,-1
 360 550 l 1,27,-1
 230 550 l 1,24,-1
EndSplineSet
Validated: 1
EndChar

StartChar: acircumflex
Encoding: 226 226 161
Width: 650
GlyphClass: 1
Flags: W
LayerCount: 2
Fore
SplineSet
50 120 m 2,0,-1
 50 185 l 2,1,2
 50 305 50 305 200 305 c 2,3,-1
 410 305 l 1,4,-1
 410 365 l 2,5,6
 410 385 410 385 385 385 c 2,7,-1
 90 385 l 1,8,-1
 90 490 l 1,9,-1
 440 490 l 2,10,11
 590 490 590 490 590 370 c 2,12,-1
 590 0 l 1,13,-1
 200 0 l 2,14,15
 50 0 50 0 50 120 c 2,0,-1
135 550 m 1,16,-1
 260 710 l 1,17,-1
 390 710 l 1,18,-1
 515 550 l 1,19,-1
 388 550 l 1,20,-1
 325 625 l 1,21,-1
 262 550 l 1,22,-1
 135 550 l 1,16,-1
230 125 m 2,23,24
 230 105 230 105 255 105 c 2,25,-1
 410 105 l 1,26,-1
 410 200 l 1,27,-1
 255 200 l 2,28,29
 230 200 230 200 230 180 c 2,30,-1
 230 125 l 2,23,24
EndSplineSet
Validated: 1
EndChar

StartChar: atilde
Encoding: 227 227 162
Width: 650
GlyphClass: 1
Flags: W
LayerCount: 2
Fore
SplineSet
50 120 m 2,0,-1
 50 185 l 2,1,2
 50 305 50 305 200 305 c 2,3,-1
 410 305 l 1,4,-1
 410 365 l 2,5,6
 410 385 410 385 385 385 c 2,7,-1
 90 385 l 1,8,-1
 90 490 l 1,9,-1
 440 490 l 2,10,11
 590 490 590 490 590 370 c 2,12,-1
 590 0 l 1,13,-1
 200 0 l 2,14,15
 50 0 50 0 50 120 c 2,0,-1
135 615 m 1,16,-1
 200 680 l 2,17,18
 230 710 230 710 270 710 c 128,-1,19
 310 710 310 710 340 680 c 2,20,-1
 360 660 l 2,21,22
 372 648 372 648 380 648 c 128,-1,23
 388 648 388 648 400 660 c 2,24,-1
 450 710 l 1,25,-1
 515 645 l 1,26,-1
 450 580 l 2,27,28
 420 550 420 550 380 550 c 128,-1,29
 340 550 340 550 310 580 c 2,30,-1
 290 600 l 2,31,32
 278 612 278 612 270 612 c 128,-1,33
 262 612 262 612 250 600 c 2,34,-1
 200 550 l 1,35,-1
 135 615 l 1,16,-1
230 125 m 2,36,37
 230 105 230 105 255 105 c 2,38,-1
 410 105 l 1,39,-1
 410 200 l 1,40,-1
 255 200 l 2,41,42
 230 200 230 200 230 180 c 2,43,-1
 230 125 l 2,36,37
EndSplineSet
Validated: 1
EndChar

StartChar: adieresis
Encoding: 228 228 163
Width: 650
GlyphClass: 1
Flags: W
LayerCount: 2
Fore
SplineSet
50 120 m 2,0,-1
 50 185 l 2,1,2
 50 305 50 305 200 305 c 2,3,-1
 410 305 l 1,4,-1
 410 365 l 2,5,6
 410 385 410 385 385 385 c 2,7,-1
 90 385 l 1,8,-1
 90 490 l 1,9,-1
 440 490 l 2,10,11
 590 490 590 490 590 370 c 2,12,-1
 590 0 l 1,13,-1
 200 0 l 2,14,15
 50 0 50 0 50 120 c 2,0,-1
140 570 m 1,16,-1
 140 690 l 1,17,-1
 280 690 l 1,18,-1
 280 570 l 1,19,-1
 140 570 l 1,16,-1
230 125 m 2,20,21
 230 105 230 105 255 105 c 2,22,-1
 410 105 l 1,23,-1
 410 200 l 1,24,-1
 255 200 l 2,25,26
 230 200 230 200 230 180 c 2,27,-1
 230 125 l 2,20,21
370 570 m 1,28,-1
 370 690 l 1,29,-1
 510 690 l 1,30,-1
 510 570 l 1,31,-1
 370 570 l 1,28,-1
EndSplineSet
Validated: 1
EndChar

StartChar: aring
Encoding: 229 229 164
Width: 650
GlyphClass: 1
Flags: W
LayerCount: 2
Fore
SplineSet
50 120 m 2,0,-1
 50 185 l 2,1,2
 50 305 50 305 200 305 c 2,3,-1
 410 305 l 1,4,-1
 410 365 l 2,5,6
 410 385 410 385 385 385 c 2,7,-1
 90 385 l 1,8,-1
 90 490 l 1,9,-1
 440 490 l 2,10,11
 590 490 590 490 590 370 c 2,12,-1
 590 0 l 1,13,-1
 200 0 l 2,14,15
 50 0 50 0 50 120 c 2,0,-1
175 622 m 2,16,-1
 175 683 l 2,17,18
 175 755 175 755 265 755 c 2,19,-1
 385 755 l 2,20,21
 475 755 475 755 475 683 c 2,22,-1
 475 622 l 2,23,24
 475 550 475 550 385 550 c 2,25,-1
 265 550 l 2,26,27
 175 550 175 550 175 622 c 2,16,-1
230 125 m 2,28,29
 230 105 230 105 255 105 c 2,30,-1
 410 105 l 1,31,-1
 410 200 l 1,32,-1
 255 200 l 2,33,34
 230 200 230 200 230 180 c 2,35,-1
 230 125 l 2,28,29
275 622 m 2,36,37
 275 610 275 610 290 610 c 2,38,-1
 360 610 l 2,39,40
 375 610 375 610 375 622 c 2,41,-1
 375 683 l 2,42,43
 375 695 375 695 360 695 c 2,44,-1
 290 695 l 2,45,46
 275 695 275 695 275 683 c 2,47,-1
 275 622 l 2,36,37
EndSplineSet
Validated: 1
EndChar

StartChar: ae
Encoding: 230 230 165
Width: 1010
GlyphClass: 1
Flags: W
LayerCount: 2
Fore
SplineSet
50 120 m 2,0,-1
 50 185 l 2,1,2
 50 305 50 305 200 305 c 2,3,-1
 410 305 l 1,4,-1
 410 365 l 2,5,6
 410 385 410 385 385 385 c 2,7,-1
 90 385 l 1,8,-1
 90 490 l 1,9,-1
 800 490 l 2,10,11
 950 490 950 490 950 370 c 2,12,-1
 950 200 l 1,13,-1
 590 200 l 1,14,-1
 590 125 l 2,15,16
 590 105 590 105 615 105 c 2,17,-1
 930 105 l 1,18,-1
 930 0 l 1,19,-1
 200 0 l 2,20,21
 50 0 50 0 50 120 c 2,0,-1
230 125 m 2,22,23
 230 105 230 105 255 105 c 2,24,-1
 410 105 l 1,25,-1
 410 200 l 1,26,-1
 255 200 l 2,27,28
 230 200 230 200 230 180 c 2,29,-1
 230 125 l 2,22,23
590 305 m 1,30,-1
 770 305 l 1,31,-1
 770 365 l 2,32,33
 770 385 770 385 745 385 c 2,34,-1
 615 385 l 2,35,36
 590 385 590 385 590 365 c 2,37,-1
 590 305 l 1,30,-1
EndSplineSet
Validated: 1
EndChar

StartChar: ccedilla
Encoding: 231 231 166
Width: 610
GlyphClass: 1
Flags: W
LayerCount: 2
Fore
SplineSet
60 120 m 2,0,-1
 60 370 l 2,1,2
 60 490 60 490 210 490 c 2,3,-1
 570 490 l 1,4,-1
 570 385 l 1,5,-1
 265 385 l 2,6,7
 240 385 240 385 240 365 c 2,8,-1
 240 125 l 2,9,10
 240 105 240 105 265 105 c 2,11,-1
 570 105 l 1,12,-1
 570 0 l 1,13,-1
 470 0 l 1,14,-1
 470 -85 l 2,15,16
 470 -185 470 -185 345 -185 c 2,17,-1
 210 -185 l 1,18,-1
 210 -110 l 1,19,-1
 300 -110 l 2,20,21
 340 -110 340 -110 340 -78 c 2,22,-1
 340 0 l 1,23,-1
 210 0 l 2,24,25
 60 0 60 0 60 120 c 2,0,-1
EndSplineSet
Validated: 1
EndChar

StartChar: egrave
Encoding: 232 232 167
Width: 660
GlyphClass: 1
Flags: W
LayerCount: 2
Fore
SplineSet
60 120 m 2,0,-1
 60 370 l 2,1,2
 60 490 60 490 210 490 c 2,3,-1
 450 490 l 2,4,5
 600 490 600 490 600 370 c 2,6,-1
 600 200 l 1,7,-1
 240 200 l 1,8,-1
 240 125 l 2,9,10
 240 105 240 105 265 105 c 2,11,-1
 580 105 l 1,12,-1
 580 0 l 1,13,-1
 210 0 l 2,14,15
 60 0 60 0 60 120 c 2,0,-1
155 710 m 1,16,-1
 315 710 l 1,17,-1
 425 550 l 1,18,-1
 295 550 l 1,19,-1
 155 710 l 1,16,-1
240 305 m 1,20,-1
 420 305 l 1,21,-1
 420 365 l 2,22,23
 420 385 420 385 395 385 c 2,24,-1
 265 385 l 2,25,26
 240 385 240 385 240 365 c 2,27,-1
 240 305 l 1,20,-1
EndSplineSet
Validated: 1
EndChar

StartChar: eacute
Encoding: 233 233 168
Width: 660
GlyphClass: 1
Flags: W
LayerCount: 2
Fore
SplineSet
60 120 m 2,0,-1
 60 370 l 2,1,2
 60 490 60 490 210 490 c 2,3,-1
 450 490 l 2,4,5
 600 490 600 490 600 370 c 2,6,-1
 600 200 l 1,7,-1
 240 200 l 1,8,-1
 240 125 l 2,9,10
 240 105 240 105 265 105 c 2,11,-1
 580 105 l 1,12,-1
 580 0 l 1,13,-1
 210 0 l 2,14,15
 60 0 60 0 60 120 c 2,0,-1
235 550 m 1,16,-1
 345 710 l 1,17,-1
 505 710 l 1,18,-1
 365 550 l 1,19,-1
 235 550 l 1,16,-1
240 305 m 1,20,-1
 420 305 l 1,21,-1
 420 365 l 2,22,23
 420 385 420 385 395 385 c 2,24,-1
 265 385 l 2,25,26
 240 385 240 385 240 365 c 2,27,-1
 240 305 l 1,20,-1
EndSplineSet
Validated: 1
EndChar

StartChar: ecircumflex
Encoding: 234 234 169
Width: 660
GlyphClass: 1
Flags: W
LayerCount: 2
Fore
SplineSet
60 120 m 2,0,-1
 60 370 l 2,1,2
 60 490 60 490 210 490 c 2,3,-1
 450 490 l 2,4,5
 600 490 600 490 600 370 c 2,6,-1
 600 200 l 1,7,-1
 240 200 l 1,8,-1
 240 125 l 2,9,10
 240 105 240 105 265 105 c 2,11,-1
 580 105 l 1,12,-1
 580 0 l 1,13,-1
 210 0 l 2,14,15
 60 0 60 0 60 120 c 2,0,-1
140 550 m 1,16,-1
 265 710 l 1,17,-1
 395 710 l 1,18,-1
 520 550 l 1,19,-1
 393 550 l 1,20,-1
 330 625 l 1,21,-1
 267 550 l 1,22,-1
 140 550 l 1,16,-1
240 305 m 1,23,-1
 420 305 l 1,24,-1
 420 365 l 2,25,26
 420 385 420 385 395 385 c 2,27,-1
 265 385 l 2,28,29
 240 385 240 385 240 365 c 2,30,-1
 240 305 l 1,23,-1
EndSplineSet
Validated: 1
EndChar

StartChar: edieresis
Encoding: 235 235 170
Width: 660
GlyphClass: 1
Flags: W
LayerCount: 2
Fore
SplineSet
60 120 m 2,0,-1
 60 370 l 2,1,2
 60 490 60 490 210 490 c 2,3,-1
 450 490 l 2,4,5
 600 490 600 490 600 370 c 2,6,-1
 600 200 l 1,7,-1
 240 200 l 1,8,-1
 240 125 l 2,9,10
 240 105 240 105 265 105 c 2,11,-1
 580 105 l 1,12,-1
 580 0 l 1,13,-1
 210 0 l 2,14,15
 60 0 60 0 60 120 c 2,0,-1
145 570 m 1,16,-1
 145 690 l 1,17,-1
 285 690 l 1,18,-1
 285 570 l 1,19,-1
 145 570 l 1,16,-1
240 305 m 1,20,-1
 420 305 l 1,21,-1
 420 365 l 2,22,23
 420 385 420 385 395 385 c 2,24,-1
 265 385 l 2,25,26
 240 385 240 385 240 365 c 2,27,-1
 240 305 l 1,20,-1
375 570 m 1,28,-1
 375 690 l 1,29,-1
 515 690 l 1,30,-1
 515 570 l 1,31,-1
 375 570 l 1,28,-1
EndSplineSet
Validated: 1
EndChar

StartChar: igrave
Encoding: 236 236 171
Width: 300
GlyphClass: 1
Flags: W
LayerCount: 2
Fore
SplineSet
-20 710 m 1,0,-1
 140 710 l 1,1,-1
 250 550 l 1,2,-1
 120 550 l 1,3,-1
 -20 710 l 1,0,-1
60 0 m 1,4,-1
 60 490 l 1,5,-1
 240 490 l 1,6,-1
 240 0 l 1,7,-1
 60 0 l 1,4,-1
EndSplineSet
Validated: 1
EndChar

StartChar: iacute
Encoding: 237 237 172
Width: 300
GlyphClass: 1
Flags: W
LayerCount: 2
Fore
SplineSet
50 550 m 1,0,-1
 160 710 l 1,1,-1
 320 710 l 1,2,-1
 180 550 l 1,3,-1
 50 550 l 1,0,-1
60 0 m 1,4,-1
 60 490 l 1,5,-1
 240 490 l 1,6,-1
 240 0 l 1,7,-1
 60 0 l 1,4,-1
EndSplineSet
Validated: 1
EndChar

StartChar: icircumflex
Encoding: 238 238 173
Width: 320
GlyphClass: 1
Flags: W
LayerCount: 2
Fore
SplineSet
-30 550 m 1,0,-1
 95 710 l 1,1,-1
 225 710 l 1,2,-1
 350 550 l 1,3,-1
 223 550 l 1,4,-1
 160 625 l 1,5,-1
 97 550 l 1,6,-1
 -30 550 l 1,0,-1
70 0 m 1,7,-1
 70 490 l 1,8,-1
 250 490 l 1,9,-1
 250 0 l 1,10,-1
 70 0 l 1,7,-1
EndSplineSet
Validated: 1
EndChar

StartChar: idieresis
Encoding: 239 239 174
Width: 320
GlyphClass: 1
Flags: W
LayerCount: 2
Fore
SplineSet
-25 570 m 1,0,-1
 -25 690 l 1,1,-1
 115 690 l 1,2,-1
 115 570 l 1,3,-1
 -25 570 l 1,0,-1
70 0 m 1,4,-1
 70 490 l 1,5,-1
 250 490 l 1,6,-1
 250 0 l 1,7,-1
 70 0 l 1,4,-1
205 570 m 1,8,-1
 205 690 l 1,9,-1
 345 690 l 1,10,-1
 345 570 l 1,11,-1
 205 570 l 1,8,-1
EndSplineSet
Validated: 1
EndChar

StartChar: eth
Encoding: 240 240 175
Width: 680
GlyphClass: 1
Flags: W
LayerCount: 2
Fore
SplineSet
60 120 m 2,0,-1
 60 310 l 2,1,2
 60 430 60 430 210 430 c 2,3,-1
 412 430 l 1,4,-1
 378 498 l 1,5,-1
 262 464 l 1,6,-1
 239 543 l 1,7,-1
 340 573 l 1,8,-1
 297 660 l 1,9,-1
 475 660 l 1,10,-1
 495 619 l 1,11,-1
 597 649 l 1,12,-1
 620 570 l 1,13,-1
 533 544 l 1,14,-1
 580 450 l 2,15,16
 603 404 603 404 611.5 376.5 c 128,-1,17
 620 349 620 349 620 310 c 2,18,-1
 620 120 l 2,19,20
 620 0 620 0 470 0 c 2,21,-1
 210 0 l 2,22,23
 60 0 60 0 60 120 c 2,0,-1
240 125 m 2,24,25
 240 105 240 105 265 105 c 2,26,-1
 415 105 l 2,27,28
 440 105 440 105 440 125 c 2,29,-1
 440 325 l 1,30,-1
 265 325 l 2,31,32
 240 325 240 325 240 305 c 2,33,-1
 240 125 l 2,24,25
EndSplineSet
Validated: 1
EndChar

StartChar: ntilde
Encoding: 241 241 176
Width: 680
GlyphClass: 1
Flags: W
LayerCount: 2
Fore
SplineSet
60 0 m 1,0,-1
 60 490 l 1,1,-1
 470 490 l 2,2,3
 620 490 620 490 620 370 c 2,4,-1
 620 0 l 1,5,-1
 440 0 l 1,6,-1
 440 365 l 2,7,8
 440 385 440 385 415 385 c 2,9,-1
 240 385 l 1,10,-1
 240 0 l 1,11,-1
 60 0 l 1,0,-1
150 615 m 1,12,-1
 215 680 l 2,13,14
 245 710 245 710 285 710 c 128,-1,15
 325 710 325 710 355 680 c 2,16,-1
 375 660 l 2,17,18
 387 648 387 648 395 648 c 128,-1,19
 403 648 403 648 415 660 c 2,20,-1
 465 710 l 1,21,-1
 530 645 l 1,22,-1
 465 580 l 2,23,24
 435 550 435 550 395 550 c 128,-1,25
 355 550 355 550 325 580 c 2,26,-1
 305 600 l 2,27,28
 293 612 293 612 285 612 c 128,-1,29
 277 612 277 612 265 600 c 2,30,-1
 215 550 l 1,31,-1
 150 615 l 1,12,-1
EndSplineSet
Validated: 1
EndChar

StartChar: ograve
Encoding: 242 242 177
Width: 680
GlyphClass: 1
Flags: W
LayerCount: 2
Fore
SplineSet
60 120 m 2,0,-1
 60 370 l 2,1,2
 60 490 60 490 210 490 c 2,3,-1
 470 490 l 2,4,5
 620 490 620 490 620 370 c 2,6,-1
 620 120 l 2,7,8
 620 0 620 0 470 0 c 2,9,-1
 210 0 l 2,10,11
 60 0 60 0 60 120 c 2,0,-1
165 710 m 1,12,-1
 325 710 l 1,13,-1
 435 550 l 1,14,-1
 305 550 l 1,15,-1
 165 710 l 1,12,-1
240 125 m 2,16,17
 240 105 240 105 265 105 c 2,18,-1
 415 105 l 2,19,20
 440 105 440 105 440 125 c 2,21,-1
 440 365 l 2,22,23
 440 385 440 385 415 385 c 2,24,-1
 265 385 l 2,25,26
 240 385 240 385 240 365 c 2,27,-1
 240 125 l 2,16,17
EndSplineSet
Validated: 1
EndChar

StartChar: oacute
Encoding: 243 243 178
Width: 680
GlyphClass: 1
Flags: W
LayerCount: 2
Fore
SplineSet
60 120 m 2,0,-1
 60 370 l 2,1,2
 60 490 60 490 210 490 c 2,3,-1
 470 490 l 2,4,5
 620 490 620 490 620 370 c 2,6,-1
 620 120 l 2,7,8
 620 0 620 0 470 0 c 2,9,-1
 210 0 l 2,10,11
 60 0 60 0 60 120 c 2,0,-1
240 125 m 2,12,13
 240 105 240 105 265 105 c 2,14,-1
 415 105 l 2,15,16
 440 105 440 105 440 125 c 2,17,-1
 440 365 l 2,18,19
 440 385 440 385 415 385 c 2,20,-1
 265 385 l 2,21,22
 240 385 240 385 240 365 c 2,23,-1
 240 125 l 2,12,13
245 550 m 1,24,-1
 355 710 l 1,25,-1
 515 710 l 1,26,-1
 375 550 l 1,27,-1
 245 550 l 1,24,-1
EndSplineSet
Validated: 1
EndChar

StartChar: ocircumflex
Encoding: 244 244 179
Width: 680
GlyphClass: 1
Flags: W
LayerCount: 2
Fore
SplineSet
60 120 m 2,0,-1
 60 370 l 2,1,2
 60 490 60 490 210 490 c 2,3,-1
 470 490 l 2,4,5
 620 490 620 490 620 370 c 2,6,-1
 620 120 l 2,7,8
 620 0 620 0 470 0 c 2,9,-1
 210 0 l 2,10,11
 60 0 60 0 60 120 c 2,0,-1
150 550 m 1,12,-1
 275 710 l 1,13,-1
 405 710 l 1,14,-1
 530 550 l 1,15,-1
 403 550 l 1,16,-1
 340 625 l 1,17,-1
 277 550 l 1,18,-1
 150 550 l 1,12,-1
240 125 m 2,19,20
 240 105 240 105 265 105 c 2,21,-1
 415 105 l 2,22,23
 440 105 440 105 440 125 c 2,24,-1
 440 365 l 2,25,26
 440 385 440 385 415 385 c 2,27,-1
 265 385 l 2,28,29
 240 385 240 385 240 365 c 2,30,-1
 240 125 l 2,19,20
EndSplineSet
Validated: 1
EndChar

StartChar: otilde
Encoding: 245 245 180
Width: 680
GlyphClass: 1
Flags: W
LayerCount: 2
Fore
SplineSet
60 120 m 2,0,-1
 60 370 l 2,1,2
 60 490 60 490 210 490 c 2,3,-1
 470 490 l 2,4,5
 620 490 620 490 620 370 c 2,6,-1
 620 120 l 2,7,8
 620 0 620 0 470 0 c 2,9,-1
 210 0 l 2,10,11
 60 0 60 0 60 120 c 2,0,-1
150 615 m 1,12,-1
 215 680 l 2,13,14
 245 710 245 710 285 710 c 128,-1,15
 325 710 325 710 355 680 c 2,16,-1
 375 660 l 2,17,18
 387 648 387 648 395 648 c 128,-1,19
 403 648 403 648 415 660 c 2,20,-1
 465 710 l 1,21,-1
 530 645 l 1,22,-1
 465 580 l 2,23,24
 435 550 435 550 395 550 c 128,-1,25
 355 550 355 550 325 580 c 2,26,-1
 305 600 l 2,27,28
 293 612 293 612 285 612 c 128,-1,29
 277 612 277 612 265 600 c 2,30,-1
 215 550 l 1,31,-1
 150 615 l 1,12,-1
240 125 m 2,32,33
 240 105 240 105 265 105 c 2,34,-1
 415 105 l 2,35,36
 440 105 440 105 440 125 c 2,37,-1
 440 365 l 2,38,39
 440 385 440 385 415 385 c 2,40,-1
 265 385 l 2,41,42
 240 385 240 385 240 365 c 2,43,-1
 240 125 l 2,32,33
EndSplineSet
Validated: 1
EndChar

StartChar: odieresis
Encoding: 246 246 181
Width: 680
GlyphClass: 1
Flags: W
LayerCount: 2
Fore
SplineSet
60 120 m 2,0,-1
 60 370 l 2,1,2
 60 490 60 490 210 490 c 2,3,-1
 470 490 l 2,4,5
 620 490 620 490 620 370 c 2,6,-1
 620 120 l 2,7,8
 620 0 620 0 470 0 c 2,9,-1
 210 0 l 2,10,11
 60 0 60 0 60 120 c 2,0,-1
155 570 m 1,12,-1
 155 690 l 1,13,-1
 295 690 l 1,14,-1
 295 570 l 1,15,-1
 155 570 l 1,12,-1
240 125 m 2,16,17
 240 105 240 105 265 105 c 2,18,-1
 415 105 l 2,19,20
 440 105 440 105 440 125 c 2,21,-1
 440 365 l 2,22,23
 440 385 440 385 415 385 c 2,24,-1
 265 385 l 2,25,26
 240 385 240 385 240 365 c 2,27,-1
 240 125 l 2,16,17
385 570 m 1,28,-1
 385 690 l 1,29,-1
 525 690 l 1,30,-1
 525 570 l 1,31,-1
 385 570 l 1,28,-1
EndSplineSet
Validated: 1
EndChar

StartChar: divide
Encoding: 247 247 182
Width: 740
GlyphClass: 1
Flags: W
LayerCount: 2
Fore
SplineSet
85 225 m 1,0,-1
 85 345 l 1,1,-1
 655 345 l 1,2,-1
 655 225 l 1,3,-1
 85 225 l 1,0,-1
290 30 m 1,4,-1
 290 155 l 1,5,-1
 450 155 l 1,6,-1
 450 30 l 1,7,-1
 290 30 l 1,4,-1
290 415 m 1,8,-1
 290 540 l 1,9,-1
 450 540 l 1,10,-1
 450 415 l 1,11,-1
 290 415 l 1,8,-1
EndSplineSet
Validated: 1
EndChar

StartChar: oslash
Encoding: 248 248 183
Width: 680
GlyphClass: 1
Flags: W
LayerCount: 2
Fore
SplineSet
60 120 m 2,0,-1
 60 370 l 2,1,2
 60 490 60 490 210 490 c 2,3,-1
 470 490 l 2,4,5
 620 490 620 490 620 370 c 2,6,-1
 620 120 l 2,7,8
 620 0 620 0 470 0 c 2,9,-1
 210 0 l 2,10,11
 60 0 60 0 60 120 c 2,0,-1
240 216 m 1,12,-1
 414 385 l 1,13,-1
 265 385 l 2,14,15
 240 385 240 385 240 365 c 2,16,-1
 240 216 l 1,12,-1
266 105 m 1,17,-1
 415 105 l 2,18,19
 440 105 440 105 440 125 c 2,20,-1
 440 274 l 1,21,-1
 266 105 l 1,17,-1
EndSplineSet
Validated: 1
EndChar

StartChar: ugrave
Encoding: 249 249 184
Width: 680
GlyphClass: 1
Flags: W
LayerCount: 2
Fore
SplineSet
60 120 m 2,0,-1
 60 490 l 1,1,-1
 240 490 l 1,2,-1
 240 125 l 2,3,4
 240 105 240 105 265 105 c 2,5,-1
 440 105 l 1,6,-1
 440 490 l 1,7,-1
 620 490 l 1,8,-1
 620 0 l 1,9,-1
 210 0 l 2,10,11
 60 0 60 0 60 120 c 2,0,-1
165 710 m 1,12,-1
 325 710 l 1,13,-1
 435 550 l 1,14,-1
 305 550 l 1,15,-1
 165 710 l 1,12,-1
EndSplineSet
Validated: 1
EndChar

StartChar: uacute
Encoding: 250 250 185
Width: 680
GlyphClass: 1
Flags: W
LayerCount: 2
Fore
SplineSet
60 120 m 2,0,-1
 60 490 l 1,1,-1
 240 490 l 1,2,-1
 240 125 l 2,3,4
 240 105 240 105 265 105 c 2,5,-1
 440 105 l 1,6,-1
 440 490 l 1,7,-1
 620 490 l 1,8,-1
 620 0 l 1,9,-1
 210 0 l 2,10,11
 60 0 60 0 60 120 c 2,0,-1
245 550 m 1,12,-1
 355 710 l 1,13,-1
 515 710 l 1,14,-1
 375 550 l 1,15,-1
 245 550 l 1,12,-1
EndSplineSet
Validated: 1
EndChar

StartChar: ucircumflex
Encoding: 251 251 186
Width: 680
GlyphClass: 1
Flags: W
LayerCount: 2
Fore
SplineSet
60 120 m 2,0,-1
 60 490 l 1,1,-1
 240 490 l 1,2,-1
 240 125 l 2,3,4
 240 105 240 105 265 105 c 2,5,-1
 440 105 l 1,6,-1
 440 490 l 1,7,-1
 620 490 l 1,8,-1
 620 0 l 1,9,-1
 210 0 l 2,10,11
 60 0 60 0 60 120 c 2,0,-1
150 550 m 1,12,-1
 275 710 l 1,13,-1
 405 710 l 1,14,-1
 530 550 l 1,15,-1
 403 550 l 1,16,-1
 340 625 l 1,17,-1
 277 550 l 1,18,-1
 150 550 l 1,12,-1
EndSplineSet
Validated: 1
EndChar

StartChar: udieresis
Encoding: 252 252 187
Width: 680
GlyphClass: 1
Flags: W
LayerCount: 2
Fore
SplineSet
60 120 m 2,0,-1
 60 490 l 1,1,-1
 240 490 l 1,2,-1
 240 125 l 2,3,4
 240 105 240 105 265 105 c 2,5,-1
 440 105 l 1,6,-1
 440 490 l 1,7,-1
 620 490 l 1,8,-1
 620 0 l 1,9,-1
 210 0 l 2,10,11
 60 0 60 0 60 120 c 2,0,-1
155 570 m 1,12,-1
 155 690 l 1,13,-1
 295 690 l 1,14,-1
 295 570 l 1,15,-1
 155 570 l 1,12,-1
385 570 m 1,16,-1
 385 690 l 1,17,-1
 525 690 l 1,18,-1
 525 570 l 1,19,-1
 385 570 l 1,16,-1
EndSplineSet
Validated: 1
EndChar

StartChar: yacute
Encoding: 253 253 188
Width: 680
GlyphClass: 1
Flags: W
LayerCount: 2
Fore
SplineSet
10 490 m 1,0,-1
 188 490 l 1,1,-1
 340 158 l 1,2,-1
 492 490 l 1,3,-1
 670 490 l 1,4,-1
 350 -210 l 1,5,-1
 172 -210 l 1,6,-1
 251 -37 l 1,7,-1
 10 490 l 1,0,-1
245 550 m 1,8,-1
 355 710 l 1,9,-1
 515 710 l 1,10,-1
 375 550 l 1,11,-1
 245 550 l 1,8,-1
EndSplineSet
Validated: 1
EndChar

StartChar: thorn
Encoding: 254 254 189
Width: 680
GlyphClass: 1
Flags: W
LayerCount: 2
Fore
SplineSet
60 -210 m 1,0,-1
 60 660 l 1,1,-1
 240 660 l 1,2,-1
 240 490 l 1,3,-1
 470 490 l 2,4,5
 620 490 620 490 620 370 c 2,6,-1
 620 120 l 2,7,8
 620 0 620 0 470 0 c 2,9,-1
 240 0 l 1,10,-1
 240 -210 l 1,11,-1
 60 -210 l 1,0,-1
240 105 m 1,12,-1
 415 105 l 2,13,14
 440 105 440 105 440 125 c 2,15,-1
 440 365 l 2,16,17
 440 385 440 385 415 385 c 2,18,-1
 240 385 l 1,19,-1
 240 105 l 1,12,-1
EndSplineSet
Validated: 1
EndChar

StartChar: ydieresis
Encoding: 255 255 190
Width: 680
GlyphClass: 1
Flags: W
LayerCount: 2
Fore
SplineSet
10 490 m 1,0,-1
 188 490 l 1,1,-1
 340 158 l 1,2,-1
 492 490 l 1,3,-1
 670 490 l 1,4,-1
 350 -210 l 1,5,-1
 172 -210 l 1,6,-1
 251 -37 l 1,7,-1
 10 490 l 1,0,-1
155 570 m 1,8,-1
 155 690 l 1,9,-1
 295 690 l 1,10,-1
 295 570 l 1,11,-1
 155 570 l 1,8,-1
385 570 m 1,12,-1
 385 690 l 1,13,-1
 525 690 l 1,14,-1
 525 570 l 1,15,-1
 385 570 l 1,12,-1
EndSplineSet
Validated: 1
EndChar

StartChar: Amacron
Encoding: 256 256 191
Width: 830
GlyphClass: 1
Flags: W
LayerCount: 2
Fore
SplineSet
5 0 m 1,0,-1
 290 660 l 1,1,-1
 540 660 l 1,2,-1
 825 0 l 1,3,-1
 629 0 l 1,4,-1
 569 140 l 1,5,-1
 261 140 l 1,6,-1
 201 0 l 1,7,-1
 5 0 l 1,0,-1
240 750 m 1,8,-1
 240 845 l 1,9,-1
 590 845 l 1,10,-1
 590 750 l 1,11,-1
 240 750 l 1,8,-1
313 260 m 1,12,-1
 517 260 l 1,13,-1
 415 495 l 1,14,-1
 313 260 l 1,12,-1
EndSplineSet
Validated: 1
EndChar

StartChar: amacron
Encoding: 257 257 192
Width: 650
GlyphClass: 1
Flags: W
LayerCount: 2
Fore
SplineSet
50 120 m 2,0,-1
 50 185 l 2,1,2
 50 305 50 305 200 305 c 2,3,-1
 410 305 l 1,4,-1
 410 365 l 2,5,6
 410 385 410 385 385 385 c 2,7,-1
 90 385 l 1,8,-1
 90 490 l 1,9,-1
 440 490 l 2,10,11
 590 490 590 490 590 370 c 2,12,-1
 590 0 l 1,13,-1
 200 0 l 2,14,15
 50 0 50 0 50 120 c 2,0,-1
150 580 m 1,16,-1
 150 675 l 1,17,-1
 500 675 l 1,18,-1
 500 580 l 1,19,-1
 150 580 l 1,16,-1
230 125 m 2,20,21
 230 105 230 105 255 105 c 2,22,-1
 410 105 l 1,23,-1
 410 200 l 1,24,-1
 255 200 l 2,25,26
 230 200 230 200 230 180 c 2,27,-1
 230 125 l 2,20,21
EndSplineSet
Validated: 1
EndChar

StartChar: Abreve
Encoding: 258 258 193
Width: 830
GlyphClass: 1
Flags: W
LayerCount: 2
Fore
SplineSet
5 0 m 1,0,-1
 290 660 l 1,1,-1
 540 660 l 1,2,-1
 825 0 l 1,3,-1
 629 0 l 1,4,-1
 569 140 l 1,5,-1
 261 140 l 1,6,-1
 201 0 l 1,7,-1
 5 0 l 1,0,-1
260 792 m 2,8,-1
 260 880 l 1,9,-1
 360 880 l 1,10,-1
 360 797 l 2,11,12
 360 785 360 785 375 785 c 2,13,-1
 455 785 l 2,14,15
 470 785 470 785 470 797 c 2,16,-1
 470 880 l 1,17,-1
 570 880 l 1,18,-1
 570 792 l 2,19,20
 570 720 570 720 480 720 c 2,21,-1
 350 720 l 2,22,23
 260 720 260 720 260 792 c 2,8,-1
313 260 m 1,24,-1
 517 260 l 1,25,-1
 415 495 l 1,26,-1
 313 260 l 1,24,-1
EndSplineSet
Validated: 1
EndChar

StartChar: abreve
Encoding: 259 259 194
Width: 650
GlyphClass: 1
Flags: W
LayerCount: 2
Fore
SplineSet
50 120 m 2,0,-1
 50 185 l 2,1,2
 50 305 50 305 200 305 c 2,3,-1
 410 305 l 1,4,-1
 410 365 l 2,5,6
 410 385 410 385 385 385 c 2,7,-1
 90 385 l 1,8,-1
 90 490 l 1,9,-1
 440 490 l 2,10,11
 590 490 590 490 590 370 c 2,12,-1
 590 0 l 1,13,-1
 200 0 l 2,14,15
 50 0 50 0 50 120 c 2,0,-1
170 622 m 2,16,-1
 170 710 l 1,17,-1
 270 710 l 1,18,-1
 270 627 l 2,19,20
 270 615 270 615 285 615 c 2,21,-1
 365 615 l 2,22,23
 380 615 380 615 380 627 c 2,24,-1
 380 710 l 1,25,-1
 480 710 l 1,26,-1
 480 622 l 2,27,28
 480 550 480 550 390 550 c 2,29,-1
 260 550 l 2,30,31
 170 550 170 550 170 622 c 2,16,-1
230 125 m 2,32,33
 230 105 230 105 255 105 c 2,34,-1
 410 105 l 1,35,-1
 410 200 l 1,36,-1
 255 200 l 2,37,38
 230 200 230 200 230 180 c 2,39,-1
 230 125 l 2,32,33
EndSplineSet
Validated: 1
EndChar

StartChar: Aogonek
Encoding: 260 260 195
Width: 830
GlyphClass: 1
Flags: W
LayerCount: 2
Fore
SplineSet
5 0 m 1,0,-1
 290 660 l 1,1,-1
 540 660 l 1,2,-1
 825 0 l 1,3,-1
 745 0 l 2,4,5
 705 0 705 0 705 -32 c 2,6,-1
 705 -78 l 2,7,8
 705 -110 705 -110 745 -110 c 2,9,-1
 825 -110 l 1,10,-1
 825 -185 l 1,11,-1
 700 -185 l 2,12,13
 575 -185 575 -185 575 -85 c 2,14,-1
 575 0 l 2,15,16
 575 34 575 34 605 56 c 1,17,-1
 569 140 l 1,18,-1
 261 140 l 1,19,-1
 201 0 l 1,20,-1
 5 0 l 1,0,-1
313 260 m 1,21,-1
 517 260 l 1,22,-1
 415 495 l 1,23,-1
 313 260 l 1,21,-1
EndSplineSet
Validated: 1
EndChar

StartChar: aogonek
Encoding: 261 261 196
Width: 650
GlyphClass: 1
Flags: W
LayerCount: 2
Fore
SplineSet
50 120 m 2,0,-1
 50 185 l 2,1,2
 50 305 50 305 200 305 c 2,3,-1
 410 305 l 1,4,-1
 410 365 l 2,5,6
 410 385 410 385 385 385 c 2,7,-1
 90 385 l 1,8,-1
 90 490 l 1,9,-1
 440 490 l 2,10,11
 590 490 590 490 590 370 c 2,12,-1
 590 0 l 1,13,-1
 510 0 l 2,14,15
 470 0 470 0 470 -32 c 2,16,-1
 470 -78 l 2,17,18
 470 -110 470 -110 510 -110 c 2,19,-1
 590 -110 l 1,20,-1
 590 -185 l 1,21,-1
 465 -185 l 2,22,23
 340 -185 340 -185 340 -85 c 2,24,-1
 340 0 l 1,25,-1
 200 0 l 2,26,27
 50 0 50 0 50 120 c 2,0,-1
230 125 m 2,28,29
 230 105 230 105 255 105 c 2,30,-1
 410 105 l 1,31,-1
 410 200 l 1,32,-1
 255 200 l 2,33,34
 230 200 230 200 230 180 c 2,35,-1
 230 125 l 2,28,29
EndSplineSet
Validated: 1
EndChar

StartChar: Cacute
Encoding: 262 262 197
Width: 760
GlyphClass: 1
Flags: W
LayerCount: 2
Fore
SplineSet
70 136 m 2,0,-1
 70 524 l 2,1,2
 70 660 70 660 240 660 c 2,3,-1
 710 660 l 1,4,-1
 710 540 l 1,5,-1
 305 540 l 2,6,7
 270 540 270 540 270 512 c 2,8,-1
 270 148 l 2,9,10
 270 120 270 120 305 120 c 2,11,-1
 710 120 l 1,12,-1
 710 0 l 1,13,-1
 240 0 l 2,14,15
 70 0 70 0 70 136 c 2,0,-1
315 720 m 1,16,-1
 425 880 l 1,17,-1
 585 880 l 1,18,-1
 445 720 l 1,19,-1
 315 720 l 1,16,-1
EndSplineSet
Validated: 1
EndChar

StartChar: cacute
Encoding: 263 263 198
Width: 610
GlyphClass: 1
Flags: W
LayerCount: 2
Fore
SplineSet
60 120 m 2,0,-1
 60 370 l 2,1,2
 60 490 60 490 210 490 c 2,3,-1
 570 490 l 1,4,-1
 570 385 l 1,5,-1
 265 385 l 2,6,7
 240 385 240 385 240 365 c 2,8,-1
 240 125 l 2,9,10
 240 105 240 105 265 105 c 2,11,-1
 570 105 l 1,12,-1
 570 0 l 1,13,-1
 210 0 l 2,14,15
 60 0 60 0 60 120 c 2,0,-1
235 550 m 1,16,-1
 345 710 l 1,17,-1
 505 710 l 1,18,-1
 365 550 l 1,19,-1
 235 550 l 1,16,-1
EndSplineSet
Validated: 1
EndChar

StartChar: Ccircumflex
Encoding: 264 264 199
Width: 760
GlyphClass: 1
Flags: W
LayerCount: 2
Fore
SplineSet
70 136 m 2,0,-1
 70 524 l 2,1,2
 70 660 70 660 240 660 c 2,3,-1
 710 660 l 1,4,-1
 710 540 l 1,5,-1
 305 540 l 2,6,7
 270 540 270 540 270 512 c 2,8,-1
 270 148 l 2,9,10
 270 120 270 120 305 120 c 2,11,-1
 710 120 l 1,12,-1
 710 0 l 1,13,-1
 240 0 l 2,14,15
 70 0 70 0 70 136 c 2,0,-1
215 720 m 1,16,-1
 340 880 l 1,17,-1
 470 880 l 1,18,-1
 595 720 l 1,19,-1
 468 720 l 1,20,-1
 405 795 l 1,21,-1
 342 720 l 1,22,-1
 215 720 l 1,16,-1
EndSplineSet
Validated: 1
EndChar

StartChar: ccircumflex
Encoding: 265 265 200
Width: 610
GlyphClass: 1
Flags: W
LayerCount: 2
Fore
SplineSet
60 120 m 2,0,-1
 60 370 l 2,1,2
 60 490 60 490 210 490 c 2,3,-1
 570 490 l 1,4,-1
 570 385 l 1,5,-1
 265 385 l 2,6,7
 240 385 240 385 240 365 c 2,8,-1
 240 125 l 2,9,10
 240 105 240 105 265 105 c 2,11,-1
 570 105 l 1,12,-1
 570 0 l 1,13,-1
 210 0 l 2,14,15
 60 0 60 0 60 120 c 2,0,-1
135 550 m 1,16,-1
 260 710 l 1,17,-1
 390 710 l 1,18,-1
 515 550 l 1,19,-1
 388 550 l 1,20,-1
 325 625 l 1,21,-1
 262 550 l 1,22,-1
 135 550 l 1,16,-1
EndSplineSet
Validated: 1
EndChar

StartChar: Cdotaccent
Encoding: 266 266 201
Width: 760
GlyphClass: 1
Flags: W
LayerCount: 2
Fore
SplineSet
70 136 m 2,0,-1
 70 524 l 2,1,2
 70 660 70 660 240 660 c 2,3,-1
 710 660 l 1,4,-1
 710 540 l 1,5,-1
 305 540 l 2,6,7
 270 540 270 540 270 512 c 2,8,-1
 270 148 l 2,9,10
 270 120 270 120 305 120 c 2,11,-1
 710 120 l 1,12,-1
 710 0 l 1,13,-1
 240 0 l 2,14,15
 70 0 70 0 70 136 c 2,0,-1
325 740 m 1,16,-1
 325 860 l 1,17,-1
 485 860 l 1,18,-1
 485 740 l 1,19,-1
 325 740 l 1,16,-1
EndSplineSet
Validated: 1
EndChar

StartChar: cdotaccent
Encoding: 267 267 202
Width: 610
GlyphClass: 1
Flags: W
LayerCount: 2
Fore
SplineSet
60 120 m 2,0,-1
 60 370 l 2,1,2
 60 490 60 490 210 490 c 2,3,-1
 570 490 l 1,4,-1
 570 385 l 1,5,-1
 265 385 l 2,6,7
 240 385 240 385 240 365 c 2,8,-1
 240 125 l 2,9,10
 240 105 240 105 265 105 c 2,11,-1
 570 105 l 1,12,-1
 570 0 l 1,13,-1
 210 0 l 2,14,15
 60 0 60 0 60 120 c 2,0,-1
245 570 m 1,16,-1
 245 690 l 1,17,-1
 405 690 l 1,18,-1
 405 570 l 1,19,-1
 245 570 l 1,16,-1
EndSplineSet
Validated: 1
EndChar

StartChar: Ccaron
Encoding: 268 268 203
Width: 760
GlyphClass: 1
Flags: W
LayerCount: 2
Fore
SplineSet
70 136 m 2,0,-1
 70 524 l 2,1,2
 70 660 70 660 240 660 c 2,3,-1
 710 660 l 1,4,-1
 710 540 l 1,5,-1
 305 540 l 2,6,7
 270 540 270 540 270 512 c 2,8,-1
 270 148 l 2,9,10
 270 120 270 120 305 120 c 2,11,-1
 710 120 l 1,12,-1
 710 0 l 1,13,-1
 240 0 l 2,14,15
 70 0 70 0 70 136 c 2,0,-1
215 880 m 1,16,-1
 342 880 l 1,17,-1
 405 805 l 1,18,-1
 468 880 l 1,19,-1
 595 880 l 1,20,-1
 470 720 l 1,21,-1
 340 720 l 1,22,-1
 215 880 l 1,16,-1
EndSplineSet
Validated: 1
EndChar

StartChar: ccaron
Encoding: 269 269 204
Width: 610
GlyphClass: 1
Flags: W
LayerCount: 2
Fore
SplineSet
60 120 m 2,0,-1
 60 370 l 2,1,2
 60 490 60 490 210 490 c 2,3,-1
 570 490 l 1,4,-1
 570 385 l 1,5,-1
 265 385 l 2,6,7
 240 385 240 385 240 365 c 2,8,-1
 240 125 l 2,9,10
 240 105 240 105 265 105 c 2,11,-1
 570 105 l 1,12,-1
 570 0 l 1,13,-1
 210 0 l 2,14,15
 60 0 60 0 60 120 c 2,0,-1
135 710 m 1,16,-1
 262 710 l 1,17,-1
 325 635 l 1,18,-1
 388 710 l 1,19,-1
 515 710 l 1,20,-1
 390 550 l 1,21,-1
 260 550 l 1,22,-1
 135 710 l 1,16,-1
EndSplineSet
Validated: 1
EndChar

StartChar: Dcaron
Encoding: 270 270 205
Width: 820
GlyphClass: 1
Flags: W
LayerCount: 2
Fore
SplineSet
70 0 m 1,0,-1
 70 660 l 1,1,-1
 420 660 l 2,2,3
 760 660 760 660 760 388 c 2,4,-1
 760 272 l 2,5,6
 760 0 760 0 420 0 c 2,7,-1
 70 0 l 1,0,-1
205 880 m 1,8,-1
 332 880 l 1,9,-1
 395 805 l 1,10,-1
 458 880 l 1,11,-1
 585 880 l 1,12,-1
 460 720 l 1,13,-1
 330 720 l 1,14,-1
 205 880 l 1,8,-1
270 120 m 1,15,-1
 380 120 l 2,16,17
 560 120 560 120 560 264 c 2,18,-1
 560 396 l 2,19,20
 560 540 560 540 380 540 c 2,21,-1
 270 540 l 1,22,-1
 270 120 l 1,15,-1
EndSplineSet
Validated: 1
EndChar

StartChar: dcaron
Encoding: 271 271 206
Width: 820
GlyphClass: 1
Flags: W
LayerCount: 2
Fore
SplineSet
60 120 m 2,0,-1
 60 370 l 2,1,2
 60 490 60 490 210 490 c 2,3,-1
 440 490 l 1,4,-1
 440 660 l 1,5,-1
 620 660 l 1,6,-1
 620 0 l 1,7,-1
 210 0 l 2,8,9
 60 0 60 0 60 120 c 2,0,-1
240 125 m 2,10,11
 240 105 240 105 265 105 c 2,12,-1
 440 105 l 1,13,-1
 440 385 l 1,14,-1
 265 385 l 2,15,16
 240 385 240 385 240 365 c 2,17,-1
 240 125 l 2,10,11
660 500 m 1,18,-1
 695 660 l 1,19,-1
 835 660 l 1,20,-1
 770 500 l 1,21,-1
 660 500 l 1,18,-1
EndSplineSet
Validated: 1
EndChar

StartChar: Dcroat
Encoding: 272 272 207
Width: 840
GlyphClass: 1
Flags: W
LayerCount: 2
Fore
SplineSet
10 295 m 1,0,-1
 10 395 l 1,1,-1
 90 395 l 1,2,-1
 90 660 l 1,3,-1
 440 660 l 2,4,5
 780 660 780 660 780 388 c 2,6,-1
 780 272 l 2,7,8
 780 0 780 0 440 0 c 2,9,-1
 90 0 l 1,10,-1
 90 295 l 1,11,-1
 10 295 l 1,0,-1
290 120 m 1,12,-1
 400 120 l 2,13,14
 580 120 580 120 580 264 c 2,15,-1
 580 396 l 2,16,17
 580 540 580 540 400 540 c 2,18,-1
 290 540 l 1,19,-1
 290 395 l 1,20,-1
 440 395 l 1,21,-1
 440 295 l 1,22,-1
 290 295 l 1,23,-1
 290 120 l 1,12,-1
EndSplineSet
Validated: 1
EndChar

StartChar: dcroat
Encoding: 273 273 208
Width: 700
GlyphClass: 1
Flags: W
LayerCount: 2
Fore
SplineSet
60 120 m 2,0,-1
 60 370 l 2,1,2
 60 490 60 490 210 490 c 2,3,-1
 440 490 l 1,4,-1
 440 535 l 1,5,-1
 260 535 l 1,6,-1
 260 615 l 1,7,-1
 440 615 l 1,8,-1
 440 660 l 1,9,-1
 620 660 l 1,10,-1
 620 615 l 1,11,-1
 690 615 l 1,12,-1
 690 535 l 1,13,-1
 620 535 l 1,14,-1
 620 0 l 1,15,-1
 210 0 l 2,16,17
 60 0 60 0 60 120 c 2,0,-1
240 125 m 2,18,19
 240 105 240 105 265 105 c 2,20,-1
 440 105 l 1,21,-1
 440 385 l 1,22,-1
 265 385 l 2,23,24
 240 385 240 385 240 365 c 2,25,-1
 240 125 l 2,18,19
EndSplineSet
Validated: 1
EndChar

StartChar: Emacron
Encoding: 274 274 209
Width: 760
GlyphClass: 1
Flags: W
LayerCount: 2
Fore
SplineSet
70 0 m 1,0,-1
 70 660 l 1,1,-1
 710 660 l 1,2,-1
 710 540 l 1,3,-1
 270 540 l 1,4,-1
 270 405 l 1,5,-1
 660 405 l 1,6,-1
 660 285 l 1,7,-1
 270 285 l 1,8,-1
 270 120 l 1,9,-1
 710 120 l 1,10,-1
 710 0 l 1,11,-1
 70 0 l 1,0,-1
215 750 m 1,12,-1
 215 845 l 1,13,-1
 565 845 l 1,14,-1
 565 750 l 1,15,-1
 215 750 l 1,12,-1
EndSplineSet
Validated: 1
EndChar

StartChar: emacron
Encoding: 275 275 210
Width: 660
GlyphClass: 1
Flags: W
LayerCount: 2
Fore
SplineSet
60 120 m 2,0,-1
 60 370 l 2,1,2
 60 490 60 490 210 490 c 2,3,-1
 450 490 l 2,4,5
 600 490 600 490 600 370 c 2,6,-1
 600 200 l 1,7,-1
 240 200 l 1,8,-1
 240 125 l 2,9,10
 240 105 240 105 265 105 c 2,11,-1
 580 105 l 1,12,-1
 580 0 l 1,13,-1
 210 0 l 2,14,15
 60 0 60 0 60 120 c 2,0,-1
155 580 m 1,16,-1
 155 675 l 1,17,-1
 505 675 l 1,18,-1
 505 580 l 1,19,-1
 155 580 l 1,16,-1
240 305 m 1,20,-1
 420 305 l 1,21,-1
 420 365 l 2,22,23
 420 385 420 385 395 385 c 2,24,-1
 265 385 l 2,25,26
 240 385 240 385 240 365 c 2,27,-1
 240 305 l 1,20,-1
EndSplineSet
Validated: 1
EndChar

StartChar: Ebreve
Encoding: 276 276 211
Width: 760
GlyphClass: 1
Flags: W
LayerCount: 2
Fore
SplineSet
70 0 m 1,0,-1
 70 660 l 1,1,-1
 710 660 l 1,2,-1
 710 540 l 1,3,-1
 270 540 l 1,4,-1
 270 405 l 1,5,-1
 660 405 l 1,6,-1
 660 285 l 1,7,-1
 270 285 l 1,8,-1
 270 120 l 1,9,-1
 710 120 l 1,10,-1
 710 0 l 1,11,-1
 70 0 l 1,0,-1
235 792 m 2,12,-1
 235 880 l 1,13,-1
 335 880 l 1,14,-1
 335 797 l 2,15,16
 335 785 335 785 350 785 c 2,17,-1
 430 785 l 2,18,19
 445 785 445 785 445 797 c 2,20,-1
 445 880 l 1,21,-1
 545 880 l 1,22,-1
 545 792 l 2,23,24
 545 720 545 720 455 720 c 2,25,-1
 325 720 l 2,26,27
 235 720 235 720 235 792 c 2,12,-1
EndSplineSet
Validated: 1
EndChar

StartChar: ebreve
Encoding: 277 277 212
Width: 660
GlyphClass: 1
Flags: W
LayerCount: 2
Fore
SplineSet
60 120 m 2,0,-1
 60 370 l 2,1,2
 60 490 60 490 210 490 c 2,3,-1
 450 490 l 2,4,5
 600 490 600 490 600 370 c 2,6,-1
 600 200 l 1,7,-1
 240 200 l 1,8,-1
 240 125 l 2,9,10
 240 105 240 105 265 105 c 2,11,-1
 580 105 l 1,12,-1
 580 0 l 1,13,-1
 210 0 l 2,14,15
 60 0 60 0 60 120 c 2,0,-1
175 622 m 2,16,-1
 175 710 l 1,17,-1
 275 710 l 1,18,-1
 275 627 l 2,19,20
 275 615 275 615 290 615 c 2,21,-1
 370 615 l 2,22,23
 385 615 385 615 385 627 c 2,24,-1
 385 710 l 1,25,-1
 485 710 l 1,26,-1
 485 622 l 2,27,28
 485 550 485 550 395 550 c 2,29,-1
 265 550 l 2,30,31
 175 550 175 550 175 622 c 2,16,-1
240 305 m 1,32,-1
 420 305 l 1,33,-1
 420 365 l 2,34,35
 420 385 420 385 395 385 c 2,36,-1
 265 385 l 2,37,38
 240 385 240 385 240 365 c 2,39,-1
 240 305 l 1,32,-1
EndSplineSet
Validated: 1
EndChar

StartChar: Edotaccent
Encoding: 278 278 213
Width: 760
GlyphClass: 1
Flags: W
LayerCount: 2
Fore
SplineSet
70 0 m 1,0,-1
 70 660 l 1,1,-1
 710 660 l 1,2,-1
 710 540 l 1,3,-1
 270 540 l 1,4,-1
 270 405 l 1,5,-1
 660 405 l 1,6,-1
 660 285 l 1,7,-1
 270 285 l 1,8,-1
 270 120 l 1,9,-1
 710 120 l 1,10,-1
 710 0 l 1,11,-1
 70 0 l 1,0,-1
310 740 m 1,12,-1
 310 860 l 1,13,-1
 470 860 l 1,14,-1
 470 740 l 1,15,-1
 310 740 l 1,12,-1
EndSplineSet
Validated: 1
EndChar

StartChar: edotaccent
Encoding: 279 279 214
Width: 660
GlyphClass: 1
Flags: W
LayerCount: 2
Fore
SplineSet
60 120 m 2,0,-1
 60 370 l 2,1,2
 60 490 60 490 210 490 c 2,3,-1
 450 490 l 2,4,5
 600 490 600 490 600 370 c 2,6,-1
 600 200 l 1,7,-1
 240 200 l 1,8,-1
 240 125 l 2,9,10
 240 105 240 105 265 105 c 2,11,-1
 580 105 l 1,12,-1
 580 0 l 1,13,-1
 210 0 l 2,14,15
 60 0 60 0 60 120 c 2,0,-1
240 305 m 1,16,-1
 420 305 l 1,17,-1
 420 365 l 2,18,19
 420 385 420 385 395 385 c 2,20,-1
 265 385 l 2,21,22
 240 385 240 385 240 365 c 2,23,-1
 240 305 l 1,16,-1
250 570 m 1,24,-1
 250 690 l 1,25,-1
 410 690 l 1,26,-1
 410 570 l 1,27,-1
 250 570 l 1,24,-1
EndSplineSet
Validated: 1
EndChar

StartChar: Eogonek
Encoding: 280 280 215
Width: 760
GlyphClass: 1
Flags: W
LayerCount: 2
Fore
SplineSet
70 0 m 1,0,-1
 70 660 l 1,1,-1
 710 660 l 1,2,-1
 710 540 l 1,3,-1
 270 540 l 1,4,-1
 270 405 l 1,5,-1
 660 405 l 1,6,-1
 660 285 l 1,7,-1
 270 285 l 1,8,-1
 270 120 l 1,9,-1
 710 120 l 1,10,-1
 710 0 l 1,11,-1
 630 0 l 2,12,13
 590 0 590 0 590 -32 c 2,14,-1
 590 -78 l 2,15,16
 590 -110 590 -110 630 -110 c 2,17,-1
 710 -110 l 1,18,-1
 710 -185 l 1,19,-1
 585 -185 l 2,20,21
 460 -185 460 -185 460 -85 c 2,22,-1
 460 0 l 1,23,-1
 70 0 l 1,0,-1
EndSplineSet
Validated: 1
EndChar

StartChar: eogonek
Encoding: 281 281 216
Width: 660
GlyphClass: 1
Flags: W
LayerCount: 2
Fore
SplineSet
60 120 m 2,0,-1
 60 370 l 2,1,2
 60 490 60 490 210 490 c 2,3,-1
 450 490 l 2,4,5
 600 490 600 490 600 370 c 2,6,-1
 600 200 l 1,7,-1
 240 200 l 1,8,-1
 240 125 l 2,9,10
 240 105 240 105 265 105 c 2,11,-1
 580 105 l 1,12,-1
 580 0 l 1,13,-1
 500 0 l 2,14,15
 460 0 460 0 460 -32 c 2,16,-1
 460 -78 l 2,17,18
 460 -110 460 -110 500 -110 c 2,19,-1
 580 -110 l 1,20,-1
 580 -185 l 1,21,-1
 455 -185 l 2,22,23
 330 -185 330 -185 330 -85 c 2,24,-1
 330 0 l 1,25,-1
 210 0 l 2,26,27
 60 0 60 0 60 120 c 2,0,-1
240 305 m 1,28,-1
 420 305 l 1,29,-1
 420 365 l 2,30,31
 420 385 420 385 395 385 c 2,32,-1
 265 385 l 2,33,34
 240 385 240 385 240 365 c 2,35,-1
 240 305 l 1,28,-1
EndSplineSet
Validated: 1
EndChar

StartChar: Ecaron
Encoding: 282 282 217
Width: 760
GlyphClass: 1
Flags: W
LayerCount: 2
Fore
SplineSet
70 0 m 1,0,-1
 70 660 l 1,1,-1
 710 660 l 1,2,-1
 710 540 l 1,3,-1
 270 540 l 1,4,-1
 270 405 l 1,5,-1
 660 405 l 1,6,-1
 660 285 l 1,7,-1
 270 285 l 1,8,-1
 270 120 l 1,9,-1
 710 120 l 1,10,-1
 710 0 l 1,11,-1
 70 0 l 1,0,-1
200 880 m 1,12,-1
 327 880 l 1,13,-1
 390 805 l 1,14,-1
 453 880 l 1,15,-1
 580 880 l 1,16,-1
 455 720 l 1,17,-1
 325 720 l 1,18,-1
 200 880 l 1,12,-1
EndSplineSet
Validated: 1
EndChar

StartChar: ecaron
Encoding: 283 283 218
Width: 660
GlyphClass: 1
Flags: W
LayerCount: 2
Fore
SplineSet
60 120 m 2,0,-1
 60 370 l 2,1,2
 60 490 60 490 210 490 c 2,3,-1
 450 490 l 2,4,5
 600 490 600 490 600 370 c 2,6,-1
 600 200 l 1,7,-1
 240 200 l 1,8,-1
 240 125 l 2,9,10
 240 105 240 105 265 105 c 2,11,-1
 580 105 l 1,12,-1
 580 0 l 1,13,-1
 210 0 l 2,14,15
 60 0 60 0 60 120 c 2,0,-1
140 710 m 1,16,-1
 267 710 l 1,17,-1
 330 635 l 1,18,-1
 393 710 l 1,19,-1
 520 710 l 1,20,-1
 395 550 l 1,21,-1
 265 550 l 1,22,-1
 140 710 l 1,16,-1
240 305 m 1,23,-1
 420 305 l 1,24,-1
 420 365 l 2,25,26
 420 385 420 385 395 385 c 2,27,-1
 265 385 l 2,28,29
 240 385 240 385 240 365 c 2,30,-1
 240 305 l 1,23,-1
EndSplineSet
Validated: 1
EndChar

StartChar: Gcircumflex
Encoding: 284 284 219
Width: 820
GlyphClass: 1
Flags: W
LayerCount: 2
Fore
SplineSet
70 136 m 2,0,-1
 70 524 l 2,1,2
 70 660 70 660 240 660 c 2,3,-1
 710 660 l 1,4,-1
 710 540 l 1,5,-1
 305 540 l 2,6,7
 270 540 270 540 270 512 c 2,8,-1
 270 148 l 2,9,10
 270 120 270 120 305 120 c 2,11,-1
 550 120 l 1,12,-1
 550 290 l 1,13,-1
 420 290 l 1,14,-1
 420 410 l 1,15,-1
 750 410 l 1,16,-1
 750 0 l 1,17,-1
 240 0 l 2,18,19
 70 0 70 0 70 136 c 2,0,-1
220 720 m 1,20,-1
 345 880 l 1,21,-1
 475 880 l 1,22,-1
 600 720 l 1,23,-1
 473 720 l 1,24,-1
 410 795 l 1,25,-1
 347 720 l 1,26,-1
 220 720 l 1,20,-1
EndSplineSet
Validated: 1
EndChar

StartChar: gcircumflex
Encoding: 285 285 220
Width: 680
GlyphClass: 1
Flags: W
LayerCount: 2
Fore
SplineSet
60 120 m 2,0,-1
 60 370 l 2,1,2
 60 490 60 490 210 490 c 2,3,-1
 620 490 l 1,4,-1
 620 -90 l 2,5,6
 620 -210 620 -210 470 -210 c 2,7,-1
 80 -210 l 1,8,-1
 80 -105 l 1,9,-1
 400 -105 l 2,10,11
 440 -105 440 -105 440 -73 c 2,12,-1
 440 0 l 1,13,-1
 210 0 l 2,14,15
 60 0 60 0 60 120 c 2,0,-1
150 550 m 1,16,-1
 275 710 l 1,17,-1
 405 710 l 1,18,-1
 530 550 l 1,19,-1
 403 550 l 1,20,-1
 340 625 l 1,21,-1
 277 550 l 1,22,-1
 150 550 l 1,16,-1
240 125 m 2,23,24
 240 105 240 105 265 105 c 2,25,-1
 440 105 l 1,26,-1
 440 385 l 1,27,-1
 265 385 l 2,28,29
 240 385 240 385 240 365 c 2,30,-1
 240 125 l 2,23,24
EndSplineSet
Validated: 1
EndChar

StartChar: Gbreve
Encoding: 286 286 221
Width: 820
GlyphClass: 1
Flags: W
LayerCount: 2
Fore
SplineSet
70 136 m 2,0,-1
 70 524 l 2,1,2
 70 660 70 660 240 660 c 2,3,-1
 710 660 l 1,4,-1
 710 540 l 1,5,-1
 305 540 l 2,6,7
 270 540 270 540 270 512 c 2,8,-1
 270 148 l 2,9,10
 270 120 270 120 305 120 c 2,11,-1
 550 120 l 1,12,-1
 550 290 l 1,13,-1
 420 290 l 1,14,-1
 420 410 l 1,15,-1
 750 410 l 1,16,-1
 750 0 l 1,17,-1
 240 0 l 2,18,19
 70 0 70 0 70 136 c 2,0,-1
255 792 m 2,20,-1
 255 880 l 1,21,-1
 355 880 l 1,22,-1
 355 797 l 2,23,24
 355 785 355 785 370 785 c 2,25,-1
 450 785 l 2,26,27
 465 785 465 785 465 797 c 2,28,-1
 465 880 l 1,29,-1
 565 880 l 1,30,-1
 565 792 l 2,31,32
 565 720 565 720 475 720 c 2,33,-1
 345 720 l 2,34,35
 255 720 255 720 255 792 c 2,20,-1
EndSplineSet
Validated: 1
EndChar

StartChar: gbreve
Encoding: 287 287 222
Width: 680
GlyphClass: 1
Flags: W
LayerCount: 2
Fore
SplineSet
60 120 m 2,0,-1
 60 370 l 2,1,2
 60 490 60 490 210 490 c 2,3,-1
 620 490 l 1,4,-1
 620 -90 l 2,5,6
 620 -210 620 -210 470 -210 c 2,7,-1
 80 -210 l 1,8,-1
 80 -105 l 1,9,-1
 400 -105 l 2,10,11
 440 -105 440 -105 440 -73 c 2,12,-1
 440 0 l 1,13,-1
 210 0 l 2,14,15
 60 0 60 0 60 120 c 2,0,-1
185 622 m 2,16,-1
 185 710 l 1,17,-1
 285 710 l 1,18,-1
 285 627 l 2,19,20
 285 615 285 615 300 615 c 2,21,-1
 380 615 l 2,22,23
 395 615 395 615 395 627 c 2,24,-1
 395 710 l 1,25,-1
 495 710 l 1,26,-1
 495 622 l 2,27,28
 495 550 495 550 405 550 c 2,29,-1
 275 550 l 2,30,31
 185 550 185 550 185 622 c 2,16,-1
240 125 m 2,32,33
 240 105 240 105 265 105 c 2,34,-1
 440 105 l 1,35,-1
 440 385 l 1,36,-1
 265 385 l 2,37,38
 240 385 240 385 240 365 c 2,39,-1
 240 125 l 2,32,33
EndSplineSet
Validated: 1
EndChar

StartChar: Gdotaccent
Encoding: 288 288 223
Width: 820
GlyphClass: 1
Flags: W
LayerCount: 2
Fore
SplineSet
70 136 m 2,0,-1
 70 524 l 2,1,2
 70 660 70 660 240 660 c 2,3,-1
 710 660 l 1,4,-1
 710 540 l 1,5,-1
 305 540 l 2,6,7
 270 540 270 540 270 512 c 2,8,-1
 270 148 l 2,9,10
 270 120 270 120 305 120 c 2,11,-1
 550 120 l 1,12,-1
 550 290 l 1,13,-1
 420 290 l 1,14,-1
 420 410 l 1,15,-1
 750 410 l 1,16,-1
 750 0 l 1,17,-1
 240 0 l 2,18,19
 70 0 70 0 70 136 c 2,0,-1
330 740 m 1,20,-1
 330 860 l 1,21,-1
 490 860 l 1,22,-1
 490 740 l 1,23,-1
 330 740 l 1,20,-1
EndSplineSet
Validated: 1
EndChar

StartChar: gdotaccent
Encoding: 289 289 224
Width: 680
GlyphClass: 1
Flags: W
LayerCount: 2
Fore
SplineSet
60 120 m 2,0,-1
 60 370 l 2,1,2
 60 490 60 490 210 490 c 2,3,-1
 620 490 l 1,4,-1
 620 -90 l 2,5,6
 620 -210 620 -210 470 -210 c 2,7,-1
 80 -210 l 1,8,-1
 80 -105 l 1,9,-1
 400 -105 l 2,10,11
 440 -105 440 -105 440 -73 c 2,12,-1
 440 0 l 1,13,-1
 210 0 l 2,14,15
 60 0 60 0 60 120 c 2,0,-1
240 125 m 2,16,17
 240 105 240 105 265 105 c 2,18,-1
 440 105 l 1,19,-1
 440 385 l 1,20,-1
 265 385 l 2,21,22
 240 385 240 385 240 365 c 2,23,-1
 240 125 l 2,16,17
260 570 m 1,24,-1
 260 690 l 1,25,-1
 420 690 l 1,26,-1
 420 570 l 1,27,-1
 260 570 l 1,24,-1
EndSplineSet
Validated: 1
EndChar

StartChar: uni0122
Encoding: 290 290 225
Width: 820
GlyphClass: 1
Flags: W
LayerCount: 2
Fore
SplineSet
70 136 m 2,0,-1
 70 524 l 2,1,2
 70 660 70 660 240 660 c 2,3,-1
 710 660 l 1,4,-1
 710 540 l 1,5,-1
 305 540 l 2,6,7
 270 540 270 540 270 512 c 2,8,-1
 270 148 l 2,9,10
 270 120 270 120 305 120 c 2,11,-1
 550 120 l 1,12,-1
 550 290 l 1,13,-1
 420 290 l 1,14,-1
 420 410 l 1,15,-1
 750 410 l 1,16,-1
 750 0 l 1,17,-1
 240 0 l 2,18,19
 70 0 70 0 70 136 c 2,0,-1
340 -210 m 1,20,-1
 375 -50 l 1,21,-1
 515 -50 l 1,22,-1
 450 -210 l 1,23,-1
 340 -210 l 1,20,-1
EndSplineSet
Validated: 1
EndChar

StartChar: uni0123
Encoding: 291 291 226
Width: 680
GlyphClass: 1
Flags: W
LayerCount: 2
Fore
SplineSet
60 120 m 2,0,-1
 60 370 l 2,1,2
 60 490 60 490 210 490 c 2,3,-1
 620 490 l 1,4,-1
 620 -90 l 2,5,6
 620 -210 620 -210 470 -210 c 2,7,-1
 80 -210 l 1,8,-1
 80 -105 l 1,9,-1
 400 -105 l 2,10,11
 440 -105 440 -105 440 -73 c 2,12,-1
 440 0 l 1,13,-1
 210 0 l 2,14,15
 60 0 60 0 60 120 c 2,0,-1
240 125 m 2,16,17
 240 105 240 105 265 105 c 2,18,-1
 440 105 l 1,19,-1
 440 385 l 1,20,-1
 265 385 l 2,21,22
 240 385 240 385 240 365 c 2,23,-1
 240 125 l 2,16,17
275 550 m 1,24,-1
 340 710 l 1,25,-1
 450 710 l 1,26,-1
 415 550 l 1,27,-1
 275 550 l 1,24,-1
EndSplineSet
Validated: 1
EndChar

StartChar: Hcircumflex
Encoding: 292 292 227
Width: 830
GlyphClass: 1
Flags: W
LayerCount: 2
Fore
SplineSet
70 0 m 1,0,-1
 70 660 l 1,1,-1
 270 660 l 1,2,-1
 270 405 l 1,3,-1
 560 405 l 1,4,-1
 560 660 l 1,5,-1
 760 660 l 1,6,-1
 760 0 l 1,7,-1
 560 0 l 1,8,-1
 560 285 l 1,9,-1
 270 285 l 1,10,-1
 270 0 l 1,11,-1
 70 0 l 1,0,-1
225 720 m 1,12,-1
 350 880 l 1,13,-1
 480 880 l 1,14,-1
 605 720 l 1,15,-1
 478 720 l 1,16,-1
 415 795 l 1,17,-1
 352 720 l 1,18,-1
 225 720 l 1,12,-1
EndSplineSet
Validated: 1
EndChar

StartChar: hcircumflex
Encoding: 293 293 228
Width: 680
GlyphClass: 1
Flags: W
LayerCount: 2
Fore
SplineSet
60 0 m 1,0,-1
 60 660 l 1,1,-1
 240 660 l 1,2,-1
 240 490 l 1,3,-1
 470 490 l 2,4,5
 620 490 620 490 620 370 c 2,6,-1
 620 0 l 1,7,-1
 440 0 l 1,8,-1
 440 365 l 2,9,10
 440 385 440 385 415 385 c 2,11,-1
 240 385 l 1,12,-1
 240 0 l 1,13,-1
 60 0 l 1,0,-1
150 720 m 1,14,-1
 275 880 l 1,15,-1
 405 880 l 1,16,-1
 530 720 l 1,17,-1
 403 720 l 1,18,-1
 340 795 l 1,19,-1
 277 720 l 1,20,-1
 150 720 l 1,14,-1
EndSplineSet
Validated: 1
EndChar

StartChar: Hbar
Encoding: 294 294 229
Width: 870
GlyphClass: 1
Flags: W
LayerCount: 2
Fore
SplineSet
10 485 m 1,0,-1
 10 585 l 1,1,-1
 90 585 l 1,2,-1
 90 660 l 1,3,-1
 290 660 l 1,4,-1
 290 585 l 1,5,-1
 580 585 l 1,6,-1
 580 660 l 1,7,-1
 780 660 l 1,8,-1
 780 585 l 1,9,-1
 860 585 l 1,10,-1
 860 485 l 1,11,-1
 780 485 l 1,12,-1
 780 0 l 1,13,-1
 580 0 l 1,14,-1
 580 285 l 1,15,-1
 290 285 l 1,16,-1
 290 0 l 1,17,-1
 90 0 l 1,18,-1
 90 485 l 1,19,-1
 10 485 l 1,0,-1
290 405 m 1,20,-1
 580 405 l 1,21,-1
 580 485 l 1,22,-1
 290 485 l 1,23,-1
 290 405 l 1,20,-1
EndSplineSet
Validated: 1
EndChar

StartChar: hbar
Encoding: 295 295 230
Width: 700
GlyphClass: 1
Flags: W
LayerCount: 2
Fore
SplineSet
10 535 m 1,0,-1
 10 615 l 1,1,-1
 80 615 l 1,2,-1
 80 660 l 1,3,-1
 260 660 l 1,4,-1
 260 615 l 1,5,-1
 440 615 l 1,6,-1
 440 535 l 1,7,-1
 260 535 l 1,8,-1
 260 490 l 1,9,-1
 490 490 l 2,10,11
 640 490 640 490 640 370 c 2,12,-1
 640 0 l 1,13,-1
 460 0 l 1,14,-1
 460 365 l 2,15,16
 460 385 460 385 435 385 c 2,17,-1
 260 385 l 1,18,-1
 260 0 l 1,19,-1
 80 0 l 1,20,-1
 80 535 l 1,21,-1
 10 535 l 1,0,-1
EndSplineSet
Validated: 1
EndChar

StartChar: Itilde
Encoding: 296 296 231
Width: 340
GlyphClass: 1
Flags: W
LayerCount: 2
Fore
SplineSet
-20 785 m 1,0,-1
 45 850 l 2,1,2
 75 880 75 880 115 880 c 128,-1,3
 155 880 155 880 185 850 c 2,4,-1
 205 830 l 2,5,6
 217 818 217 818 225 818 c 128,-1,7
 233 818 233 818 245 830 c 2,8,-1
 295 880 l 1,9,-1
 360 815 l 1,10,-1
 295 750 l 2,11,12
 265 720 265 720 225 720 c 128,-1,13
 185 720 185 720 155 750 c 2,14,-1
 135 770 l 2,15,16
 123 782 123 782 115 782 c 128,-1,17
 107 782 107 782 95 770 c 2,18,-1
 45 720 l 1,19,-1
 -20 785 l 1,0,-1
70 0 m 1,20,-1
 70 660 l 1,21,-1
 270 660 l 1,22,-1
 270 0 l 1,23,-1
 70 0 l 1,20,-1
EndSplineSet
Validated: 1
EndChar

StartChar: itilde
Encoding: 297 297 232
Width: 320
GlyphClass: 1
Flags: W
LayerCount: 2
Fore
SplineSet
-30 615 m 1,0,-1
 35 680 l 2,1,2
 65 710 65 710 105 710 c 128,-1,3
 145 710 145 710 175 680 c 2,4,-1
 195 660 l 2,5,6
 207 648 207 648 215 648 c 128,-1,7
 223 648 223 648 235 660 c 2,8,-1
 285 710 l 1,9,-1
 350 645 l 1,10,-1
 285 580 l 2,11,12
 255 550 255 550 215 550 c 128,-1,13
 175 550 175 550 145 580 c 2,14,-1
 125 600 l 2,15,16
 113 612 113 612 105 612 c 128,-1,17
 97 612 97 612 85 600 c 2,18,-1
 35 550 l 1,19,-1
 -30 615 l 1,0,-1
70 0 m 1,20,-1
 70 490 l 1,21,-1
 250 490 l 1,22,-1
 250 0 l 1,23,-1
 70 0 l 1,20,-1
EndSplineSet
Validated: 1
EndChar

StartChar: Imacron
Encoding: 298 298 233
Width: 340
GlyphClass: 1
Flags: W
LayerCount: 2
Fore
SplineSet
-5 750 m 1,0,-1
 -5 845 l 1,1,-1
 345 845 l 1,2,-1
 345 750 l 1,3,-1
 -5 750 l 1,0,-1
70 0 m 1,4,-1
 70 660 l 1,5,-1
 270 660 l 1,6,-1
 270 0 l 1,7,-1
 70 0 l 1,4,-1
EndSplineSet
Validated: 1
EndChar

StartChar: imacron
Encoding: 299 299 234
Width: 320
GlyphClass: 1
Flags: W
LayerCount: 2
Fore
SplineSet
-15 580 m 1,0,-1
 -15 675 l 1,1,-1
 335 675 l 1,2,-1
 335 580 l 1,3,-1
 -15 580 l 1,0,-1
70 0 m 1,4,-1
 70 490 l 1,5,-1
 250 490 l 1,6,-1
 250 0 l 1,7,-1
 70 0 l 1,4,-1
EndSplineSet
Validated: 1
EndChar

StartChar: Ibreve
Encoding: 300 300 235
Width: 340
GlyphClass: 1
Flags: W
LayerCount: 2
Fore
SplineSet
15 792 m 2,0,-1
 15 880 l 1,1,-1
 115 880 l 1,2,-1
 115 797 l 2,3,4
 115 785 115 785 130 785 c 2,5,-1
 210 785 l 2,6,7
 225 785 225 785 225 797 c 2,8,-1
 225 880 l 1,9,-1
 325 880 l 1,10,-1
 325 792 l 2,11,12
 325 720 325 720 235 720 c 2,13,-1
 105 720 l 2,14,15
 15 720 15 720 15 792 c 2,0,-1
70 0 m 1,16,-1
 70 660 l 1,17,-1
 270 660 l 1,18,-1
 270 0 l 1,19,-1
 70 0 l 1,16,-1
EndSplineSet
Validated: 1
EndChar

StartChar: ibreve
Encoding: 301 301 236
Width: 320
GlyphClass: 1
Flags: W
LayerCount: 2
Fore
SplineSet
5 622 m 2,0,-1
 5 710 l 1,1,-1
 105 710 l 1,2,-1
 105 627 l 2,3,4
 105 615 105 615 120 615 c 2,5,-1
 200 615 l 2,6,7
 215 615 215 615 215 627 c 2,8,-1
 215 710 l 1,9,-1
 315 710 l 1,10,-1
 315 622 l 2,11,12
 315 550 315 550 225 550 c 2,13,-1
 95 550 l 2,14,15
 5 550 5 550 5 622 c 2,0,-1
70 0 m 1,16,-1
 70 490 l 1,17,-1
 250 490 l 1,18,-1
 250 0 l 1,19,-1
 70 0 l 1,16,-1
EndSplineSet
Validated: 1
EndChar

StartChar: Iogonek
Encoding: 302 302 237
Width: 340
GlyphClass: 1
Flags: W
LayerCount: 2
Fore
SplineSet
25 0 m 2,0,1
 25 19 25 19 37.5 37.5 c 128,-1,2
 50 56 50 56 70 65 c 1,3,-1
 70 660 l 1,4,-1
 270 660 l 1,5,-1
 270 0 l 1,6,-1
 195 0 l 2,7,8
 155 0 155 0 155 -32 c 2,9,-1
 155 -78 l 2,10,11
 155 -110 155 -110 195 -110 c 2,12,-1
 275 -110 l 1,13,-1
 275 -185 l 1,14,-1
 150 -185 l 2,15,16
 25 -185 25 -185 25 -85 c 2,17,-1
 25 0 l 2,0,1
EndSplineSet
Validated: 1
EndChar

StartChar: iogonek
Encoding: 303 303 238
Width: 300
GlyphClass: 1
Flags: W
LayerCount: 2
Fore
SplineSet
15 0 m 2,0,1
 15 19 15 19 27.5 37.5 c 128,-1,2
 40 56 40 56 60 65 c 1,3,-1
 60 490 l 1,4,-1
 240 490 l 1,5,-1
 240 0 l 1,6,-1
 185 0 l 2,7,8
 145 0 145 0 145 -32 c 2,9,-1
 145 -78 l 2,10,11
 145 -110 145 -110 185 -110 c 2,12,-1
 265 -110 l 1,13,-1
 265 -185 l 1,14,-1
 140 -185 l 2,15,16
 15 -185 15 -185 15 -85 c 2,17,-1
 15 0 l 2,0,1
60 560 m 1,18,-1
 60 660 l 1,19,-1
 240 660 l 1,20,-1
 240 560 l 1,21,-1
 60 560 l 1,18,-1
EndSplineSet
Validated: 1
EndChar

StartChar: Idotaccent
Encoding: 304 304 239
Width: 340
GlyphClass: 1
Flags: W
LayerCount: 2
Fore
SplineSet
70 0 m 1,0,-1
 70 660 l 1,1,-1
 270 660 l 1,2,-1
 270 0 l 1,3,-1
 70 0 l 1,0,-1
90 740 m 1,4,-1
 90 860 l 1,5,-1
 250 860 l 1,6,-1
 250 740 l 1,7,-1
 90 740 l 1,4,-1
EndSplineSet
Validated: 1
EndChar

StartChar: dotlessi
Encoding: 305 305 240
Width: 300
GlyphClass: 1
Flags: W
LayerCount: 2
Fore
SplineSet
60 0 m 1,0,-1
 60 490 l 1,1,-1
 240 490 l 1,2,-1
 240 0 l 1,3,-1
 60 0 l 1,0,-1
EndSplineSet
Validated: 1
EndChar

StartChar: IJ
Encoding: 306 306 241
Width: 1090
GlyphClass: 1
Flags: W
LayerCount: 2
Fore
SplineSet
70 0 m 1,0,-1
 70 660 l 1,1,-1
 270 660 l 1,2,-1
 270 0 l 1,3,-1
 70 0 l 1,0,-1
380 160 m 2,4,-1
 380 295 l 1,5,-1
 580 295 l 1,6,-1
 580 176 l 2,7,8
 580 120 580 120 650 120 c 2,9,-1
 785 120 l 2,10,11
 820 120 820 120 820 148 c 2,12,-1
 820 660 l 1,13,-1
 1020 660 l 1,14,-1
 1020 136 l 2,15,16
 1020 0 1020 0 850 0 c 2,17,-1
 580 0 l 2,18,19
 380 0 380 0 380 160 c 2,4,-1
EndSplineSet
Validated: 1
EndChar

StartChar: ij
Encoding: 307 307 242
Width: 600
GlyphClass: 1
Flags: W
LayerCount: 2
Fore
SplineSet
60 0 m 1,0,-1
 60 490 l 1,1,-1
 240 490 l 1,2,-1
 240 0 l 1,3,-1
 60 0 l 1,0,-1
60 560 m 1,4,-1
 60 660 l 1,5,-1
 240 660 l 1,6,-1
 240 560 l 1,7,-1
 60 560 l 1,4,-1
250 -105 m 1,8,-1
 320 -105 l 2,9,10
 360 -105 360 -105 360 -73 c 2,11,-1
 360 490 l 1,12,-1
 540 490 l 1,13,-1
 540 -90 l 2,14,15
 540 -210 540 -210 390 -210 c 2,16,-1
 250 -210 l 1,17,-1
 250 -105 l 1,8,-1
360 560 m 1,18,-1
 360 660 l 1,19,-1
 540 660 l 1,20,-1
 540 560 l 1,21,-1
 360 560 l 1,18,-1
EndSplineSet
Validated: 1
EndChar

StartChar: Jcircumflex
Encoding: 308 308 243
Width: 750
GlyphClass: 1
Flags: W
LayerCount: 2
Fore
SplineSet
40 160 m 2,0,-1
 40 295 l 1,1,-1
 240 295 l 1,2,-1
 240 176 l 2,3,4
 240 120 240 120 310 120 c 2,5,-1
 445 120 l 2,6,7
 480 120 480 120 480 148 c 2,8,-1
 480 660 l 1,9,-1
 680 660 l 1,10,-1
 680 136 l 2,11,12
 680 0 680 0 510 0 c 2,13,-1
 240 0 l 2,14,15
 40 0 40 0 40 160 c 2,0,-1
390 720 m 1,16,-1
 515 880 l 1,17,-1
 645 880 l 1,18,-1
 770 720 l 1,19,-1
 643 720 l 1,20,-1
 580 795 l 1,21,-1
 517 720 l 1,22,-1
 390 720 l 1,16,-1
EndSplineSet
Validated: 1
EndChar

StartChar: jcircumflex
Encoding: 309 309 244
Width: 320
GlyphClass: 1
Flags: W
LayerCount: 2
Fore
SplineSet
-40 -105 m 1,0,-1
 30 -105 l 2,1,2
 70 -105 70 -105 70 -73 c 2,3,-1
 70 490 l 1,4,-1
 250 490 l 1,5,-1
 250 -90 l 2,6,7
 250 -210 250 -210 100 -210 c 2,8,-1
 -40 -210 l 1,9,-1
 -40 -105 l 1,0,-1
-30 550 m 1,10,-1
 95 710 l 1,11,-1
 225 710 l 1,12,-1
 350 550 l 1,13,-1
 223 550 l 1,14,-1
 160 625 l 1,15,-1
 97 550 l 1,16,-1
 -30 550 l 1,10,-1
EndSplineSet
Validated: 1
EndChar

StartChar: uni0136
Encoding: 310 310 245
Width: 800
GlyphClass: 1
Flags: W
LayerCount: 2
Fore
SplineSet
70 0 m 1,0,-1
 70 660 l 1,1,-1
 270 660 l 1,2,-1
 270 405 l 1,3,-1
 535 660 l 1,4,-1
 780 660 l 1,5,-1
 497 387 l 1,6,-1
 790 0 l 1,7,-1
 566 0 l 1,8,-1
 367 263 l 1,9,-1
 270 169 l 1,10,-1
 270 0 l 1,11,-1
 70 0 l 1,0,-1
305 -210 m 1,12,-1
 340 -50 l 1,13,-1
 480 -50 l 1,14,-1
 415 -210 l 1,15,-1
 305 -210 l 1,12,-1
EndSplineSet
Validated: 1
EndChar

StartChar: uni0137
Encoding: 311 311 246
Width: 660
GlyphClass: 1
Flags: W
LayerCount: 2
Fore
SplineSet
60 0 m 1,0,-1
 60 660 l 1,1,-1
 240 660 l 1,2,-1
 240 310 l 1,3,-1
 425 490 l 1,4,-1
 640 490 l 1,5,-1
 429 285 l 1,6,-1
 650 0 l 1,7,-1
 455 0 l 1,8,-1
 318 177 l 1,9,-1
 240 101 l 1,10,-1
 240 0 l 1,11,-1
 60 0 l 1,0,-1
235 -210 m 1,12,-1
 270 -50 l 1,13,-1
 410 -50 l 1,14,-1
 345 -210 l 1,15,-1
 235 -210 l 1,12,-1
EndSplineSet
Validated: 1
EndChar

StartChar: kgreenlandic
Encoding: 312 312 247
Width: 660
GlyphClass: 1
Flags: W
LayerCount: 2
Fore
SplineSet
60 0 m 1,0,-1
 60 490 l 1,1,-1
 240 490 l 1,2,-1
 240 310 l 1,3,-1
 425 490 l 1,4,-1
 640 490 l 1,5,-1
 429 285 l 1,6,-1
 650 0 l 1,7,-1
 455 0 l 1,8,-1
 318 177 l 1,9,-1
 240 101 l 1,10,-1
 240 0 l 1,11,-1
 60 0 l 1,0,-1
EndSplineSet
Validated: 1
EndChar

StartChar: Lacute
Encoding: 313 313 248
Width: 700
GlyphClass: 1
Flags: W
LayerCount: 2
Fore
SplineSet
70 0 m 1,0,-1
 70 660 l 1,1,-1
 270 660 l 1,2,-1
 270 120 l 1,3,-1
 680 120 l 1,4,-1
 680 0 l 1,5,-1
 70 0 l 1,0,-1
80 720 m 1,6,-1
 190 880 l 1,7,-1
 350 880 l 1,8,-1
 210 720 l 1,9,-1
 80 720 l 1,6,-1
EndSplineSet
Validated: 1
EndChar

StartChar: lacute
Encoding: 314 314 249
Width: 300
GlyphClass: 1
Flags: W
LayerCount: 2
Fore
SplineSet
50 720 m 1,0,-1
 160 880 l 1,1,-1
 320 880 l 1,2,-1
 180 720 l 1,3,-1
 50 720 l 1,0,-1
60 0 m 1,4,-1
 60 660 l 1,5,-1
 240 660 l 1,6,-1
 240 0 l 1,7,-1
 60 0 l 1,4,-1
EndSplineSet
Validated: 1
EndChar

StartChar: uni013B
Encoding: 315 315 250
Width: 700
GlyphClass: 1
Flags: W
LayerCount: 2
Fore
SplineSet
70 0 m 1,0,-1
 70 660 l 1,1,-1
 270 660 l 1,2,-1
 270 120 l 1,3,-1
 680 120 l 1,4,-1
 680 0 l 1,5,-1
 70 0 l 1,0,-1
310 -210 m 1,6,-1
 345 -50 l 1,7,-1
 485 -50 l 1,8,-1
 420 -210 l 1,9,-1
 310 -210 l 1,6,-1
EndSplineSet
Validated: 1
EndChar

StartChar: uni013C
Encoding: 316 316 251
Width: 300
GlyphClass: 1
Flags: W
LayerCount: 2
Fore
SplineSet
45 -210 m 1,0,-1
 80 -50 l 1,1,-1
 220 -50 l 1,2,-1
 155 -210 l 1,3,-1
 45 -210 l 1,0,-1
60 0 m 1,4,-1
 60 660 l 1,5,-1
 240 660 l 1,6,-1
 240 0 l 1,7,-1
 60 0 l 1,4,-1
EndSplineSet
Validated: 1
EndChar

StartChar: Lcaron
Encoding: 317 317 252
Width: 700
GlyphClass: 1
Flags: W
LayerCount: 2
Fore
SplineSet
70 0 m 1,0,-1
 70 660 l 1,1,-1
 270 660 l 1,2,-1
 270 120 l 1,3,-1
 680 120 l 1,4,-1
 680 0 l 1,5,-1
 70 0 l 1,0,-1
370 500 m 1,6,-1
 405 660 l 1,7,-1
 545 660 l 1,8,-1
 480 500 l 1,9,-1
 370 500 l 1,6,-1
EndSplineSet
Validated: 1
EndChar

StartChar: lcaron
Encoding: 318 318 253
Width: 440
GlyphClass: 1
Flags: W
LayerCount: 2
Fore
SplineSet
60 0 m 1,0,-1
 60 660 l 1,1,-1
 240 660 l 1,2,-1
 240 0 l 1,3,-1
 60 0 l 1,0,-1
280 500 m 1,4,-1
 315 660 l 1,5,-1
 455 660 l 1,6,-1
 390 500 l 1,7,-1
 280 500 l 1,4,-1
EndSplineSet
Validated: 1
EndChar

StartChar: Ldot
Encoding: 319 319 254
Width: 700
GlyphClass: 1
Flags: W
LayerCount: 2
Fore
SplineSet
70 0 m 1,0,-1
 70 660 l 1,1,-1
 270 660 l 1,2,-1
 270 120 l 1,3,-1
 680 120 l 1,4,-1
 680 0 l 1,5,-1
 70 0 l 1,0,-1
415 300 m 1,6,-1
 415 420 l 1,7,-1
 575 420 l 1,8,-1
 575 300 l 1,9,-1
 415 300 l 1,6,-1
EndSplineSet
Validated: 1
EndChar

StartChar: ldot
Encoding: 320 320 255
Width: 520
GlyphClass: 1
Flags: W
LayerCount: 2
Fore
SplineSet
60 0 m 1,0,-1
 60 660 l 1,1,-1
 240 660 l 1,2,-1
 240 0 l 1,3,-1
 60 0 l 1,0,-1
330 305 m 1,4,-1
 330 425 l 1,5,-1
 490 425 l 1,6,-1
 490 305 l 1,7,-1
 330 305 l 1,4,-1
EndSplineSet
Validated: 1
EndChar

StartChar: Lslash
Encoding: 321 321 256
Width: 760
GlyphClass: 1
Flags: W
LayerCount: 2
Fore
SplineSet
0 268 m 1,0,-1
 110 323 l 1,1,-1
 110 660 l 1,2,-1
 310 660 l 1,3,-1
 310 423 l 1,4,-1
 453 494 l 1,5,-1
 500 400 l 1,6,-1
 310 305 l 1,7,-1
 310 120 l 1,8,-1
 740 120 l 1,9,-1
 740 0 l 1,10,-1
 110 0 l 1,11,-1
 110 206 l 1,12,-1
 47 174 l 1,13,-1
 0 268 l 1,0,-1
EndSplineSet
Validated: 1
EndChar

StartChar: lslash
Encoding: 322 322 257
Width: 400
GlyphClass: 1
Flags: W
LayerCount: 2
Fore
SplineSet
0 290 m 1,0,-1
 110 344 l 1,1,-1
 110 660 l 1,2,-1
 290 660 l 1,3,-1
 290 431 l 1,4,-1
 361 466 l 1,5,-1
 400 385 l 1,6,-1
 290 331 l 1,7,-1
 290 0 l 1,8,-1
 110 0 l 1,9,-1
 110 243 l 1,10,-1
 39 209 l 1,11,-1
 0 290 l 1,0,-1
EndSplineSet
Validated: 1
EndChar

StartChar: Nacute
Encoding: 323 323 258
Width: 840
GlyphClass: 1
Flags: W
LayerCount: 2
Fore
SplineSet
70 0 m 1,0,-1
 70 660 l 1,1,-1
 285 660 l 1,2,-1
 570 264 l 1,3,-1
 570 660 l 1,4,-1
 770 660 l 1,5,-1
 770 0 l 1,6,-1
 555 0 l 1,7,-1
 270 396 l 1,8,-1
 270 0 l 1,9,-1
 70 0 l 1,0,-1
325 720 m 1,10,-1
 435 880 l 1,11,-1
 595 880 l 1,12,-1
 455 720 l 1,13,-1
 325 720 l 1,10,-1
EndSplineSet
Validated: 1
EndChar

StartChar: nacute
Encoding: 324 324 259
Width: 680
GlyphClass: 1
Flags: W
LayerCount: 2
Fore
SplineSet
60 0 m 1,0,-1
 60 490 l 1,1,-1
 470 490 l 2,2,3
 620 490 620 490 620 370 c 2,4,-1
 620 0 l 1,5,-1
 440 0 l 1,6,-1
 440 365 l 2,7,8
 440 385 440 385 415 385 c 2,9,-1
 240 385 l 1,10,-1
 240 0 l 1,11,-1
 60 0 l 1,0,-1
245 550 m 1,12,-1
 355 710 l 1,13,-1
 515 710 l 1,14,-1
 375 550 l 1,15,-1
 245 550 l 1,12,-1
EndSplineSet
Validated: 1
EndChar

StartChar: uni0145
Encoding: 325 325 260
Width: 840
GlyphClass: 1
Flags: W
LayerCount: 2
Fore
SplineSet
70 0 m 1,0,-1
 70 660 l 1,1,-1
 285 660 l 1,2,-1
 570 264 l 1,3,-1
 570 660 l 1,4,-1
 770 660 l 1,5,-1
 770 0 l 1,6,-1
 555 0 l 1,7,-1
 270 396 l 1,8,-1
 270 0 l 1,9,-1
 70 0 l 1,0,-1
335 -210 m 1,10,-1
 370 -50 l 1,11,-1
 510 -50 l 1,12,-1
 445 -210 l 1,13,-1
 335 -210 l 1,10,-1
EndSplineSet
Validated: 1
EndChar

StartChar: uni0146
Encoding: 326 326 261
Width: 680
GlyphClass: 1
Flags: W
LayerCount: 2
Fore
SplineSet
60 0 m 1,0,-1
 60 490 l 1,1,-1
 470 490 l 2,2,3
 620 490 620 490 620 370 c 2,4,-1
 620 0 l 1,5,-1
 440 0 l 1,6,-1
 440 365 l 2,7,8
 440 385 440 385 415 385 c 2,9,-1
 240 385 l 1,10,-1
 240 0 l 1,11,-1
 60 0 l 1,0,-1
250 -210 m 1,12,-1
 285 -50 l 1,13,-1
 425 -50 l 1,14,-1
 360 -210 l 1,15,-1
 250 -210 l 1,12,-1
EndSplineSet
Validated: 1
EndChar

StartChar: Ncaron
Encoding: 327 327 262
Width: 840
GlyphClass: 1
Flags: W
LayerCount: 2
Fore
SplineSet
70 0 m 1,0,-1
 70 660 l 1,1,-1
 285 660 l 1,2,-1
 570 264 l 1,3,-1
 570 660 l 1,4,-1
 770 660 l 1,5,-1
 770 0 l 1,6,-1
 555 0 l 1,7,-1
 270 396 l 1,8,-1
 270 0 l 1,9,-1
 70 0 l 1,0,-1
230 880 m 1,10,-1
 357 880 l 1,11,-1
 420 805 l 1,12,-1
 483 880 l 1,13,-1
 610 880 l 1,14,-1
 485 720 l 1,15,-1
 355 720 l 1,16,-1
 230 880 l 1,10,-1
EndSplineSet
Validated: 1
EndChar

StartChar: ncaron
Encoding: 328 328 263
Width: 680
GlyphClass: 1
Flags: W
LayerCount: 2
Fore
SplineSet
60 0 m 1,0,-1
 60 490 l 1,1,-1
 470 490 l 2,2,3
 620 490 620 490 620 370 c 2,4,-1
 620 0 l 1,5,-1
 440 0 l 1,6,-1
 440 365 l 2,7,8
 440 385 440 385 415 385 c 2,9,-1
 240 385 l 1,10,-1
 240 0 l 1,11,-1
 60 0 l 1,0,-1
150 710 m 1,12,-1
 277 710 l 1,13,-1
 340 635 l 1,14,-1
 403 710 l 1,15,-1
 530 710 l 1,16,-1
 405 550 l 1,17,-1
 275 550 l 1,18,-1
 150 710 l 1,12,-1
EndSplineSet
Validated: 1
EndChar

StartChar: Eng
Encoding: 330 330 264
Width: 830
GlyphClass: 1
Flags: W
LayerCount: 2
Fore
SplineSet
70 0 m 1,0,-1
 70 660 l 1,1,-1
 590 660 l 2,2,3
 760 660 760 660 760 524 c 2,4,-1
 760 -74 l 2,5,6
 760 -210 760 -210 590 -210 c 2,7,-1
 400 -210 l 1,8,-1
 400 -90 l 1,9,-1
 510 -90 l 2,10,11
 560 -90 560 -90 560 -50 c 2,12,-1
 560 512 l 2,13,14
 560 540 560 540 525 540 c 2,15,-1
 270 540 l 1,16,-1
 270 0 l 1,17,-1
 70 0 l 1,0,-1
EndSplineSet
Validated: 1
EndChar

StartChar: eng
Encoding: 331 331 265
Width: 680
GlyphClass: 1
Flags: W
LayerCount: 2
Fore
SplineSet
60 0 m 1,0,-1
 60 490 l 1,1,-1
 470 490 l 2,2,3
 620 490 620 490 620 370 c 2,4,-1
 620 -90 l 2,5,6
 620 -210 620 -210 470 -210 c 2,7,-1
 320 -210 l 1,8,-1
 320 -105 l 1,9,-1
 400 -105 l 2,10,11
 440 -105 440 -105 440 -73 c 2,12,-1
 440 365 l 2,13,14
 440 385 440 385 415 385 c 2,15,-1
 240 385 l 1,16,-1
 240 0 l 1,17,-1
 60 0 l 1,0,-1
EndSplineSet
Validated: 1
EndChar

StartChar: Omacron
Encoding: 332 332 266
Width: 830
GlyphClass: 1
Flags: W
LayerCount: 2
Fore
SplineSet
70 136 m 2,0,-1
 70 524 l 2,1,2
 70 660 70 660 240 660 c 2,3,-1
 590 660 l 2,4,5
 760 660 760 660 760 524 c 2,6,-1
 760 136 l 2,7,8
 760 0 760 0 590 0 c 2,9,-1
 240 0 l 2,10,11
 70 0 70 0 70 136 c 2,0,-1
240 750 m 1,12,-1
 240 845 l 1,13,-1
 590 845 l 1,14,-1
 590 750 l 1,15,-1
 240 750 l 1,12,-1
270 148 m 2,16,17
 270 120 270 120 305 120 c 2,18,-1
 525 120 l 2,19,20
 560 120 560 120 560 148 c 2,21,-1
 560 512 l 2,22,23
 560 540 560 540 525 540 c 2,24,-1
 305 540 l 2,25,26
 270 540 270 540 270 512 c 2,27,-1
 270 148 l 2,16,17
EndSplineSet
Validated: 1
EndChar

StartChar: omacron
Encoding: 333 333 267
Width: 680
GlyphClass: 1
Flags: W
LayerCount: 2
Fore
SplineSet
60 120 m 2,0,-1
 60 370 l 2,1,2
 60 490 60 490 210 490 c 2,3,-1
 470 490 l 2,4,5
 620 490 620 490 620 370 c 2,6,-1
 620 120 l 2,7,8
 620 0 620 0 470 0 c 2,9,-1
 210 0 l 2,10,11
 60 0 60 0 60 120 c 2,0,-1
165 580 m 1,12,-1
 165 675 l 1,13,-1
 515 675 l 1,14,-1
 515 580 l 1,15,-1
 165 580 l 1,12,-1
240 125 m 2,16,17
 240 105 240 105 265 105 c 2,18,-1
 415 105 l 2,19,20
 440 105 440 105 440 125 c 2,21,-1
 440 365 l 2,22,23
 440 385 440 385 415 385 c 2,24,-1
 265 385 l 2,25,26
 240 385 240 385 240 365 c 2,27,-1
 240 125 l 2,16,17
EndSplineSet
Validated: 1
EndChar

StartChar: Obreve
Encoding: 334 334 268
Width: 830
GlyphClass: 1
Flags: W
LayerCount: 2
Fore
SplineSet
70 136 m 2,0,-1
 70 524 l 2,1,2
 70 660 70 660 240 660 c 2,3,-1
 590 660 l 2,4,5
 760 660 760 660 760 524 c 2,6,-1
 760 136 l 2,7,8
 760 0 760 0 590 0 c 2,9,-1
 240 0 l 2,10,11
 70 0 70 0 70 136 c 2,0,-1
260 792 m 2,12,-1
 260 880 l 1,13,-1
 360 880 l 1,14,-1
 360 797 l 2,15,16
 360 785 360 785 375 785 c 2,17,-1
 455 785 l 2,18,19
 470 785 470 785 470 797 c 2,20,-1
 470 880 l 1,21,-1
 570 880 l 1,22,-1
 570 792 l 2,23,24
 570 720 570 720 480 720 c 2,25,-1
 350 720 l 2,26,27
 260 720 260 720 260 792 c 2,12,-1
270 148 m 2,28,29
 270 120 270 120 305 120 c 2,30,-1
 525 120 l 2,31,32
 560 120 560 120 560 148 c 2,33,-1
 560 512 l 2,34,35
 560 540 560 540 525 540 c 2,36,-1
 305 540 l 2,37,38
 270 540 270 540 270 512 c 2,39,-1
 270 148 l 2,28,29
EndSplineSet
Validated: 1
EndChar

StartChar: obreve
Encoding: 335 335 269
Width: 680
GlyphClass: 1
Flags: W
LayerCount: 2
Fore
SplineSet
60 120 m 2,0,-1
 60 370 l 2,1,2
 60 490 60 490 210 490 c 2,3,-1
 470 490 l 2,4,5
 620 490 620 490 620 370 c 2,6,-1
 620 120 l 2,7,8
 620 0 620 0 470 0 c 2,9,-1
 210 0 l 2,10,11
 60 0 60 0 60 120 c 2,0,-1
185 622 m 2,12,-1
 185 710 l 1,13,-1
 285 710 l 1,14,-1
 285 627 l 2,15,16
 285 615 285 615 300 615 c 2,17,-1
 380 615 l 2,18,19
 395 615 395 615 395 627 c 2,20,-1
 395 710 l 1,21,-1
 495 710 l 1,22,-1
 495 622 l 2,23,24
 495 550 495 550 405 550 c 2,25,-1
 275 550 l 2,26,27
 185 550 185 550 185 622 c 2,12,-1
240 125 m 2,28,29
 240 105 240 105 265 105 c 2,30,-1
 415 105 l 2,31,32
 440 105 440 105 440 125 c 2,33,-1
 440 365 l 2,34,35
 440 385 440 385 415 385 c 2,36,-1
 265 385 l 2,37,38
 240 385 240 385 240 365 c 2,39,-1
 240 125 l 2,28,29
EndSplineSet
Validated: 1
EndChar

StartChar: Ohungarumlaut
Encoding: 336 336 270
Width: 830
GlyphClass: 1
Flags: W
LayerCount: 2
Fore
SplineSet
70 136 m 2,0,-1
 70 524 l 2,1,2
 70 660 70 660 240 660 c 2,3,-1
 590 660 l 2,4,5
 760 660 760 660 760 524 c 2,6,-1
 760 136 l 2,7,8
 760 0 760 0 590 0 c 2,9,-1
 240 0 l 2,10,11
 70 0 70 0 70 136 c 2,0,-1
235 720 m 1,12,-1
 335 880 l 1,13,-1
 480 880 l 1,14,-1
 350 720 l 1,15,-1
 235 720 l 1,12,-1
270 148 m 2,16,17
 270 120 270 120 305 120 c 2,18,-1
 525 120 l 2,19,20
 560 120 560 120 560 148 c 2,21,-1
 560 512 l 2,22,23
 560 540 560 540 525 540 c 2,24,-1
 305 540 l 2,25,26
 270 540 270 540 270 512 c 2,27,-1
 270 148 l 2,16,17
440 720 m 1,28,-1
 540 880 l 1,29,-1
 685 880 l 1,30,-1
 555 720 l 1,31,-1
 440 720 l 1,28,-1
EndSplineSet
Validated: 1
EndChar

StartChar: ohungarumlaut
Encoding: 337 337 271
Width: 680
GlyphClass: 1
Flags: W
LayerCount: 2
Fore
SplineSet
60 120 m 2,0,-1
 60 370 l 2,1,2
 60 490 60 490 210 490 c 2,3,-1
 470 490 l 2,4,5
 620 490 620 490 620 370 c 2,6,-1
 620 120 l 2,7,8
 620 0 620 0 470 0 c 2,9,-1
 210 0 l 2,10,11
 60 0 60 0 60 120 c 2,0,-1
160 550 m 1,12,-1
 260 710 l 1,13,-1
 405 710 l 1,14,-1
 275 550 l 1,15,-1
 160 550 l 1,12,-1
240 125 m 2,16,17
 240 105 240 105 265 105 c 2,18,-1
 415 105 l 2,19,20
 440 105 440 105 440 125 c 2,21,-1
 440 365 l 2,22,23
 440 385 440 385 415 385 c 2,24,-1
 265 385 l 2,25,26
 240 385 240 385 240 365 c 2,27,-1
 240 125 l 2,16,17
365 550 m 1,28,-1
 465 710 l 1,29,-1
 610 710 l 1,30,-1
 480 550 l 1,31,-1
 365 550 l 1,28,-1
EndSplineSet
Validated: 1
EndChar

StartChar: OE
Encoding: 338 338 272
Width: 1190
GlyphClass: 1
Flags: W
LayerCount: 2
Fore
SplineSet
70 136 m 2,0,-1
 70 524 l 2,1,2
 70 660 70 660 240 660 c 2,3,-1
 1140 660 l 1,4,-1
 1140 540 l 1,5,-1
 740 540 l 1,6,-1
 740 405 l 1,7,-1
 1090 405 l 1,8,-1
 1090 285 l 1,9,-1
 740 285 l 1,10,-1
 740 120 l 1,11,-1
 1140 120 l 1,12,-1
 1140 0 l 1,13,-1
 240 0 l 2,14,15
 70 0 70 0 70 136 c 2,0,-1
270 148 m 2,16,17
 270 120 270 120 305 120 c 2,18,-1
 540 120 l 1,19,-1
 540 540 l 1,20,-1
 305 540 l 2,21,22
 270 540 270 540 270 512 c 2,23,-1
 270 148 l 2,16,17
EndSplineSet
Validated: 1
EndChar

StartChar: oe
Encoding: 339 339 273
Width: 1020
GlyphClass: 1
Flags: W
LayerCount: 2
Fore
SplineSet
60 120 m 2,0,-1
 60 370 l 2,1,2
 60 490 60 490 210 490 c 2,3,-1
 810 490 l 2,4,5
 960 490 960 490 960 370 c 2,6,-1
 960 200 l 1,7,-1
 600 200 l 1,8,-1
 600 125 l 2,9,10
 600 105 600 105 625 105 c 2,11,-1
 940 105 l 1,12,-1
 940 0 l 1,13,-1
 210 0 l 2,14,15
 60 0 60 0 60 120 c 2,0,-1
240 125 m 2,16,17
 240 105 240 105 265 105 c 2,18,-1
 395 105 l 2,19,20
 420 105 420 105 420 125 c 2,21,-1
 420 365 l 2,22,23
 420 385 420 385 395 385 c 2,24,-1
 265 385 l 2,25,26
 240 385 240 385 240 365 c 2,27,-1
 240 125 l 2,16,17
600 305 m 1,28,-1
 780 305 l 1,29,-1
 780 365 l 2,30,31
 780 385 780 385 755 385 c 2,32,-1
 625 385 l 2,33,34
 600 385 600 385 600 365 c 2,35,-1
 600 305 l 1,28,-1
EndSplineSet
Validated: 1
EndChar

StartChar: Racute
Encoding: 340 340 274
Width: 790
GlyphClass: 1
Flags: W
LayerCount: 2
Fore
SplineSet
70 0 m 1,0,-1
 70 660 l 1,1,-1
 560 660 l 2,2,3
 730 660 730 660 730 524 c 2,4,-1
 730 386 l 2,5,6
 730 267 730 267 595 250 c 1,7,-1
 760 0 l 1,8,-1
 544 0 l 1,9,-1
 379 250 l 1,10,-1
 270 250 l 1,11,-1
 270 0 l 1,12,-1
 70 0 l 1,0,-1
270 370 m 1,13,-1
 495 370 l 2,14,15
 530 370 530 370 530 398 c 2,16,-1
 530 512 l 2,17,18
 530 540 530 540 495 540 c 2,19,-1
 270 540 l 1,20,-1
 270 370 l 1,13,-1
305 720 m 1,21,-1
 415 880 l 1,22,-1
 575 880 l 1,23,-1
 435 720 l 1,24,-1
 305 720 l 1,21,-1
EndSplineSet
Validated: 1
EndChar

StartChar: racute
Encoding: 341 341 275
Width: 440
GlyphClass: 1
Flags: W
LayerCount: 2
Fore
SplineSet
60 0 m 1,0,-1
 60 370 l 2,1,2
 60 490 60 490 210 490 c 2,3,-1
 410 490 l 1,4,-1
 410 385 l 1,5,-1
 265 385 l 2,6,7
 240 385 240 385 240 365 c 2,8,-1
 240 0 l 1,9,-1
 60 0 l 1,0,-1
140 550 m 1,10,-1
 250 710 l 1,11,-1
 410 710 l 1,12,-1
 270 550 l 1,13,-1
 140 550 l 1,10,-1
EndSplineSet
Validated: 1
EndChar

StartChar: uni0156
Encoding: 342 342 276
Width: 790
GlyphClass: 1
Flags: W
LayerCount: 2
Fore
SplineSet
70 0 m 1,0,-1
 70 660 l 1,1,-1
 560 660 l 2,2,3
 730 660 730 660 730 524 c 2,4,-1
 730 386 l 2,5,6
 730 267 730 267 595 250 c 1,7,-1
 760 0 l 1,8,-1
 544 0 l 1,9,-1
 379 250 l 1,10,-1
 270 250 l 1,11,-1
 270 0 l 1,12,-1
 70 0 l 1,0,-1
270 370 m 1,13,-1
 495 370 l 2,14,15
 530 370 530 370 530 398 c 2,16,-1
 530 512 l 2,17,18
 530 540 530 540 495 540 c 2,19,-1
 270 540 l 1,20,-1
 270 370 l 1,13,-1
300 -210 m 1,21,-1
 335 -50 l 1,22,-1
 475 -50 l 1,23,-1
 410 -210 l 1,24,-1
 300 -210 l 1,21,-1
EndSplineSet
Validated: 1
EndChar

StartChar: uni0157
Encoding: 343 343 277
Width: 440
GlyphClass: 1
Flags: W
LayerCount: 2
Fore
SplineSet
45 -210 m 1,0,-1
 80 -50 l 1,1,-1
 220 -50 l 1,2,-1
 155 -210 l 1,3,-1
 45 -210 l 1,0,-1
60 0 m 1,4,-1
 60 370 l 2,5,6
 60 490 60 490 210 490 c 2,7,-1
 410 490 l 1,8,-1
 410 385 l 1,9,-1
 265 385 l 2,10,11
 240 385 240 385 240 365 c 2,12,-1
 240 0 l 1,13,-1
 60 0 l 1,4,-1
EndSplineSet
Validated: 1
EndChar

StartChar: Rcaron
Encoding: 344 344 278
Width: 790
GlyphClass: 1
Flags: W
LayerCount: 2
Fore
SplineSet
70 0 m 1,0,-1
 70 660 l 1,1,-1
 560 660 l 2,2,3
 730 660 730 660 730 524 c 2,4,-1
 730 386 l 2,5,6
 730 267 730 267 595 250 c 1,7,-1
 760 0 l 1,8,-1
 544 0 l 1,9,-1
 379 250 l 1,10,-1
 270 250 l 1,11,-1
 270 0 l 1,12,-1
 70 0 l 1,0,-1
210 880 m 1,13,-1
 337 880 l 1,14,-1
 400 805 l 1,15,-1
 463 880 l 1,16,-1
 590 880 l 1,17,-1
 465 720 l 1,18,-1
 335 720 l 1,19,-1
 210 880 l 1,13,-1
270 370 m 1,20,-1
 495 370 l 2,21,22
 530 370 530 370 530 398 c 2,23,-1
 530 512 l 2,24,25
 530 540 530 540 495 540 c 2,26,-1
 270 540 l 1,27,-1
 270 370 l 1,20,-1
EndSplineSet
Validated: 1
EndChar

StartChar: rcaron
Encoding: 345 345 279
Width: 440
GlyphClass: 1
Flags: W
LayerCount: 2
Fore
SplineSet
45 710 m 1,0,-1
 172 710 l 1,1,-1
 235 635 l 1,2,-1
 298 710 l 1,3,-1
 425 710 l 1,4,-1
 300 550 l 1,5,-1
 170 550 l 1,6,-1
 45 710 l 1,0,-1
60 0 m 1,7,-1
 60 370 l 2,8,9
 60 490 60 490 210 490 c 2,10,-1
 410 490 l 1,11,-1
 410 385 l 1,12,-1
 265 385 l 2,13,14
 240 385 240 385 240 365 c 2,15,-1
 240 0 l 1,16,-1
 60 0 l 1,7,-1
EndSplineSet
Validated: 1
EndChar

StartChar: Sacute
Encoding: 346 346 280
Width: 780
GlyphClass: 1
Flags: W
LayerCount: 2
Fore
SplineSet
60 0 m 1,0,-1
 60 120 l 1,1,-1
 485 120 l 2,2,3
 520 120 520 120 520 148 c 2,4,-1
 520 257 l 2,5,6
 520 285 520 285 485 285 c 2,7,-1
 230 285 l 2,8,9
 60 285 60 285 60 421 c 2,10,-1
 60 524 l 2,11,12
 60 660 60 660 230 660 c 2,13,-1
 670 660 l 1,14,-1
 670 540 l 1,15,-1
 295 540 l 2,16,17
 260 540 260 540 260 512 c 2,18,-1
 260 433 l 2,19,20
 260 405 260 405 295 405 c 2,21,-1
 550 405 l 2,22,23
 720 405 720 405 720 269 c 2,24,-1
 720 136 l 2,25,26
 720 0 720 0 550 0 c 2,27,-1
 60 0 l 1,0,-1
295 720 m 1,28,-1
 405 880 l 1,29,-1
 565 880 l 1,30,-1
 425 720 l 1,31,-1
 295 720 l 1,28,-1
EndSplineSet
Validated: 1
EndChar

StartChar: sacute
Encoding: 347 347 281
Width: 610
GlyphClass: 1
Flags: W
LayerCount: 2
Fore
SplineSet
50 0 m 1,0,-1
 50 105 l 1,1,-1
 355 105 l 2,2,3
 380 105 380 105 380 125 c 2,4,-1
 380 180 l 2,5,6
 380 200 380 200 355 200 c 2,7,-1
 200 200 l 2,8,9
 50 200 50 200 50 320 c 2,10,-1
 50 370 l 2,11,12
 50 490 50 490 200 490 c 2,13,-1
 520 490 l 1,14,-1
 520 385 l 1,15,-1
 255 385 l 2,16,17
 230 385 230 385 230 365 c 2,18,-1
 230 325 l 2,19,20
 230 305 230 305 255 305 c 2,21,-1
 410 305 l 2,22,23
 560 305 560 305 560 185 c 2,24,-1
 560 120 l 2,25,26
 560 0 560 0 410 0 c 2,27,-1
 50 0 l 1,0,-1
210 550 m 1,28,-1
 320 710 l 1,29,-1
 480 710 l 1,30,-1
 340 550 l 1,31,-1
 210 550 l 1,28,-1
EndSplineSet
Validated: 1
EndChar

StartChar: Scircumflex
Encoding: 348 348 282
Width: 780
GlyphClass: 1
Flags: W
LayerCount: 2
Fore
SplineSet
60 0 m 1,0,-1
 60 120 l 1,1,-1
 485 120 l 2,2,3
 520 120 520 120 520 148 c 2,4,-1
 520 257 l 2,5,6
 520 285 520 285 485 285 c 2,7,-1
 230 285 l 2,8,9
 60 285 60 285 60 421 c 2,10,-1
 60 524 l 2,11,12
 60 660 60 660 230 660 c 2,13,-1
 670 660 l 1,14,-1
 670 540 l 1,15,-1
 295 540 l 2,16,17
 260 540 260 540 260 512 c 2,18,-1
 260 433 l 2,19,20
 260 405 260 405 295 405 c 2,21,-1
 550 405 l 2,22,23
 720 405 720 405 720 269 c 2,24,-1
 720 136 l 2,25,26
 720 0 720 0 550 0 c 2,27,-1
 60 0 l 1,0,-1
200 720 m 1,28,-1
 325 880 l 1,29,-1
 455 880 l 1,30,-1
 580 720 l 1,31,-1
 453 720 l 1,32,-1
 390 795 l 1,33,-1
 327 720 l 1,34,-1
 200 720 l 1,28,-1
EndSplineSet
Validated: 1
EndChar

StartChar: scircumflex
Encoding: 349 349 283
Width: 610
GlyphClass: 1
Flags: W
LayerCount: 2
Fore
SplineSet
50 0 m 1,0,-1
 50 105 l 1,1,-1
 355 105 l 2,2,3
 380 105 380 105 380 125 c 2,4,-1
 380 180 l 2,5,6
 380 200 380 200 355 200 c 2,7,-1
 200 200 l 2,8,9
 50 200 50 200 50 320 c 2,10,-1
 50 370 l 2,11,12
 50 490 50 490 200 490 c 2,13,-1
 520 490 l 1,14,-1
 520 385 l 1,15,-1
 255 385 l 2,16,17
 230 385 230 385 230 365 c 2,18,-1
 230 325 l 2,19,20
 230 305 230 305 255 305 c 2,21,-1
 410 305 l 2,22,23
 560 305 560 305 560 185 c 2,24,-1
 560 120 l 2,25,26
 560 0 560 0 410 0 c 2,27,-1
 50 0 l 1,0,-1
115 550 m 1,28,-1
 240 710 l 1,29,-1
 370 710 l 1,30,-1
 495 550 l 1,31,-1
 368 550 l 1,32,-1
 305 625 l 1,33,-1
 242 550 l 1,34,-1
 115 550 l 1,28,-1
EndSplineSet
Validated: 1
EndChar

StartChar: Scedilla
Encoding: 350 350 284
Width: 780
GlyphClass: 1
Flags: W
LayerCount: 2
Fore
SplineSet
60 0 m 1,0,-1
 60 120 l 1,1,-1
 485 120 l 2,2,3
 520 120 520 120 520 148 c 2,4,-1
 520 257 l 2,5,6
 520 285 520 285 485 285 c 2,7,-1
 230 285 l 2,8,9
 60 285 60 285 60 421 c 2,10,-1
 60 524 l 2,11,12
 60 660 60 660 230 660 c 2,13,-1
 670 660 l 1,14,-1
 670 540 l 1,15,-1
 295 540 l 2,16,17
 260 540 260 540 260 512 c 2,18,-1
 260 433 l 2,19,20
 260 405 260 405 295 405 c 2,21,-1
 550 405 l 2,22,23
 720 405 720 405 720 269 c 2,24,-1
 720 136 l 2,25,26
 720 0 720 0 550 0 c 2,27,-1
 525 0 l 1,28,-1
 525 -85 l 2,29,30
 525 -185 525 -185 400 -185 c 2,31,-1
 265 -185 l 1,32,-1
 265 -110 l 1,33,-1
 355 -110 l 2,34,35
 395 -110 395 -110 395 -78 c 2,36,-1
 395 0 l 1,37,-1
 60 0 l 1,0,-1
EndSplineSet
Validated: 1
EndChar

StartChar: scedilla
Encoding: 351 351 285
Width: 610
GlyphClass: 1
Flags: W
LayerCount: 2
Fore
SplineSet
50 0 m 1,0,-1
 50 105 l 1,1,-1
 355 105 l 2,2,3
 380 105 380 105 380 125 c 2,4,-1
 380 180 l 2,5,6
 380 200 380 200 355 200 c 2,7,-1
 200 200 l 2,8,9
 50 200 50 200 50 320 c 2,10,-1
 50 370 l 2,11,12
 50 490 50 490 200 490 c 2,13,-1
 520 490 l 1,14,-1
 520 385 l 1,15,-1
 255 385 l 2,16,17
 230 385 230 385 230 365 c 2,18,-1
 230 325 l 2,19,20
 230 305 230 305 255 305 c 2,21,-1
 410 305 l 2,22,23
 560 305 560 305 560 185 c 2,24,-1
 560 120 l 2,25,26
 560 2 560 2 415 0 c 1,27,-1
 415 -85 l 2,28,29
 415 -185 415 -185 290 -185 c 2,30,-1
 155 -185 l 1,31,-1
 155 -110 l 1,32,-1
 245 -110 l 2,33,34
 285 -110 285 -110 285 -78 c 2,35,-1
 285 0 l 1,36,-1
 50 0 l 1,0,-1
EndSplineSet
Validated: 1
EndChar

StartChar: Scaron
Encoding: 352 352 286
Width: 780
GlyphClass: 1
Flags: W
LayerCount: 2
Fore
SplineSet
60 0 m 1,0,-1
 60 120 l 1,1,-1
 485 120 l 2,2,3
 520 120 520 120 520 148 c 2,4,-1
 520 257 l 2,5,6
 520 285 520 285 485 285 c 2,7,-1
 230 285 l 2,8,9
 60 285 60 285 60 421 c 2,10,-1
 60 524 l 2,11,12
 60 660 60 660 230 660 c 2,13,-1
 670 660 l 1,14,-1
 670 540 l 1,15,-1
 295 540 l 2,16,17
 260 540 260 540 260 512 c 2,18,-1
 260 433 l 2,19,20
 260 405 260 405 295 405 c 2,21,-1
 550 405 l 2,22,23
 720 405 720 405 720 269 c 2,24,-1
 720 136 l 2,25,26
 720 0 720 0 550 0 c 2,27,-1
 60 0 l 1,0,-1
200 880 m 1,28,-1
 327 880 l 1,29,-1
 390 805 l 1,30,-1
 453 880 l 1,31,-1
 580 880 l 1,32,-1
 455 720 l 1,33,-1
 325 720 l 1,34,-1
 200 880 l 1,28,-1
EndSplineSet
Validated: 1
EndChar

StartChar: scaron
Encoding: 353 353 287
Width: 610
GlyphClass: 1
Flags: W
LayerCount: 2
Fore
SplineSet
50 0 m 1,0,-1
 50 105 l 1,1,-1
 355 105 l 2,2,3
 380 105 380 105 380 125 c 2,4,-1
 380 180 l 2,5,6
 380 200 380 200 355 200 c 2,7,-1
 200 200 l 2,8,9
 50 200 50 200 50 320 c 2,10,-1
 50 370 l 2,11,12
 50 490 50 490 200 490 c 2,13,-1
 520 490 l 1,14,-1
 520 385 l 1,15,-1
 255 385 l 2,16,17
 230 385 230 385 230 365 c 2,18,-1
 230 325 l 2,19,20
 230 305 230 305 255 305 c 2,21,-1
 410 305 l 2,22,23
 560 305 560 305 560 185 c 2,24,-1
 560 120 l 2,25,26
 560 0 560 0 410 0 c 2,27,-1
 50 0 l 1,0,-1
115 710 m 1,28,-1
 242 710 l 1,29,-1
 305 635 l 1,30,-1
 368 710 l 1,31,-1
 495 710 l 1,32,-1
 370 550 l 1,33,-1
 240 550 l 1,34,-1
 115 710 l 1,28,-1
EndSplineSet
Validated: 1
EndChar

StartChar: uni0162
Encoding: 354 354 288
Width: 780
GlyphClass: 1
Flags: W
LayerCount: 2
Fore
SplineSet
20 540 m 1,0,-1
 20 660 l 1,1,-1
 760 660 l 1,2,-1
 760 540 l 1,3,-1
 490 540 l 1,4,-1
 490 -85 l 2,5,6
 490 -185 490 -185 365 -185 c 2,7,-1
 230 -185 l 1,8,-1
 230 -110 l 1,9,-1
 320 -110 l 2,10,11
 360 -110 360 -110 360 -78 c 2,12,-1
 360 0 l 1,13,-1
 290 0 l 1,14,-1
 290 540 l 1,15,-1
 20 540 l 1,0,-1
EndSplineSet
Validated: 1
EndChar

StartChar: uni0163
Encoding: 355 355 289
Width: 450
GlyphClass: 1
Flags: W
LayerCount: 2
Fore
SplineSet
60 120 m 2,0,-1
 60 660 l 1,1,-1
 240 660 l 1,2,-1
 240 490 l 1,3,-1
 410 490 l 1,4,-1
 410 385 l 1,5,-1
 240 385 l 1,6,-1
 240 125 l 2,7,8
 240 105 240 105 265 105 c 2,9,-1
 410 105 l 1,10,-1
 410 0 l 1,11,-1
 360 0 l 1,12,-1
 360 -85 l 2,13,14
 360 -185 360 -185 235 -185 c 2,15,-1
 100 -185 l 1,16,-1
 100 -110 l 1,17,-1
 190 -110 l 2,18,19
 230 -110 230 -110 230 -78 c 2,20,-1
 230 0 l 1,21,-1
 210 0 l 2,22,23
 60 0 60 0 60 120 c 2,0,-1
EndSplineSet
Validated: 1
EndChar

StartChar: Tcaron
Encoding: 356 356 290
Width: 780
GlyphClass: 1
Flags: W
LayerCount: 2
Fore
SplineSet
20 540 m 1,0,-1
 20 660 l 1,1,-1
 760 660 l 1,2,-1
 760 540 l 1,3,-1
 490 540 l 1,4,-1
 490 0 l 1,5,-1
 290 0 l 1,6,-1
 290 540 l 1,7,-1
 20 540 l 1,0,-1
200 880 m 1,8,-1
 327 880 l 1,9,-1
 390 805 l 1,10,-1
 453 880 l 1,11,-1
 580 880 l 1,12,-1
 455 720 l 1,13,-1
 325 720 l 1,14,-1
 200 880 l 1,8,-1
EndSplineSet
Validated: 1
EndChar

StartChar: tcaron
Encoding: 357 357 291
Width: 450
GlyphClass: 1
Flags: W
LayerCount: 2
Fore
SplineSet
60 120 m 2,0,-1
 60 660 l 1,1,-1
 240 660 l 1,2,-1
 240 490 l 1,3,-1
 410 490 l 1,4,-1
 410 385 l 1,5,-1
 240 385 l 1,6,-1
 240 125 l 2,7,8
 240 105 240 105 265 105 c 2,9,-1
 410 105 l 1,10,-1
 410 0 l 1,11,-1
 210 0 l 2,12,13
 60 0 60 0 60 120 c 2,0,-1
305 580 m 1,14,-1
 340 740 l 1,15,-1
 480 740 l 1,16,-1
 415 580 l 1,17,-1
 305 580 l 1,14,-1
EndSplineSet
Validated: 1
EndChar

StartChar: Tbar
Encoding: 358 358 292
Width: 780
GlyphClass: 1
Flags: W
LayerCount: 2
Fore
SplineSet
20 540 m 1,0,-1
 20 660 l 1,1,-1
 760 660 l 1,2,-1
 760 540 l 1,3,-1
 490 540 l 1,4,-1
 490 395 l 1,5,-1
 640 395 l 1,6,-1
 640 295 l 1,7,-1
 490 295 l 1,8,-1
 490 0 l 1,9,-1
 290 0 l 1,10,-1
 290 295 l 1,11,-1
 140 295 l 1,12,-1
 140 395 l 1,13,-1
 290 395 l 1,14,-1
 290 540 l 1,15,-1
 20 540 l 1,0,-1
EndSplineSet
Validated: 1
EndChar

StartChar: tbar
Encoding: 359 359 293
Width: 470
GlyphClass: 1
Flags: W
LayerCount: 2
Fore
SplineSet
10 215 m 1,0,-1
 10 295 l 1,1,-1
 80 295 l 1,2,-1
 80 660 l 1,3,-1
 260 660 l 1,4,-1
 260 490 l 1,5,-1
 430 490 l 1,6,-1
 430 385 l 1,7,-1
 260 385 l 1,8,-1
 260 295 l 1,9,-1
 420 295 l 1,10,-1
 420 215 l 1,11,-1
 260 215 l 1,12,-1
 260 125 l 2,13,14
 260 105 260 105 285 105 c 2,15,-1
 430 105 l 1,16,-1
 430 0 l 1,17,-1
 230 0 l 2,18,19
 80 0 80 0 80 120 c 2,20,-1
 80 215 l 1,21,-1
 10 215 l 1,0,-1
EndSplineSet
Validated: 1
EndChar

StartChar: Utilde
Encoding: 360 360 294
Width: 830
GlyphClass: 1
Flags: W
LayerCount: 2
Fore
SplineSet
70 136 m 2,0,-1
 70 660 l 1,1,-1
 270 660 l 1,2,-1
 270 148 l 2,3,4
 270 120 270 120 305 120 c 2,5,-1
 525 120 l 2,6,7
 560 120 560 120 560 148 c 2,8,-1
 560 660 l 1,9,-1
 760 660 l 1,10,-1
 760 136 l 2,11,12
 760 0 760 0 590 0 c 2,13,-1
 240 0 l 2,14,15
 70 0 70 0 70 136 c 2,0,-1
225 785 m 1,16,-1
 290 850 l 2,17,18
 320 880 320 880 360 880 c 128,-1,19
 400 880 400 880 430 850 c 2,20,-1
 450 830 l 2,21,22
 462 818 462 818 470 818 c 128,-1,23
 478 818 478 818 490 830 c 2,24,-1
 540 880 l 1,25,-1
 605 815 l 1,26,-1
 540 750 l 2,27,28
 510 720 510 720 470 720 c 128,-1,29
 430 720 430 720 400 750 c 2,30,-1
 380 770 l 2,31,32
 368 782 368 782 360 782 c 128,-1,33
 352 782 352 782 340 770 c 2,34,-1
 290 720 l 1,35,-1
 225 785 l 1,16,-1
EndSplineSet
Validated: 1
EndChar

StartChar: utilde
Encoding: 361 361 295
Width: 680
GlyphClass: 1
Flags: W
LayerCount: 2
Fore
SplineSet
60 120 m 2,0,-1
 60 490 l 1,1,-1
 240 490 l 1,2,-1
 240 125 l 2,3,4
 240 105 240 105 265 105 c 2,5,-1
 440 105 l 1,6,-1
 440 490 l 1,7,-1
 620 490 l 1,8,-1
 620 0 l 1,9,-1
 210 0 l 2,10,11
 60 0 60 0 60 120 c 2,0,-1
150 615 m 1,12,-1
 215 680 l 2,13,14
 245 710 245 710 285 710 c 128,-1,15
 325 710 325 710 355 680 c 2,16,-1
 375 660 l 2,17,18
 387 648 387 648 395 648 c 128,-1,19
 403 648 403 648 415 660 c 2,20,-1
 465 710 l 1,21,-1
 530 645 l 1,22,-1
 465 580 l 2,23,24
 435 550 435 550 395 550 c 128,-1,25
 355 550 355 550 325 580 c 2,26,-1
 305 600 l 2,27,28
 293 612 293 612 285 612 c 128,-1,29
 277 612 277 612 265 600 c 2,30,-1
 215 550 l 1,31,-1
 150 615 l 1,12,-1
EndSplineSet
Validated: 1
EndChar

StartChar: Umacron
Encoding: 362 362 296
Width: 830
GlyphClass: 1
Flags: W
LayerCount: 2
Fore
SplineSet
70 136 m 2,0,-1
 70 660 l 1,1,-1
 270 660 l 1,2,-1
 270 148 l 2,3,4
 270 120 270 120 305 120 c 2,5,-1
 525 120 l 2,6,7
 560 120 560 120 560 148 c 2,8,-1
 560 660 l 1,9,-1
 760 660 l 1,10,-1
 760 136 l 2,11,12
 760 0 760 0 590 0 c 2,13,-1
 240 0 l 2,14,15
 70 0 70 0 70 136 c 2,0,-1
240 750 m 1,16,-1
 240 845 l 1,17,-1
 590 845 l 1,18,-1
 590 750 l 1,19,-1
 240 750 l 1,16,-1
EndSplineSet
Validated: 1
EndChar

StartChar: umacron
Encoding: 363 363 297
Width: 680
GlyphClass: 1
Flags: W
LayerCount: 2
Fore
SplineSet
60 120 m 2,0,-1
 60 490 l 1,1,-1
 240 490 l 1,2,-1
 240 125 l 2,3,4
 240 105 240 105 265 105 c 2,5,-1
 440 105 l 1,6,-1
 440 490 l 1,7,-1
 620 490 l 1,8,-1
 620 0 l 1,9,-1
 210 0 l 2,10,11
 60 0 60 0 60 120 c 2,0,-1
165 580 m 1,12,-1
 165 675 l 1,13,-1
 515 675 l 1,14,-1
 515 580 l 1,15,-1
 165 580 l 1,12,-1
EndSplineSet
Validated: 1
EndChar

StartChar: Ubreve
Encoding: 364 364 298
Width: 830
GlyphClass: 1
Flags: W
LayerCount: 2
Fore
SplineSet
70 136 m 2,0,-1
 70 660 l 1,1,-1
 270 660 l 1,2,-1
 270 148 l 2,3,4
 270 120 270 120 305 120 c 2,5,-1
 525 120 l 2,6,7
 560 120 560 120 560 148 c 2,8,-1
 560 660 l 1,9,-1
 760 660 l 1,10,-1
 760 136 l 2,11,12
 760 0 760 0 590 0 c 2,13,-1
 240 0 l 2,14,15
 70 0 70 0 70 136 c 2,0,-1
260 792 m 2,16,-1
 260 880 l 1,17,-1
 360 880 l 1,18,-1
 360 797 l 2,19,20
 360 785 360 785 375 785 c 2,21,-1
 455 785 l 2,22,23
 470 785 470 785 470 797 c 2,24,-1
 470 880 l 1,25,-1
 570 880 l 1,26,-1
 570 792 l 2,27,28
 570 720 570 720 480 720 c 2,29,-1
 350 720 l 2,30,31
 260 720 260 720 260 792 c 2,16,-1
EndSplineSet
Validated: 1
EndChar

StartChar: ubreve
Encoding: 365 365 299
Width: 680
GlyphClass: 1
Flags: W
LayerCount: 2
Fore
SplineSet
60 120 m 2,0,-1
 60 490 l 1,1,-1
 240 490 l 1,2,-1
 240 125 l 2,3,4
 240 105 240 105 265 105 c 2,5,-1
 440 105 l 1,6,-1
 440 490 l 1,7,-1
 620 490 l 1,8,-1
 620 0 l 1,9,-1
 210 0 l 2,10,11
 60 0 60 0 60 120 c 2,0,-1
185 622 m 2,12,-1
 185 710 l 1,13,-1
 285 710 l 1,14,-1
 285 627 l 2,15,16
 285 615 285 615 300 615 c 2,17,-1
 380 615 l 2,18,19
 395 615 395 615 395 627 c 2,20,-1
 395 710 l 1,21,-1
 495 710 l 1,22,-1
 495 622 l 2,23,24
 495 550 495 550 405 550 c 2,25,-1
 275 550 l 2,26,27
 185 550 185 550 185 622 c 2,12,-1
EndSplineSet
Validated: 1
EndChar

StartChar: Uring
Encoding: 366 366 300
Width: 830
GlyphClass: 1
Flags: W
LayerCount: 2
Fore
SplineSet
70 136 m 2,0,-1
 70 660 l 1,1,-1
 270 660 l 1,2,-1
 270 148 l 2,3,4
 270 120 270 120 305 120 c 2,5,-1
 525 120 l 2,6,7
 560 120 560 120 560 148 c 2,8,-1
 560 660 l 1,9,-1
 760 660 l 1,10,-1
 760 136 l 2,11,12
 760 0 760 0 590 0 c 2,13,-1
 240 0 l 2,14,15
 70 0 70 0 70 136 c 2,0,-1
265 757 m 2,16,-1
 265 818 l 2,17,18
 265 890 265 890 355 890 c 2,19,-1
 475 890 l 2,20,21
 565 890 565 890 565 818 c 2,22,-1
 565 757 l 2,23,24
 565 685 565 685 475 685 c 2,25,-1
 355 685 l 2,26,27
 265 685 265 685 265 757 c 2,16,-1
365 757 m 2,28,29
 365 745 365 745 380 745 c 2,30,-1
 450 745 l 2,31,32
 465 745 465 745 465 757 c 2,33,-1
 465 818 l 2,34,35
 465 830 465 830 450 830 c 2,36,-1
 380 830 l 2,37,38
 365 830 365 830 365 818 c 2,39,-1
 365 757 l 2,28,29
EndSplineSet
Validated: 1
EndChar

StartChar: uring
Encoding: 367 367 301
Width: 680
GlyphClass: 1
Flags: W
LayerCount: 2
Fore
SplineSet
60 120 m 2,0,-1
 60 490 l 1,1,-1
 240 490 l 1,2,-1
 240 125 l 2,3,4
 240 105 240 105 265 105 c 2,5,-1
 440 105 l 1,6,-1
 440 490 l 1,7,-1
 620 490 l 1,8,-1
 620 0 l 1,9,-1
 210 0 l 2,10,11
 60 0 60 0 60 120 c 2,0,-1
190 622 m 2,12,-1
 190 683 l 2,13,14
 190 755 190 755 280 755 c 2,15,-1
 400 755 l 2,16,17
 490 755 490 755 490 683 c 2,18,-1
 490 622 l 2,19,20
 490 550 490 550 400 550 c 2,21,-1
 280 550 l 2,22,23
 190 550 190 550 190 622 c 2,12,-1
290 622 m 2,24,25
 290 610 290 610 305 610 c 2,26,-1
 375 610 l 2,27,28
 390 610 390 610 390 622 c 2,29,-1
 390 683 l 2,30,31
 390 695 390 695 375 695 c 2,32,-1
 305 695 l 2,33,34
 290 695 290 695 290 683 c 2,35,-1
 290 622 l 2,24,25
EndSplineSet
Validated: 1
EndChar

StartChar: Uhungarumlaut
Encoding: 368 368 302
Width: 830
GlyphClass: 1
Flags: W
LayerCount: 2
Fore
SplineSet
70 136 m 2,0,-1
 70 660 l 1,1,-1
 270 660 l 1,2,-1
 270 148 l 2,3,4
 270 120 270 120 305 120 c 2,5,-1
 525 120 l 2,6,7
 560 120 560 120 560 148 c 2,8,-1
 560 660 l 1,9,-1
 760 660 l 1,10,-1
 760 136 l 2,11,12
 760 0 760 0 590 0 c 2,13,-1
 240 0 l 2,14,15
 70 0 70 0 70 136 c 2,0,-1
235 720 m 1,16,-1
 335 880 l 1,17,-1
 480 880 l 1,18,-1
 350 720 l 1,19,-1
 235 720 l 1,16,-1
440 720 m 1,20,-1
 540 880 l 1,21,-1
 685 880 l 1,22,-1
 555 720 l 1,23,-1
 440 720 l 1,20,-1
EndSplineSet
Validated: 1
EndChar

StartChar: uhungarumlaut
Encoding: 369 369 303
Width: 680
GlyphClass: 1
Flags: W
LayerCount: 2
Fore
SplineSet
60 120 m 2,0,-1
 60 490 l 1,1,-1
 240 490 l 1,2,-1
 240 125 l 2,3,4
 240 105 240 105 265 105 c 2,5,-1
 440 105 l 1,6,-1
 440 490 l 1,7,-1
 620 490 l 1,8,-1
 620 0 l 1,9,-1
 210 0 l 2,10,11
 60 0 60 0 60 120 c 2,0,-1
160 550 m 1,12,-1
 260 710 l 1,13,-1
 405 710 l 1,14,-1
 275 550 l 1,15,-1
 160 550 l 1,12,-1
365 550 m 1,16,-1
 465 710 l 1,17,-1
 610 710 l 1,18,-1
 480 550 l 1,19,-1
 365 550 l 1,16,-1
EndSplineSet
Validated: 1
EndChar

StartChar: Uogonek
Encoding: 370 370 304
Width: 830
GlyphClass: 1
Flags: W
LayerCount: 2
Fore
SplineSet
70 136 m 2,0,-1
 70 660 l 1,1,-1
 270 660 l 1,2,-1
 270 148 l 2,3,4
 270 120 270 120 305 120 c 2,5,-1
 525 120 l 2,6,7
 560 120 560 120 560 148 c 2,8,-1
 560 660 l 1,9,-1
 760 660 l 1,10,-1
 760 136 l 2,11,12
 760 0 760 0 590 0 c 2,13,-1
 580 0 l 2,14,15
 540 0 540 0 540 -32 c 2,16,-1
 540 -78 l 2,17,18
 540 -110 540 -110 580 -110 c 2,19,-1
 660 -110 l 1,20,-1
 660 -185 l 1,21,-1
 535 -185 l 2,22,23
 410 -185 410 -185 410 -85 c 2,24,-1
 410 0 l 1,25,-1
 240 0 l 2,26,27
 70 0 70 0 70 136 c 2,0,-1
EndSplineSet
Validated: 1
EndChar

StartChar: uogonek
Encoding: 371 371 305
Width: 680
GlyphClass: 1
Flags: W
LayerCount: 2
Fore
SplineSet
60 120 m 2,0,-1
 60 490 l 1,1,-1
 240 490 l 1,2,-1
 240 125 l 2,3,4
 240 105 240 105 265 105 c 2,5,-1
 440 105 l 1,6,-1
 440 490 l 1,7,-1
 620 490 l 1,8,-1
 620 0 l 1,9,-1
 540 0 l 2,10,11
 500 0 500 0 500 -32 c 2,12,-1
 500 -78 l 2,13,14
 500 -110 500 -110 540 -110 c 2,15,-1
 620 -110 l 1,16,-1
 620 -185 l 1,17,-1
 495 -185 l 2,18,19
 370 -185 370 -185 370 -85 c 2,20,-1
 370 0 l 1,21,-1
 210 0 l 2,22,23
 60 0 60 0 60 120 c 2,0,-1
EndSplineSet
Validated: 1
EndChar

StartChar: Wcircumflex
Encoding: 372 372 306
Width: 1200
GlyphClass: 1
Flags: W
LayerCount: 2
Fore
SplineSet
15 660 m 1,0,-1
 210 660 l 1,1,-1
 341 195 l 1,2,-1
 495 660 l 1,3,-1
 705 660 l 1,4,-1
 859 195 l 1,5,-1
 990 660 l 1,6,-1
 1185 660 l 1,7,-1
 1000 0 l 1,8,-1
 745 0 l 1,9,-1
 600 437 l 1,10,-1
 455 0 l 1,11,-1
 200 0 l 1,12,-1
 15 660 l 1,0,-1
410 720 m 1,13,-1
 535 880 l 1,14,-1
 665 880 l 1,15,-1
 790 720 l 1,16,-1
 663 720 l 1,17,-1
 600 795 l 1,18,-1
 537 720 l 1,19,-1
 410 720 l 1,13,-1
EndSplineSet
Validated: 1
EndChar

StartChar: wcircumflex
Encoding: 373 373 307
Width: 930
GlyphClass: 1
Flags: W
LayerCount: 2
Fore
SplineSet
10 490 m 1,0,-1
 180 490 l 1,1,-1
 281 170 l 1,2,-1
 382 490 l 1,3,-1
 548 490 l 1,4,-1
 649 170 l 1,5,-1
 750 490 l 1,6,-1
 920 490 l 1,7,-1
 765 0 l 1,8,-1
 560 0 l 1,9,-1
 465 301 l 1,10,-1
 370 0 l 1,11,-1
 165 0 l 1,12,-1
 10 490 l 1,0,-1
275 550 m 1,13,-1
 400 710 l 1,14,-1
 530 710 l 1,15,-1
 655 550 l 1,16,-1
 528 550 l 1,17,-1
 465 625 l 1,18,-1
 402 550 l 1,19,-1
 275 550 l 1,13,-1
EndSplineSet
Validated: 1
EndChar

StartChar: Ycircumflex
Encoding: 374 374 308
Width: 810
GlyphClass: 1
Flags: W
LayerCount: 2
Fore
SplineSet
5 660 m 1,0,-1
 221 660 l 1,1,-1
 405 405 l 1,2,-1
 589 660 l 1,3,-1
 805 660 l 1,4,-1
 505 245 l 1,5,-1
 505 0 l 1,6,-1
 305 0 l 1,7,-1
 305 245 l 1,8,-1
 5 660 l 1,0,-1
215 720 m 1,9,-1
 340 880 l 1,10,-1
 470 880 l 1,11,-1
 595 720 l 1,12,-1
 468 720 l 1,13,-1
 405 795 l 1,14,-1
 342 720 l 1,15,-1
 215 720 l 1,9,-1
EndSplineSet
Validated: 1
EndChar

StartChar: ycircumflex
Encoding: 375 375 309
Width: 680
GlyphClass: 1
Flags: W
LayerCount: 2
Fore
SplineSet
10 490 m 1,0,-1
 188 490 l 1,1,-1
 340 158 l 1,2,-1
 492 490 l 1,3,-1
 670 490 l 1,4,-1
 350 -210 l 1,5,-1
 172 -210 l 1,6,-1
 251 -37 l 1,7,-1
 10 490 l 1,0,-1
150 550 m 1,8,-1
 275 710 l 1,9,-1
 405 710 l 1,10,-1
 530 550 l 1,11,-1
 403 550 l 1,12,-1
 340 625 l 1,13,-1
 277 550 l 1,14,-1
 150 550 l 1,8,-1
EndSplineSet
Validated: 1
EndChar

StartChar: Ydieresis
Encoding: 376 376 310
Width: 810
GlyphClass: 1
Flags: W
LayerCount: 2
Fore
SplineSet
5 660 m 1,0,-1
 221 660 l 1,1,-1
 405 405 l 1,2,-1
 589 660 l 1,3,-1
 805 660 l 1,4,-1
 505 245 l 1,5,-1
 505 0 l 1,6,-1
 305 0 l 1,7,-1
 305 245 l 1,8,-1
 5 660 l 1,0,-1
220 740 m 1,9,-1
 220 860 l 1,10,-1
 360 860 l 1,11,-1
 360 740 l 1,12,-1
 220 740 l 1,9,-1
450 740 m 1,13,-1
 450 860 l 1,14,-1
 590 860 l 1,15,-1
 590 740 l 1,16,-1
 450 740 l 1,13,-1
EndSplineSet
Validated: 1
EndChar

StartChar: Zacute
Encoding: 377 377 311
Width: 750
GlyphClass: 1
Flags: W
LayerCount: 2
Fore
SplineSet
40 0 m 1,0,-1
 40 120 l 1,1,-1
 455 540 l 1,2,-1
 50 540 l 1,3,-1
 50 660 l 1,4,-1
 700 660 l 1,5,-1
 700 540 l 1,6,-1
 285 120 l 1,7,-1
 710 120 l 1,8,-1
 710 0 l 1,9,-1
 40 0 l 1,0,-1
280 720 m 1,10,-1
 390 880 l 1,11,-1
 550 880 l 1,12,-1
 410 720 l 1,13,-1
 280 720 l 1,10,-1
EndSplineSet
Validated: 1
EndChar

StartChar: zacute
Encoding: 378 378 312
Width: 620
GlyphClass: 1
Flags: W
LayerCount: 2
Fore
SplineSet
40 0 m 1,0,-1
 40 105 l 1,1,-1
 343 385 l 1,2,-1
 50 385 l 1,3,-1
 50 490 l 1,4,-1
 570 490 l 1,5,-1
 570 385 l 1,6,-1
 267 105 l 1,7,-1
 580 105 l 1,8,-1
 580 0 l 1,9,-1
 40 0 l 1,0,-1
215 550 m 1,10,-1
 325 710 l 1,11,-1
 485 710 l 1,12,-1
 345 550 l 1,13,-1
 215 550 l 1,10,-1
EndSplineSet
Validated: 1
EndChar

StartChar: Zdotaccent
Encoding: 379 379 313
Width: 750
GlyphClass: 1
Flags: W
LayerCount: 2
Fore
SplineSet
40 0 m 1,0,-1
 40 120 l 1,1,-1
 455 540 l 1,2,-1
 50 540 l 1,3,-1
 50 660 l 1,4,-1
 700 660 l 1,5,-1
 700 540 l 1,6,-1
 285 120 l 1,7,-1
 710 120 l 1,8,-1
 710 0 l 1,9,-1
 40 0 l 1,0,-1
295 740 m 1,10,-1
 295 860 l 1,11,-1
 455 860 l 1,12,-1
 455 740 l 1,13,-1
 295 740 l 1,10,-1
EndSplineSet
Validated: 1
EndChar

StartChar: zdotaccent
Encoding: 380 380 314
Width: 620
GlyphClass: 1
Flags: W
LayerCount: 2
Fore
SplineSet
40 0 m 1,0,-1
 40 105 l 1,1,-1
 343 385 l 1,2,-1
 50 385 l 1,3,-1
 50 490 l 1,4,-1
 570 490 l 1,5,-1
 570 385 l 1,6,-1
 267 105 l 1,7,-1
 580 105 l 1,8,-1
 580 0 l 1,9,-1
 40 0 l 1,0,-1
230 570 m 1,10,-1
 230 690 l 1,11,-1
 390 690 l 1,12,-1
 390 570 l 1,13,-1
 230 570 l 1,10,-1
EndSplineSet
Validated: 1
EndChar

StartChar: Zcaron
Encoding: 381 381 315
Width: 750
GlyphClass: 1
Flags: W
LayerCount: 2
Fore
SplineSet
40 0 m 1,0,-1
 40 120 l 1,1,-1
 455 540 l 1,2,-1
 50 540 l 1,3,-1
 50 660 l 1,4,-1
 700 660 l 1,5,-1
 700 540 l 1,6,-1
 285 120 l 1,7,-1
 710 120 l 1,8,-1
 710 0 l 1,9,-1
 40 0 l 1,0,-1
185 880 m 1,10,-1
 312 880 l 1,11,-1
 375 805 l 1,12,-1
 438 880 l 1,13,-1
 565 880 l 1,14,-1
 440 720 l 1,15,-1
 310 720 l 1,16,-1
 185 880 l 1,10,-1
EndSplineSet
Validated: 1
EndChar

StartChar: zcaron
Encoding: 382 382 316
Width: 620
GlyphClass: 1
Flags: W
LayerCount: 2
Fore
SplineSet
40 0 m 1,0,-1
 40 105 l 1,1,-1
 343 385 l 1,2,-1
 50 385 l 1,3,-1
 50 490 l 1,4,-1
 570 490 l 1,5,-1
 570 385 l 1,6,-1
 267 105 l 1,7,-1
 580 105 l 1,8,-1
 580 0 l 1,9,-1
 40 0 l 1,0,-1
120 710 m 1,10,-1
 247 710 l 1,11,-1
 310 635 l 1,12,-1
 373 710 l 1,13,-1
 500 710 l 1,14,-1
 375 550 l 1,15,-1
 245 550 l 1,16,-1
 120 710 l 1,10,-1
EndSplineSet
Validated: 1
EndChar

StartChar: figuredash
Encoding: 8210 8210 317
Width: 740
GlyphClass: 1
Flags: W
LayerCount: 2
Fore
SplineSet
160 225 m 1,0,-1
 160 345 l 1,1,-1
 580 345 l 1,2,-1
 580 225 l 1,3,-1
 160 225 l 1,0,-1
EndSplineSet
Validated: 1
EndChar

StartChar: endash
Encoding: 8211 8211 318
Width: 640
GlyphClass: 1
Flags: W
LayerCount: 2
Fore
SplineSet
40 225 m 1,0,-1
 40 345 l 1,1,-1
 600 345 l 1,2,-1
 600 225 l 1,3,-1
 40 225 l 1,0,-1
EndSplineSet
Validated: 1
EndChar

StartChar: emdash
Encoding: 8212 8212 319
Width: 1000
GlyphClass: 1
Flags: W
LayerCount: 2
Fore
SplineSet
40 225 m 1,0,-1
 40 345 l 1,1,-1
 960 345 l 1,2,-1
 960 225 l 1,3,-1
 40 225 l 1,0,-1
EndSplineSet
Validated: 1
EndChar

StartChar: uni2015
Encoding: 8213 8213 320
Width: 1000
GlyphClass: 1
Flags: W
LayerCount: 2
Fore
SplineSet
0 225 m 1,0,-1
 0 345 l 1,1,-1
 1000 345 l 1,2,-1
 1000 225 l 1,3,-1
 0 225 l 1,0,-1
EndSplineSet
Validated: 1
EndChar

StartChar: quoteleft
Encoding: 8216 8216 321
Width: 340
GlyphClass: 1
Flags: W
LayerCount: 2
Fore
SplineSet
40 380 m 1,0,-1
 155 660 l 1,1,-1
 290 660 l 1,2,-1
 220 380 l 1,3,-1
 40 380 l 1,0,-1
EndSplineSet
Validated: 1
EndChar

StartChar: quoteright
Encoding: 8217 8217 322
Width: 340
GlyphClass: 1
Flags: W
LayerCount: 2
Fore
SplineSet
50 380 m 1,0,-1
 120 660 l 1,1,-1
 300 660 l 1,2,-1
 185 380 l 1,3,-1
 50 380 l 1,0,-1
EndSplineSet
Validated: 1
EndChar

StartChar: quotesinglbase
Encoding: 8218 8218 323
Width: 340
GlyphClass: 1
Flags: W
LayerCount: 2
Fore
SplineSet
25 -130 m 1,0,-1
 95 150 l 1,1,-1
 275 150 l 1,2,-1
 160 -130 l 1,3,-1
 25 -130 l 1,0,-1
EndSplineSet
Validated: 1
EndChar

StartChar: quotereversed
Encoding: 8219 8219 324
Width: 340
GlyphClass: 1
Flags: W
LayerCount: 2
Fore
SplineSet
40 660 m 1,0,-1
 220 660 l 1,1,-1
 290 380 l 1,2,-1
 155 380 l 1,3,-1
 40 660 l 1,0,-1
EndSplineSet
Validated: 1
EndChar

StartChar: quotedblleft
Encoding: 8220 8220 325
Width: 600
GlyphClass: 1
Flags: W
LayerCount: 2
Fore
SplineSet
40 380 m 1,0,-1
 155 660 l 1,1,-1
 290 660 l 1,2,-1
 220 380 l 1,3,-1
 40 380 l 1,0,-1
300 380 m 1,4,-1
 415 660 l 1,5,-1
 550 660 l 1,6,-1
 480 380 l 1,7,-1
 300 380 l 1,4,-1
EndSplineSet
Validated: 1
EndChar

StartChar: quotedblright
Encoding: 8221 8221 326
Width: 600
GlyphClass: 1
Flags: W
LayerCount: 2
Fore
SplineSet
50 380 m 1,0,-1
 120 660 l 1,1,-1
 300 660 l 1,2,-1
 185 380 l 1,3,-1
 50 380 l 1,0,-1
310 380 m 1,4,-1
 380 660 l 1,5,-1
 560 660 l 1,6,-1
 445 380 l 1,7,-1
 310 380 l 1,4,-1
EndSplineSet
Validated: 1
EndChar

StartChar: quotedblbase
Encoding: 8222 8222 327
Width: 600
GlyphClass: 1
Flags: W
LayerCount: 2
Fore
SplineSet
25 -130 m 1,0,-1
 95 150 l 1,1,-1
 275 150 l 1,2,-1
 160 -130 l 1,3,-1
 25 -130 l 1,0,-1
285 -130 m 1,4,-1
 355 150 l 1,5,-1
 535 150 l 1,6,-1
 420 -130 l 1,7,-1
 285 -130 l 1,4,-1
EndSplineSet
Validated: 1
EndChar

StartChar: uni201F
Encoding: 8223 8223 328
Width: 600
GlyphClass: 1
Flags: W
LayerCount: 2
Fore
SplineSet
40 660 m 1,0,-1
 220 660 l 1,1,-1
 290 380 l 1,2,-1
 155 380 l 1,3,-1
 40 660 l 1,0,-1
300 660 m 1,4,-1
 480 660 l 1,5,-1
 550 380 l 1,6,-1
 415 380 l 1,7,-1
 300 660 l 1,4,-1
EndSplineSet
Validated: 1
EndChar

StartChar: dagger
Encoding: 8224 8224 329
Width: 640
GlyphClass: 1
Flags: W
LayerCount: 2
Fore
SplineSet
50 385 m 1,0,-1
 50 490 l 1,1,-1
 230 490 l 1,2,-1
 230 660 l 1,3,-1
 410 660 l 1,4,-1
 410 490 l 1,5,-1
 590 490 l 1,6,-1
 590 385 l 1,7,-1
 410 385 l 1,8,-1
 410 -105 l 1,9,-1
 230 -105 l 1,10,-1
 230 385 l 1,11,-1
 50 385 l 1,0,-1
EndSplineSet
Validated: 1
EndChar

StartChar: daggerdbl
Encoding: 8225 8225 330
Width: 640
GlyphClass: 1
Flags: W
LayerCount: 2
Fore
SplineSet
50 65 m 1,0,-1
 50 170 l 1,1,-1
 230 170 l 1,2,-1
 230 385 l 1,3,-1
 50 385 l 1,4,-1
 50 490 l 1,5,-1
 230 490 l 1,6,-1
 230 660 l 1,7,-1
 410 660 l 1,8,-1
 410 490 l 1,9,-1
 590 490 l 1,10,-1
 590 385 l 1,11,-1
 410 385 l 1,12,-1
 410 170 l 1,13,-1
 590 170 l 1,14,-1
 590 65 l 1,15,-1
 410 65 l 1,16,-1
 410 -105 l 1,17,-1
 230 -105 l 1,18,-1
 230 65 l 1,19,-1
 50 65 l 1,0,-1
EndSplineSet
Validated: 1
EndChar

StartChar: bullet
Encoding: 8226 8226 331
Width: 430
GlyphClass: 1
Flags: W
LayerCount: 2
Fore
SplineSet
75 180 m 1,0,-1
 75 440 l 1,1,-1
 355 440 l 1,2,-1
 355 180 l 1,3,-1
 75 180 l 1,0,-1
EndSplineSet
Validated: 1
EndChar

StartChar: ellipsis
Encoding: 8230 8230 332
Width: 1020
GlyphClass: 1
Flags: W
LayerCount: 2
Fore
SplineSet
75 0 m 1,0,-1
 75 150 l 1,1,-1
 265 150 l 1,2,-1
 265 0 l 1,3,-1
 75 0 l 1,0,-1
415 0 m 1,4,-1
 415 150 l 1,5,-1
 605 150 l 1,6,-1
 605 0 l 1,7,-1
 415 0 l 1,4,-1
755 0 m 1,8,-1
 755 150 l 1,9,-1
 945 150 l 1,10,-1
 945 0 l 1,11,-1
 755 0 l 1,8,-1
EndSplineSet
Validated: 1
EndChar

StartChar: perthousand
Encoding: 8240 8240 334
Width: 1570
GlyphClass: 1
Flags: W
LayerCount: 2
Fore
SplineSet
40 364 m 2,0,-1
 40 576 l 2,1,2
 40 660 40 660 145 660 c 2,3,-1
 315 660 l 2,4,5
 420 660 420 660 420 576 c 2,6,-1
 420 364 l 2,7,8
 420 280 420 280 315 280 c 2,9,-1
 145 280 l 2,10,11
 40 280 40 280 40 364 c 2,0,-1
180 376 m 2,12,13
 180 360 180 360 200 360 c 2,14,-1
 260 360 l 2,15,16
 280 360 280 360 280 376 c 2,17,-1
 280 564 l 2,18,19
 280 580 280 580 260 580 c 2,20,-1
 200 580 l 2,21,22
 180 580 180 580 180 564 c 2,23,-1
 180 376 l 2,12,13
295 0 m 1,24,-1
 657 660 l 1,25,-1
 815 660 l 1,26,-1
 453 0 l 1,27,-1
 295 0 l 1,24,-1
690 84 m 2,28,-1
 690 296 l 2,29,30
 690 380 690 380 795 380 c 2,31,-1
 965 380 l 2,32,33
 1070 380 1070 380 1070 296 c 2,34,-1
 1070 84 l 2,35,36
 1070 0 1070 0 965 0 c 2,37,-1
 795 0 l 2,38,39
 690 0 690 0 690 84 c 2,28,-1
830 96 m 2,40,41
 830 80 830 80 850 80 c 2,42,-1
 910 80 l 2,43,44
 930 80 930 80 930 96 c 2,45,-1
 930 284 l 2,46,47
 930 300 930 300 910 300 c 2,48,-1
 850 300 l 2,49,50
 830 300 830 300 830 284 c 2,51,-1
 830 96 l 2,40,41
1150 84 m 2,52,-1
 1150 296 l 2,53,54
 1150 380 1150 380 1255 380 c 2,55,-1
 1425 380 l 2,56,57
 1530 380 1530 380 1530 296 c 2,58,-1
 1530 84 l 2,59,60
 1530 0 1530 0 1425 0 c 2,61,-1
 1255 0 l 2,62,63
 1150 0 1150 0 1150 84 c 2,52,-1
1290 96 m 2,64,65
 1290 80 1290 80 1310 80 c 2,66,-1
 1370 80 l 2,67,68
 1390 80 1390 80 1390 96 c 2,69,-1
 1390 284 l 2,70,71
 1390 300 1390 300 1370 300 c 2,72,-1
 1310 300 l 2,73,74
 1290 300 1290 300 1290 284 c 2,75,-1
 1290 96 l 2,64,65
EndSplineSet
Validated: 1
EndChar

StartChar: minute
Encoding: 8242 8242 335
Width: 300
GlyphClass: 1
Flags: W
LayerCount: 2
Fore
SplineSet
70 380 m 1,0,-1
 70 660 l 1,1,-1
 230 660 l 1,2,-1
 230 380 l 1,3,-1
 70 380 l 1,0,-1
EndSplineSet
Validated: 1
EndChar

StartChar: second
Encoding: 8243 8243 336
Width: 560
GlyphClass: 1
Flags: W
LayerCount: 2
Fore
SplineSet
70 380 m 1,0,-1
 70 660 l 1,1,-1
 230 660 l 1,2,-1
 230 380 l 1,3,-1
 70 380 l 1,0,-1
330 380 m 1,4,-1
 330 660 l 1,5,-1
 490 660 l 1,6,-1
 490 380 l 1,7,-1
 330 380 l 1,4,-1
EndSplineSet
Validated: 1
EndChar

StartChar: guilsinglleft
Encoding: 8249 8249 337
Width: 440
GlyphClass: 1
Flags: W
LayerCount: 2
Fore
SplineSet
30 260 m 1,0,-1
 225 470 l 1,1,-1
 400 470 l 1,2,-1
 215 260 l 1,3,-1
 400 50 l 1,4,-1
 225 50 l 1,5,-1
 30 260 l 1,0,-1
EndSplineSet
Validated: 1
EndChar

StartChar: guilsinglright
Encoding: 8250 8250 338
Width: 440
GlyphClass: 1
Flags: W
LayerCount: 2
Fore
SplineSet
40 50 m 1,0,-1
 225 260 l 1,1,-1
 40 470 l 1,2,-1
 215 470 l 1,3,-1
 410 260 l 1,4,-1
 215 50 l 1,5,-1
 40 50 l 1,0,-1
EndSplineSet
Validated: 1
EndChar

StartChar: uni203D
Encoding: 8253 8253 339
Width: 740
GlyphClass: 1
Flags: W
LayerCount: 2
Fore
SplineSet
40 540 m 1,0,-1
 40 660 l 1,1,-1
 520 660 l 2,2,3
 690 660 690 660 690 524 c 2,4,-1
 690 421 l 2,5,6
 690 285 690 285 520 285 c 2,7,-1
 410 285 l 1,8,-1
 410 225 l 1,9,-1
 210 225 l 1,10,-1
 210 540 l 1,11,-1
 40 540 l 1,0,-1
210 0 m 1,12,-1
 210 150 l 1,13,-1
 410 150 l 1,14,-1
 410 0 l 1,15,-1
 210 0 l 1,12,-1
410 405 m 1,16,-1
 455 405 l 2,17,18
 490 405 490 405 490 433 c 2,19,-1
 490 512 l 2,20,21
 490 540 490 540 455 540 c 2,22,-1
 410 540 l 1,23,-1
 410 405 l 1,16,-1
EndSplineSet
Validated: 1
EndChar

StartChar: uni203E
Encoding: 8254 8254 340
Width: 640
GlyphClass: 1
Flags: W
LayerCount: 2
Fore
SplineSet
0 745 m 1,0,-1
 0 850 l 1,1,-1
 640 850 l 1,2,-1
 640 745 l 1,3,-1
 0 745 l 1,0,-1
EndSplineSet
Validated: 1
EndChar

StartChar: fraction
Encoding: 8260 8260 341
Width: 190
GlyphClass: 1
Flags: W
LayerCount: 2
Fore
SplineSet
-165 0 m 1,0,-1
 197 660 l 1,1,-1
 355 660 l 1,2,-1
 -7 0 l 1,3,-1
 -165 0 l 1,0,-1
EndSplineSet
Validated: 1
EndChar

StartChar: arrowleft
Encoding: 8592 8592 342
Width: 750
GlyphClass: 1
Flags: W
LayerCount: 2
Fore
SplineSet
40 285 m 1,0,-1
 285 535 l 1,1,-1
 480 535 l 1,2,-1
 330 365 l 1,3,-1
 700 365 l 1,4,-1
 700 205 l 1,5,-1
 330 205 l 1,6,-1
 480 35 l 1,7,-1
 285 35 l 1,8,-1
 40 285 l 1,0,-1
EndSplineSet
Validated: 1
EndChar

StartChar: arrowup
Encoding: 8593 8593 343
Width: 620
GlyphClass: 1
Flags: W
LayerCount: 2
Fore
SplineSet
60 220 m 1,0,-1
 60 415 l 1,1,-1
 310 660 l 1,2,-1
 560 415 l 1,3,-1
 560 220 l 1,4,-1
 390 370 l 1,5,-1
 390 0 l 1,6,-1
 230 0 l 1,7,-1
 230 370 l 1,8,-1
 60 220 l 1,0,-1
EndSplineSet
Validated: 1
EndChar

StartChar: arrowright
Encoding: 8594 8594 344
Width: 750
GlyphClass: 1
Flags: W
LayerCount: 2
Fore
SplineSet
50 205 m 1,0,-1
 50 365 l 1,1,-1
 420 365 l 1,2,-1
 270 535 l 1,3,-1
 465 535 l 1,4,-1
 710 285 l 1,5,-1
 465 35 l 1,6,-1
 270 35 l 1,7,-1
 420 205 l 1,8,-1
 50 205 l 1,0,-1
EndSplineSet
Validated: 1
EndChar

StartChar: arrowdown
Encoding: 8595 8595 345
Width: 620
GlyphClass: 1
Flags: W
LayerCount: 2
Fore
SplineSet
60 245 m 1,0,-1
 60 440 l 1,1,-1
 230 290 l 1,2,-1
 230 660 l 1,3,-1
 390 660 l 1,4,-1
 390 290 l 1,5,-1
 560 440 l 1,6,-1
 560 245 l 1,7,-1
 310 0 l 1,8,-1
 60 245 l 1,0,-1
EndSplineSet
Validated: 1
EndChar

StartChar: arrowboth
Encoding: 8596 8596 346
Width: 1000
GlyphClass: 1
Flags: W
LayerCount: 2
Fore
SplineSet
315 686 m 1,0,-1
 484 686 l 1,1,-1
 354 539 l 1,2,-1
 817 539 l 1,3,-1
 817 401 l 1,4,-1
 354 401 l 1,5,-1
 484 254 l 1,6,-1
 315 254 l 1,7,-1
 103 470 l 1,8,-1
 315 686 l 1,0,-1
516 326 m 1,9,-1
 685 326 l 1,10,-1
 897 110 l 1,11,-1
 685 -106 l 1,12,-1
 516 -106 l 1,13,-1
 646 41 l 1,14,-1
 183 41 l 1,15,-1
 183 179 l 1,16,-1
 646 179 l 1,17,-1
 516 326 l 1,9,-1
EndSplineSet
Validated: 1
EndChar

StartChar: arrowupdn
Encoding: 8597 8597 347
Width: 1000
GlyphClass: 1
Flags: W
LayerCount: 2
Fore
SplineSet
104 105 m 1,0,-1
 104 274 l 1,1,-1
 251 144 l 1,2,-1
 251 607 l 1,3,-1
 389 607 l 1,4,-1
 389 144 l 1,5,-1
 536 274 l 1,6,-1
 536 105 l 1,7,-1
 320 -107 l 1,8,-1
 104 105 l 1,0,-1
464 306 m 1,9,-1
 464 475 l 1,10,-1
 680 687 l 1,11,-1
 896 475 l 1,12,-1
 896 306 l 1,13,-1
 749 436 l 1,14,-1
 749 -27 l 1,15,-1
 611 -27 l 1,16,-1
 611 436 l 1,17,-1
 464 306 l 1,9,-1
EndSplineSet
Validated: 1
EndChar

StartChar: uni2196
Encoding: 8598 8598 348
Width: 1000
GlyphClass: 1
Flags: W
LayerCount: 2
Fore
SplineSet
286 767 m 2,0,-1
 714 767 l 2,1,2
 745 767 745 767 766.5 747.5 c 128,-1,3
 788 728 788 728 788 701 c 2,4,-1
 788 -50 l 1,5,6
 772 -95 772 -95 727 -127 c 128,-1,7
 682 -159 682 -159 624 -173 c 128,-1,8
 566 -187 566 -187 499.5 -186.5 c 128,-1,9
 433 -186 433 -186 375 -171 c 128,-1,10
 317 -156 317 -156 272 -124.5 c 128,-1,11
 227 -93 227 -93 212 -50 c 1,12,-1
 212 701 l 2,13,14
 212 728 212 728 233.5 747.5 c 128,-1,15
 255 767 255 767 286 767 c 2,0,-1
267 411 m 1,16,-1
 267 169 l 1,17,-1
 491 169 l 1,18,-1
 491 213 l 1,19,-1
 341 213 l 1,20,-1
 341 411 l 1,21,-1
 267 411 l 1,16,-1
462 411 m 1,22,-1
 462 367 l 1,23,-1
 560 367 l 1,24,-1
 560 169 l 1,25,-1
 634 169 l 1,26,-1
 634 367 l 1,27,-1
 733 367 l 1,28,-1
 733 411 l 1,29,-1
 462 411 l 1,22,-1
EndSplineSet
Validated: 33
EndChar

StartChar: uni2197
Encoding: 8599 8599 349
Width: 1000
GlyphClass: 1
Flags: W
LayerCount: 2
Fore
SplineSet
286 767 m 2,0,-1
 714 767 l 2,1,2
 745 767 745 767 766.5 747.5 c 128,-1,3
 788 728 788 728 788 701 c 2,4,-1
 788 -50 l 1,5,6
 772 -95 772 -95 727 -127 c 128,-1,7
 682 -159 682 -159 624 -173 c 128,-1,8
 566 -187 566 -187 499.5 -186.5 c 128,-1,9
 433 -186 433 -186 375 -171 c 128,-1,10
 317 -156 317 -156 272 -124.5 c 128,-1,11
 227 -93 227 -93 212 -50 c 1,12,-1
 212 701 l 2,13,14
 212 728 212 728 233.5 747.5 c 128,-1,15
 255 767 255 767 286 767 c 2,0,-1
229 411 m 1,16,-1
 229 169 l 1,17,-1
 302 169 l 1,18,-1
 302 261 l 1,19,-1
 342 261 l 1,20,-1
 402 169 l 1,21,-1
 482 169 l 1,22,-1
 421 261 l 1,23,24
 471 267 471 267 471 311 c 2,25,-1
 471 361 l 2,26,27
 471 411 471 411 408 411 c 2,28,-1
 229 411 l 1,16,-1
500 411 m 1,29,-1
 500 367 l 1,30,-1
 599 367 l 1,31,-1
 599 169 l 1,32,-1
 672 169 l 1,33,-1
 672 367 l 1,34,-1
 771 367 l 1,35,-1
 771 411 l 1,36,-1
 500 411 l 1,29,-1
302 367 m 1,37,-1
 385 367 l 2,38,39
 397 367 397 367 397 357 c 2,40,-1
 397 315 l 2,41,42
 397 305 397 305 385 305 c 2,43,-1
 302 305 l 1,44,-1
 302 367 l 1,37,-1
EndSplineSet
Validated: 33
EndChar

StartChar: uni2198
Encoding: 8600 8600 350
Width: 1000
GlyphClass: 1
Flags: W
LayerCount: 2
Fore
SplineSet
111 471 m 2,0,-1
 889 471 l 2,1,2
 927 471 927 471 953.5 444.5 c 128,-1,3
 980 418 980 418 980 380 c 2,4,-1
 980 200 l 2,5,6
 980 162 980 162 953.5 135.5 c 128,-1,7
 927 109 927 109 889 109 c 2,8,-1
 111 109 l 2,9,10
 73 109 73 109 46.5 135.5 c 128,-1,11
 20 162 20 162 20 200 c 2,12,-1
 20 380 l 2,13,14
 20 418 20 418 46.5 444.5 c 128,-1,15
 73 471 73 471 111 471 c 2,0,-1
237 417 m 1,16,-1
 237 163 l 1,17,-1
 471 163 l 1,18,-1
 471 209 l 1,19,-1
 314 209 l 1,20,-1
 314 417 l 1,21,-1
 237 417 l 1,16,-1
506 417 m 1,22,-1
 506 163 l 1,23,-1
 698 163 l 2,24,25
 763 163 763 163 763 216 c 2,26,-1
 763 251 l 2,27,28
 763 286 763 286 734 298 c 1,29,30
 759 310 759 310 759 342 c 2,31,-1
 759 364 l 2,32,33
 759 417 759 417 694 417 c 2,34,-1
 506 417 l 1,22,-1
583 371 m 1,35,-1
 669 371 l 2,36,37
 682 371 682 371 682 360 c 2,38,-1
 682 330 l 2,39,40
 682 319 682 319 669 319 c 2,41,-1
 583 319 l 1,42,-1
 583 371 l 1,35,-1
583 273 m 1,43,-1
 673 273 l 2,44,45
 686 273 686 273 686 262 c 2,46,-1
 686 220 l 2,47,48
 686 209 686 209 673 209 c 2,49,-1
 583 209 l 1,50,-1
 583 273 l 1,43,-1
EndSplineSet
Validated: 1
EndChar

StartChar: uni2199
Encoding: 8601 8601 351
Width: 1000
GlyphClass: 1
Flags: W
LayerCount: 2
Fore
SplineSet
111 471 m 2,0,-1
 889 471 l 2,1,2
 927 471 927 471 953.5 444.5 c 128,-1,3
 980 418 980 418 980 380 c 2,4,-1
 980 200 l 2,5,6
 980 162 980 162 953.5 135.5 c 128,-1,7
 927 109 927 109 889 109 c 2,8,-1
 111 109 l 2,9,10
 73 109 73 109 46.5 135.5 c 128,-1,11
 20 162 20 162 20 200 c 2,12,-1
 20 380 l 2,13,14
 20 418 20 418 46.5 444.5 c 128,-1,15
 73 471 73 471 111 471 c 2,0,-1
220 417 m 1,16,-1
 220 163 l 1,17,-1
 296 163 l 1,18,-1
 296 259 l 1,19,-1
 338 259 l 1,20,-1
 402 163 l 1,21,-1
 485 163 l 1,22,-1
 421 259 l 1,23,24
 473 265 473 265 473 312 c 2,25,-1
 473 364 l 2,26,27
 473 417 473 417 408 417 c 2,28,-1
 220 417 l 1,16,-1
523 417 m 1,29,-1
 523 163 l 1,30,-1
 715 163 l 2,31,32
 780 163 780 163 780 216 c 2,33,-1
 780 251 l 2,34,35
 780 286 780 286 752 298 c 1,36,37
 776 310 776 310 776 342 c 2,38,-1
 776 364 l 2,39,40
 776 417 776 417 711 417 c 2,41,-1
 523 417 l 1,29,-1
296 371 m 1,42,-1
 383 371 l 2,43,44
 396 371 396 371 396 360 c 2,45,-1
 396 316 l 2,46,47
 396 305 396 305 383 305 c 2,48,-1
 296 305 l 1,49,-1
 296 371 l 1,42,-1
600 371 m 1,50,-1
 686 371 l 2,51,52
 700 371 700 371 700 360 c 2,53,-1
 700 330 l 2,54,55
 700 319 700 319 686 319 c 2,56,-1
 600 319 l 1,57,-1
 600 371 l 1,50,-1
600 273 m 1,58,-1
 690 273 l 2,59,60
 704 273 704 273 704 262 c 2,61,-1
 704 220 l 2,62,63
 704 209 704 209 690 209 c 2,64,-1
 600 209 l 1,65,-1
 600 273 l 1,58,-1
EndSplineSet
Validated: 1
EndChar

StartChar: uni219A
Encoding: 8602 8602 352
Width: 1000
GlyphClass: 1
Flags: W
LayerCount: 2
Fore
SplineSet
286 767 m 2,0,-1
 714 767 l 2,1,2
 745 767 745 767 766.5 747.5 c 128,-1,3
 788 728 788 728 788 701 c 2,4,-1
 788 -50 l 1,5,6
 772 -95 772 -95 727 -127 c 128,-1,7
 682 -159 682 -159 624 -173 c 128,-1,8
 566 -187 566 -187 499.5 -186.5 c 128,-1,9
 433 -186 433 -186 375 -171 c 128,-1,10
 317 -156 317 -156 272 -124.5 c 128,-1,11
 227 -93 227 -93 212 -50 c 1,12,-1
 212 701 l 2,13,14
 212 728 212 728 233.5 747.5 c 128,-1,15
 255 767 255 767 286 767 c 2,0,-1
537 412 m 1,16,-1
 537 168 l 1,17,-1
 763 168 l 1,18,-1
 763 212 l 1,19,-1
 612 212 l 1,20,-1
 612 412 l 1,21,-1
 537 412 l 1,16,-1
245 412 m 1,22,-1
 245 367 l 1,23,-1
 394 367 l 1,24,-1
 241 212 l 1,25,-1
 241 168 l 1,26,-1
 488 168 l 1,27,-1
 488 212 l 1,28,-1
 332 212 l 1,29,-1
 484 367 l 1,30,-1
 484 412 l 1,31,-1
 245 412 l 1,22,-1
EndSplineSet
Validated: 33
EndChar

StartChar: uni219B
Encoding: 8603 8603 353
Width: 1000
GlyphClass: 1
Flags: W
LayerCount: 2
Fore
SplineSet
286 767 m 2,0,-1
 714 767 l 2,1,2
 745 767 745 767 766.5 748 c 128,-1,3
 788 729 788 729 788 701 c 2,4,-1
 788 -50 l 1,5,6
 765 -116 765 -116 685.5 -151.5 c 128,-1,7
 606 -187 606 -187 505 -187 c 0,8,9
 402 -187 402 -187 318.5 -150.5 c 128,-1,10
 235 -114 235 -114 212 -50 c 1,11,-1
 212 701 l 2,12,13
 212 729 212 729 233.5 748 c 128,-1,14
 255 767 255 767 286 767 c 2,0,-1
238 412 m 1,15,-1
 238 367 l 1,16,-1
 387 367 l 1,17,-1
 234 212 l 1,18,-1
 234 168 l 1,19,-1
 481 168 l 1,20,-1
 481 212 l 1,21,-1
 325 212 l 1,22,-1
 477 367 l 1,23,-1
 477 412 l 1,24,-1
 238 412 l 1,15,-1
521 412 m 1,25,-1
 521 168 l 1,26,-1
 595 168 l 1,27,-1
 595 260 l 1,28,-1
 635 260 l 1,29,-1
 696 168 l 1,30,-1
 776 168 l 1,31,-1
 715 260 l 1,32,33
 765 266 765 266 765 311 c 2,34,-1
 765 362 l 2,35,36
 765 412 765 412 702 412 c 2,37,-1
 521 412 l 1,25,-1
595 368 m 1,38,-1
 678 368 l 2,39,40
 691 368 691 368 691 357 c 2,41,-1
 691 315 l 2,42,43
 691 305 691 305 678 305 c 2,44,-1
 595 305 l 1,45,-1
 595 368 l 1,38,-1
EndSplineSet
Validated: 1
EndChar

StartChar: uni219C
Encoding: 8604 8604 354
Width: 1000
GlyphClass: 1
Flags: W
LayerCount: 2
Fore
SplineSet
111 471 m 2,0,-1
 889 471 l 2,1,2
 927 471 927 471 953.5 444.5 c 128,-1,3
 980 418 980 418 980 380 c 2,4,-1
 980 200 l 2,5,6
 980 162 980 162 953.5 135.5 c 128,-1,7
 927 109 927 109 889 109 c 2,8,-1
 111 109 l 2,9,10
 73 109 73 109 46.5 135.5 c 128,-1,11
 20 162 20 162 20 200 c 2,12,-1
 20 380 l 2,13,14
 20 418 20 418 46.5 444.5 c 128,-1,15
 73 471 73 471 111 471 c 2,0,-1
406 412 m 1,16,-1
 406 168 l 1,17,-1
 632 168 l 1,18,-1
 632 212 l 1,19,-1
 480 212 l 1,20,-1
 480 412 l 1,21,-1
 406 412 l 1,16,-1
EndSplineSet
Validated: 1
EndChar

StartChar: uni219D
Encoding: 8605 8605 355
Width: 1000
GlyphClass: 1
Flags: W
LayerCount: 2
Fore
SplineSet
111 471 m 2,0,-1
 889 471 l 2,1,2
 927 471 927 471 953.5 444.5 c 128,-1,3
 980 418 980 418 980 380 c 2,4,-1
 980 200 l 2,5,6
 980 162 980 162 953.5 135.5 c 128,-1,7
 927 109 927 109 889 109 c 2,8,-1
 111 109 l 2,9,10
 73 109 73 109 46.5 135.5 c 128,-1,11
 20 162 20 162 20 200 c 2,12,-1
 20 380 l 2,13,14
 20 418 20 418 46.5 444.5 c 128,-1,15
 73 471 73 471 111 471 c 2,0,-1
390 412 m 1,16,-1
 390 168 l 1,17,-1
 464 168 l 1,18,-1
 464 260 l 1,19,-1
 504 260 l 1,20,-1
 565 168 l 1,21,-1
 645 168 l 1,22,-1
 584 260 l 1,23,24
 634 266 634 266 634 311 c 2,25,-1
 634 362 l 2,26,27
 634 412 634 412 571 412 c 2,28,-1
 390 412 l 1,16,-1
464 368 m 1,29,-1
 547 368 l 2,30,31
 560 368 560 368 560 357 c 2,32,-1
 560 315 l 2,33,34
 560 305 560 305 547 305 c 2,35,-1
 464 305 l 1,36,-1
 464 368 l 1,29,-1
EndSplineSet
Validated: 1
EndChar

StartChar: uni219E
Encoding: 8606 8606 356
Width: 1000
GlyphClass: 1
Flags: W
LayerCount: 2
Fore
SplineSet
0 90 m 1,0,-1
 0 490 l 1,1,-1
 234 490 l 1,2,-1
 434 284 l 1,3,-1
 234 90 l 1,4,-1
 0 90 l 1,0,-1
766 490 m 1,5,-1
 1000 490 l 1,6,-1
 1000 90 l 1,7,-1
 766 90 l 1,8,-1
 566 284 l 1,9,-1
 766 490 l 1,5,-1
794 448 m 1,10,-1
 636 285 l 1,11,-1
 794 132 l 1,12,-1
 954 132 l 1,13,-1
 954 448 l 1,14,-1
 794 448 l 1,10,-1
300 556 m 1,15,-1
 300 790 l 1,16,-1
 700 790 l 1,17,-1
 700 556 l 1,18,-1
 506 356 l 1,19,-1
 300 556 l 1,15,-1
342 584 m 1,20,-1
 505 426 l 1,21,-1
 658 584 l 1,22,-1
 658 744 l 1,23,-1
 342 744 l 1,24,-1
 342 584 l 1,20,-1
300 24 m 1,25,-1
 506 224 l 1,26,-1
 700 24 l 1,27,-1
 700 -210 l 1,28,-1
 300 -210 l 1,29,-1
 300 24 l 1,25,-1
342 -4 m 1,30,-1
 342 -164 l 1,31,-1
 658 -164 l 1,32,-1
 658 -4 l 1,33,-1
 505 154 l 1,34,-1
 342 -4 l 1,30,-1
EndSplineSet
Validated: 1
EndChar

StartChar: uni219F
Encoding: 8607 8607 357
Width: 1000
GlyphClass: 1
Flags: W
LayerCount: 2
Fore
SplineSet
300 790 m 1,0,-1
 700 790 l 1,1,-1
 700 556 l 1,2,-1
 494 356 l 1,3,-1
 300 556 l 1,4,-1
 300 790 l 1,0,-1
700 24 m 1,5,-1
 700 -210 l 1,6,-1
 300 -210 l 1,7,-1
 300 24 l 1,8,-1
 494 224 l 1,9,-1
 700 24 l 1,5,-1
658 -4 m 1,10,-1
 495 154 l 1,11,-1
 342 -4 l 1,12,-1
 342 -164 l 1,13,-1
 658 -164 l 1,14,-1
 658 -4 l 1,10,-1
766 490 m 1,15,-1
 1000 490 l 1,16,-1
 1000 90 l 1,17,-1
 766 90 l 1,18,-1
 566 284 l 1,19,-1
 766 490 l 1,15,-1
794 448 m 1,20,-1
 636 285 l 1,21,-1
 794 132 l 1,22,-1
 954 132 l 1,23,-1
 954 448 l 1,24,-1
 794 448 l 1,20,-1
234 490 m 1,25,-1
 434 284 l 1,26,-1
 234 90 l 1,27,-1
 0 90 l 1,28,-1
 0 490 l 1,29,-1
 234 490 l 1,25,-1
206 448 m 1,30,-1
 46 448 l 1,31,-1
 46 132 l 1,32,-1
 206 132 l 1,33,-1
 364 285 l 1,34,-1
 206 448 l 1,30,-1
EndSplineSet
Validated: 1
EndChar

StartChar: uni21A0
Encoding: 8608 8608 358
Width: 1000
GlyphClass: 1
Flags: W
LayerCount: 2
Fore
SplineSet
1000 490 m 1,0,-1
 1000 90 l 1,1,-1
 766 90 l 1,2,-1
 566 296 l 1,3,-1
 766 490 l 1,4,-1
 1000 490 l 1,0,-1
234 90 m 1,5,-1
 0 90 l 1,6,-1
 0 490 l 1,7,-1
 234 490 l 1,8,-1
 434 296 l 1,9,-1
 234 90 l 1,5,-1
206 132 m 1,10,-1
 364 295 l 1,11,-1
 206 448 l 1,12,-1
 46 448 l 1,13,-1
 46 132 l 1,14,-1
 206 132 l 1,10,-1
700 24 m 1,15,-1
 700 -210 l 1,16,-1
 300 -210 l 1,17,-1
 300 24 l 1,18,-1
 494 224 l 1,19,-1
 700 24 l 1,15,-1
658 -4 m 1,20,-1
 495 154 l 1,21,-1
 342 -4 l 1,22,-1
 342 -164 l 1,23,-1
 658 -164 l 1,24,-1
 658 -4 l 1,20,-1
700 556 m 1,25,-1
 494 356 l 1,26,-1
 300 556 l 1,27,-1
 300 790 l 1,28,-1
 700 790 l 1,29,-1
 700 556 l 1,25,-1
658 584 m 1,30,-1
 658 744 l 1,31,-1
 342 744 l 1,32,-1
 342 584 l 1,33,-1
 495 426 l 1,34,-1
 658 584 l 1,30,-1
EndSplineSet
Validated: 1
EndChar

StartChar: uni21A1
Encoding: 8609 8609 359
Width: 1000
GlyphClass: 1
Flags: W
LayerCount: 2
Fore
SplineSet
700 -210 m 1,0,-1
 300 -210 l 1,1,-1
 300 24 l 1,2,-1
 506 224 l 1,3,-1
 700 24 l 1,4,-1
 700 -210 l 1,0,-1
300 556 m 1,5,-1
 300 790 l 1,6,-1
 700 790 l 1,7,-1
 700 556 l 1,8,-1
 506 356 l 1,9,-1
 300 556 l 1,5,-1
342 584 m 1,10,-1
 505 426 l 1,11,-1
 658 584 l 1,12,-1
 658 744 l 1,13,-1
 342 744 l 1,14,-1
 342 584 l 1,10,-1
234 90 m 1,15,-1
 0 90 l 1,16,-1
 0 490 l 1,17,-1
 234 490 l 1,18,-1
 434 296 l 1,19,-1
 234 90 l 1,15,-1
206 132 m 1,20,-1
 364 295 l 1,21,-1
 206 448 l 1,22,-1
 46 448 l 1,23,-1
 46 132 l 1,24,-1
 206 132 l 1,20,-1
766 90 m 1,25,-1
 566 296 l 1,26,-1
 766 490 l 1,27,-1
 1000 490 l 1,28,-1
 1000 90 l 1,29,-1
 766 90 l 1,25,-1
794 132 m 1,30,-1
 954 132 l 1,31,-1
 954 448 l 1,32,-1
 794 448 l 1,33,-1
 636 295 l 1,34,-1
 794 132 l 1,30,-1
EndSplineSet
Validated: 1
EndChar

StartChar: uni21A2
Encoding: 8610 8610 360
Width: 1000
GlyphClass: 1
Flags: W
LayerCount: 2
Fore
SplineSet
0 90 m 1,0,-1
 0 490 l 1,1,-1
 234 490 l 1,2,-1
 434 284 l 1,3,-1
 234 90 l 1,4,-1
 0 90 l 1,0,-1
1000 90 m 1,5,-1
 1000 490 l 1,6,-1
 766 490 l 1,7,-1
 566 284 l 1,8,-1
 766 90 l 1,9,-1
 1000 90 l 1,5,-1
300 556 m 1,10,-1
 300 790 l 1,11,-1
 700 790 l 1,12,-1
 700 556 l 1,13,-1
 506 356 l 1,14,-1
 300 556 l 1,10,-1
342 584 m 1,15,-1
 505 426 l 1,16,-1
 658 584 l 1,17,-1
 658 744 l 1,18,-1
 342 744 l 1,19,-1
 342 584 l 1,15,-1
300 24 m 1,20,-1
 506 224 l 1,21,-1
 700 24 l 1,22,-1
 700 -210 l 1,23,-1
 300 -210 l 1,24,-1
 300 24 l 1,20,-1
342 -4 m 1,25,-1
 342 -164 l 1,26,-1
 658 -164 l 1,27,-1
 658 -4 l 1,28,-1
 505 154 l 1,29,-1
 342 -4 l 1,25,-1
EndSplineSet
Validated: 9
EndChar

StartChar: uni21A3
Encoding: 8611 8611 361
Width: 1000
GlyphClass: 1
Flags: W
LayerCount: 2
Fore
SplineSet
700 -210 m 1,0,-1
 300 -210 l 1,1,-1
 300 24 l 1,2,-1
 506 224 l 1,3,-1
 700 24 l 1,4,-1
 700 -210 l 1,0,-1
700 790 m 1,5,-1
 300 790 l 1,6,-1
 300 556 l 1,7,-1
 506 356 l 1,8,-1
 700 556 l 1,9,-1
 700 790 l 1,5,-1
234 90 m 1,10,-1
 0 90 l 1,11,-1
 0 490 l 1,12,-1
 234 490 l 1,13,-1
 434 296 l 1,14,-1
 234 90 l 1,10,-1
206 132 m 1,15,-1
 364 295 l 1,16,-1
 206 448 l 1,17,-1
 46 448 l 1,18,-1
 46 132 l 1,19,-1
 206 132 l 1,15,-1
766 90 m 1,20,-1
 566 296 l 1,21,-1
 766 490 l 1,22,-1
 1000 490 l 1,23,-1
 1000 90 l 1,24,-1
 766 90 l 1,20,-1
794 132 m 1,25,-1
 954 132 l 1,26,-1
 954 448 l 1,27,-1
 794 448 l 1,28,-1
 636 295 l 1,29,-1
 794 132 l 1,25,-1
EndSplineSet
Validated: 9
EndChar

StartChar: uni21A4
Encoding: 8612 8612 362
Width: 1000
GlyphClass: 1
Flags: W
LayerCount: 2
Fore
SplineSet
0 290 m 128,-1,1
 0 368 0 368 55.5 423.5 c 128,-1,2
 111 479 111 479 189 479 c 128,-1,3
 267 479 267 479 322.5 423.5 c 128,-1,4
 378 368 378 368 378 290 c 128,-1,5
 378 212 378 212 322.5 156.5 c 128,-1,6
 267 101 267 101 189 101 c 128,-1,7
 111 101 111 101 55.5 156.5 c 128,-1,0
 0 212 0 212 0 290 c 128,-1,1
500 790 m 128,-1,9
 578 790 578 790 633.5 734.5 c 128,-1,10
 689 679 689 679 689 601 c 128,-1,11
 689 523 689 523 633.5 467.5 c 128,-1,12
 578 412 578 412 500 412 c 128,-1,13
 422 412 422 412 366.5 467.5 c 128,-1,14
 311 523 311 523 311 601 c 128,-1,15
 311 679 311 679 366.5 734.5 c 128,-1,8
 422 790 422 790 500 790 c 128,-1,9
500 753 m 128,-1,17
 437 753 437 753 392.5 708.5 c 128,-1,18
 348 664 348 664 348 601 c 128,-1,19
 348 538 348 538 392.5 493.5 c 128,-1,20
 437 449 437 449 500 449 c 128,-1,21
 563 449 563 449 607.5 493.5 c 128,-1,22
 652 538 652 538 652 601 c 128,-1,23
 652 664 652 664 607.5 708.5 c 128,-1,16
 563 753 563 753 500 753 c 128,-1,17
500 168 m 128,-1,25
 578 168 578 168 633.5 112.5 c 128,-1,26
 689 57 689 57 689 -21 c 128,-1,27
 689 -99 689 -99 633.5 -154.5 c 128,-1,28
 578 -210 578 -210 500 -210 c 128,-1,29
 422 -210 422 -210 366.5 -154.5 c 128,-1,30
 311 -99 311 -99 311 -21 c 128,-1,31
 311 57 311 57 366.5 112.5 c 128,-1,24
 422 168 422 168 500 168 c 128,-1,25
500 131 m 128,-1,33
 437 131 437 131 392.5 86.5 c 128,-1,34
 348 42 348 42 348 -21 c 128,-1,35
 348 -84 348 -84 392.5 -128.5 c 128,-1,36
 437 -173 437 -173 500 -173 c 128,-1,37
 563 -173 563 -173 607.5 -128.5 c 128,-1,38
 652 -84 652 -84 652 -21 c 128,-1,39
 652 42 652 42 607.5 86.5 c 128,-1,32
 563 131 563 131 500 131 c 128,-1,33
811 479 m 128,-1,41
 889 479 889 479 944.5 423.5 c 128,-1,42
 1000 368 1000 368 1000 290 c 128,-1,43
 1000 212 1000 212 944.5 156.5 c 128,-1,44
 889 101 889 101 811 101 c 128,-1,45
 733 101 733 101 677.5 156.5 c 128,-1,46
 622 212 622 212 622 290 c 128,-1,47
 622 368 622 368 677.5 423.5 c 128,-1,40
 733 479 733 479 811 479 c 128,-1,41
811 442 m 128,-1,49
 748 442 748 442 703.5 397.5 c 128,-1,50
 659 353 659 353 659 290 c 128,-1,51
 659 227 659 227 703.5 182.5 c 128,-1,52
 748 138 748 138 811 138 c 128,-1,53
 874 138 874 138 918.5 182.5 c 128,-1,54
 963 227 963 227 963 290 c 128,-1,55
 963 353 963 353 918.5 397.5 c 128,-1,48
 874 442 874 442 811 442 c 128,-1,49
EndSplineSet
Validated: 1
EndChar

StartChar: uni21A5
Encoding: 8613 8613 363
Width: 1000
GlyphClass: 1
Flags: W
LayerCount: 2
Fore
SplineSet
500 790 m 128,-1,1
 578 790 578 790 633.5 734.5 c 128,-1,2
 689 679 689 679 689 601 c 128,-1,3
 689 523 689 523 633.5 467.5 c 128,-1,4
 578 412 578 412 500 412 c 128,-1,5
 422 412 422 412 366.5 467.5 c 128,-1,6
 311 523 311 523 311 601 c 128,-1,7
 311 679 311 679 366.5 734.5 c 128,-1,0
 422 790 422 790 500 790 c 128,-1,1
1000 290 m 128,-1,9
 1000 212 1000 212 944.5 156.5 c 128,-1,10
 889 101 889 101 811 101 c 128,-1,11
 733 101 733 101 677.5 156.5 c 128,-1,12
 622 212 622 212 622 290 c 128,-1,13
 622 368 622 368 677.5 423.5 c 128,-1,14
 733 479 733 479 811 479 c 128,-1,15
 889 479 889 479 944.5 423.5 c 128,-1,8
 1000 368 1000 368 1000 290 c 128,-1,9
963 290 m 128,-1,17
 963 353 963 353 918.5 397.5 c 128,-1,18
 874 442 874 442 811 442 c 128,-1,19
 748 442 748 442 703.5 397.5 c 128,-1,20
 659 353 659 353 659 290 c 128,-1,21
 659 227 659 227 703.5 182.5 c 128,-1,22
 748 138 748 138 811 138 c 128,-1,23
 874 138 874 138 918.5 182.5 c 128,-1,16
 963 227 963 227 963 290 c 128,-1,17
378 290 m 128,-1,25
 378 212 378 212 322.5 156.5 c 128,-1,26
 267 101 267 101 189 101 c 128,-1,27
 111 101 111 101 55.5 156.5 c 128,-1,28
 0 212 0 212 0 290 c 128,-1,29
 0 368 0 368 55.5 423.5 c 128,-1,30
 111 479 111 479 189 479 c 128,-1,31
 267 479 267 479 322.5 423.5 c 128,-1,24
 378 368 378 368 378 290 c 128,-1,25
341 290 m 128,-1,33
 341 353 341 353 296.5 397.5 c 128,-1,34
 252 442 252 442 189 442 c 128,-1,35
 126 442 126 442 81.5 397.5 c 128,-1,36
 37 353 37 353 37 290 c 128,-1,37
 37 227 37 227 81.5 182.5 c 128,-1,38
 126 138 126 138 189 138 c 128,-1,39
 252 138 252 138 296.5 182.5 c 128,-1,32
 341 227 341 227 341 290 c 128,-1,33
689 -21 m 128,-1,41
 689 -99 689 -99 633.5 -154.5 c 128,-1,42
 578 -210 578 -210 500 -210 c 128,-1,43
 422 -210 422 -210 366.5 -154.5 c 128,-1,44
 311 -99 311 -99 311 -21 c 128,-1,45
 311 57 311 57 366.5 112.5 c 128,-1,46
 422 168 422 168 500 168 c 128,-1,47
 578 168 578 168 633.5 112.5 c 128,-1,40
 689 57 689 57 689 -21 c 128,-1,41
652 -21 m 128,-1,49
 652 42 652 42 607.5 86.5 c 128,-1,50
 563 131 563 131 500 131 c 128,-1,51
 437 131 437 131 392.5 86.5 c 128,-1,52
 348 42 348 42 348 -21 c 128,-1,53
 348 -84 348 -84 392.5 -128.5 c 128,-1,54
 437 -173 437 -173 500 -173 c 128,-1,55
 563 -173 563 -173 607.5 -128.5 c 128,-1,48
 652 -84 652 -84 652 -21 c 128,-1,49
EndSplineSet
Validated: 1
EndChar

StartChar: uni21A6
Encoding: 8614 8614 364
Width: 1000
GlyphClass: 1
Flags: W
LayerCount: 2
Fore
SplineSet
1000 290 m 128,-1,1
 1000 212 1000 212 944.5 156.5 c 128,-1,2
 889 101 889 101 811 101 c 128,-1,3
 733 101 733 101 677.5 156.5 c 128,-1,4
 622 212 622 212 622 290 c 128,-1,5
 622 368 622 368 677.5 423.5 c 128,-1,6
 733 479 733 479 811 479 c 128,-1,7
 889 479 889 479 944.5 423.5 c 128,-1,0
 1000 368 1000 368 1000 290 c 128,-1,1
500 -210 m 128,-1,9
 422 -210 422 -210 366.5 -154.5 c 128,-1,10
 311 -99 311 -99 311 -21 c 128,-1,11
 311 57 311 57 366.5 112.5 c 128,-1,12
 422 168 422 168 500 168 c 128,-1,13
 578 168 578 168 633.5 112.5 c 128,-1,14
 689 57 689 57 689 -21 c 128,-1,15
 689 -99 689 -99 633.5 -154.5 c 128,-1,8
 578 -210 578 -210 500 -210 c 128,-1,9
500 -173 m 128,-1,17
 563 -173 563 -173 607.5 -128.5 c 128,-1,18
 652 -84 652 -84 652 -21 c 128,-1,19
 652 42 652 42 607.5 86.5 c 128,-1,20
 563 131 563 131 500 131 c 128,-1,21
 437 131 437 131 392.5 86.5 c 128,-1,22
 348 42 348 42 348 -21 c 128,-1,23
 348 -84 348 -84 392.5 -128.5 c 128,-1,16
 437 -173 437 -173 500 -173 c 128,-1,17
500 412 m 128,-1,25
 422 412 422 412 366.5 467.5 c 128,-1,26
 311 523 311 523 311 601 c 128,-1,27
 311 679 311 679 366.5 734.5 c 128,-1,28
 422 790 422 790 500 790 c 128,-1,29
 578 790 578 790 633.5 734.5 c 128,-1,30
 689 679 689 679 689 601 c 128,-1,31
 689 523 689 523 633.5 467.5 c 128,-1,24
 578 412 578 412 500 412 c 128,-1,25
500 449 m 128,-1,33
 563 449 563 449 607.5 493.5 c 128,-1,34
 652 538 652 538 652 601 c 128,-1,35
 652 664 652 664 607.5 708.5 c 128,-1,36
 563 753 563 753 500 753 c 128,-1,37
 437 753 437 753 392.5 708.5 c 128,-1,38
 348 664 348 664 348 601 c 128,-1,39
 348 538 348 538 392.5 493.5 c 128,-1,32
 437 449 437 449 500 449 c 128,-1,33
189 101 m 128,-1,41
 111 101 111 101 55.5 156.5 c 128,-1,42
 0 212 0 212 0 290 c 128,-1,43
 0 368 0 368 55.5 423.5 c 128,-1,44
 111 479 111 479 189 479 c 128,-1,45
 267 479 267 479 322.5 423.5 c 128,-1,46
 378 368 378 368 378 290 c 128,-1,47
 378 212 378 212 322.5 156.5 c 128,-1,40
 267 101 267 101 189 101 c 128,-1,41
189 138 m 128,-1,49
 252 138 252 138 296.5 182.5 c 128,-1,50
 341 227 341 227 341 290 c 128,-1,51
 341 353 341 353 296.5 397.5 c 128,-1,52
 252 442 252 442 189 442 c 128,-1,53
 126 442 126 442 81.5 397.5 c 128,-1,54
 37 353 37 353 37 290 c 128,-1,55
 37 227 37 227 81.5 182.5 c 128,-1,48
 126 138 126 138 189 138 c 128,-1,49
EndSplineSet
Validated: 1
EndChar

